<svg xmlns="http://www.w3.org/2000/svg" xml:space="preserve" viewBox="0 0 653.7 485.2">
  <path d="M195.7 21.5c-1.3-5.7-2.4-8.7-3.8-10.6C190 8 188 7.2 179 7.2h-8.5v58.7c0 9.4 1 10.6 12.3 11.3v3.3h-34.2v-3.3c10.9-.7 11.8-1.9 11.8-11.3V7.2H153c-9.9 0-12.3 1-13.8 3.7-1.4 2-2.4 5.4-3.8 10.6h-3.5c.6-7.2 1.2-14.9 1.4-21.5h2.4c1.7 2.7 3.2 3 6.6 3h47.1c3.2 0 4.2-.7 6.1-3h2.5c0 5.5.6 14.2 1.2 21.1l-3.5.4zm93.4-15.2c-9.8.8-10.7 1.4-10.7 11.3v48.2c0 10 1 10.6 10.6 11.3v3.3h-32v-3.3c10.1-.7 11.2-1.3 11.2-11.3V42h-40.7v23.9c0 9.9 1 10.6 10.7 11.3v3.3h-31.4v-3.3c9.5-.7 10.5-1.3 10.5-11.3V17.7c0-10-1-10.5-10.7-11.3V3h30.9v3.3c-9.1.8-10 1.4-10 11.3V37h40.7V17.7c0-9.9-1-10.5-10.3-11.3V3H289v3.3zm69.5 55.4c-.7 3.9-3.1 15.2-4.2 18.9H297v-3.3c10.9-.8 11.8-1.8 11.8-11.5V18.3c0-10.7-1-11.1-10.3-11.9V3h53.2c0 3 .6 11.1 1 17.2l-3.5.6c-1.1-5-2.3-7.6-3.8-10.3-1.7-2.5-4.9-3.3-13.5-3.3h-9.1c-3.7 0-3.9.2-3.9 3.8v27.1h11.2c10.7 0 11.3-1 12.9-8.9h3.5V52H343c-1.6-8.6-2.4-9.3-12.8-9.3h-11.3v22.5c0 5.6.7 8.1 2.9 9.7 2.3 1.4 6.4 1.6 12.4 1.6 9.1 0 12.4-1 15-4.1 2-2.4 4.3-6.4 5.8-11.2l3.6.5zM134.3 272.1v-6c17.4-1.7 18.2-2.8 18-25.5l-.6-87.5h-.9L98.5 270.6h-4.3l-48-114.5h-.4l-3.2 61.1c-.9 17.6-.9 27-.6 35.6.4 10.3 5.6 11.8 19.7 13.3v6h-50v-6c12.4-1.5 16.7-3.9 18.2-12.9 1.1-7.5 2.4-16.9 4.1-39.3l3-44.6c1.9-27.9.9-28.7-18.7-30.7v-6h35.2L102.4 240 152 132.7h36.5v6c-18.9 1.7-20.4 2.1-19.7 24.2l2.1 77.7c.6 22.7 1.3 23.8 20 25.5v6h-56.6zm180-33.8c-1.3 7.1-5.6 27.2-7.5 33.9H203.4v-6c19.5-1.5 21.2-3.2 21.2-20.6v-85.4c0-19.3-1.7-20-18.4-21.5v-6h95.7c0 5.4 1.1 20 1.7 30.9l-6.2 1.1c-1.9-9-4.1-13.7-6.9-18.4-3-4.5-8.8-6-24.2-6H250c-6.7 0-7.1.4-7.1 6.9v48.7H263c19.3 0 20.4-1.7 23.2-16.1h6.2V221h-6.2c-2.8-15.4-4.3-16.7-23-16.7h-20.4v40.5c0 10.1 1.3 14.6 5.1 17.4 4.1 2.6 11.6 2.8 22.3 2.8 16.3 0 22.3-1.7 27-7.3 3.6-4.3 7.7-11.6 10.5-20.2l6.6.8zm207.2-99.6c-14.8 1.9-16.7 3.6-23.2 21.5-4.9 13.7-17.8 54.3-35.4 114.1h-6.7c-11.8-34.3-26.6-75.7-37.5-106.8h-.4c-12 37.8-24 72.3-35 106.8h-6.7c-11.4-38.6-23.4-76.4-35.2-114.6-5.4-17.6-8.6-19.3-21.7-21v-6H372v6c-15.7 1.9-16.1 3.6-12.9 14.6 8.4 29 16.7 57.9 26.2 88.4h.4c11.4-36.5 23.8-71.9 34.8-106.8h6.2c12 35.2 24.5 69.9 37.5 106.8h.4c9-28.5 20.8-70.6 24.2-85.8 3-12.9 2.1-15.2-14.8-17.2v-6h47.4v6zm77.7 26.6c-3.9-13.7-9.4-28.5-28.1-28.5-16.5 0-23.8 12-23.8 23.6 0 15.7 10.3 23 27.2 31.7 16.7 8.6 37.1 18.7 37.1 42.7 0 22.5-19.1 40.5-47.6 40.5-8.8 0-15.7-1.7-21-3.2-5.4-1.9-8.6-3.4-10.5-4.5-1.7-4.5-4.5-23-5.8-33.3l6.2-1.5c3.4 13.1 13.1 34.8 35.2 34.8 16.1 0 25.7-10.1 25.7-25.7 0-15.9-11.8-23.4-27.9-32-13.7-7.3-35.4-18-35.4-42.3 0-20.6 16.5-38.2 44.2-38.2 9.9 0 18.9 2.4 27 4.9.9 7.7 1.9 16.1 3.6 29.6l-6.1 1.4zM142.6 353.7c-16.9 1.4-18.6 2.5-18.6 19.6v83.4c0 17.3 1.7 18.4 18.4 19.6v5.8H87.1v-5.8c17.5-1.2 19.4-2.3 19.4-19.6v-41.3H36.1v41.3c0 17.1 1.7 18.4 18.6 19.6v5.8H.4v-5.8c16.5-1.2 18.2-2.3 18.2-19.6v-83.4c0-17.3-1.7-18.2-18.6-19.6v-5.8h53.5v5.8c-15.7 1.4-17.3 2.5-17.3 19.6v33.4h70.4v-33.4c0-17.1-1.7-18.2-17.8-19.6v-5.8h53.9v5.8zm150.3 59.6c0 44.6-31.2 71.8-68.9 71.8-37.4 0-67.1-29.1-67.1-68.7 0-37.2 26-71.6 69.4-71.6 35 0 66.6 27.3 66.6 68.5zm-115-2.6c0 38.8 21.3 67.1 50.4 67.1 22.9 0 43.6-19.2 43.6-58.8 0-43.6-22.7-66.7-49.7-66.7-23.2-.1-44.3 19.8-44.3 58.4zm239-30.8c-2.3-9.9-4.1-15.1-6.6-18.4-3.3-5-6.8-6.4-22.3-6.4h-14.7v101.6c0 16.3 1.7 18.4 21.3 19.6v5.8h-59.2v-5.8c18.8-1.2 20.4-3.3 20.4-19.6V355.1H343c-17.1 0-21.3 1.7-23.9 6.4-2.5 3.5-4.1 9.3-6.6 18.4h-6c1-12.4 2.1-25.8 2.5-37.2h4.1c2.9 4.7 5.6 5.2 11.4 5.2H406c5.6 0 7.2-1.2 10.5-5.2h4.3c0 9.5 1 24.6 2.1 36.5l-6 .7zm123.9 69.6c-1.2 6.8-5.4 26.2-7.2 32.6h-99.5v-5.8c18.8-1.4 20.4-3.1 20.4-19.8v-82.1c0-18.6-1.7-19.2-17.8-20.6V348h92.1c0 5.2 1 19.2 1.7 29.7l-6 1c-1.9-8.7-3.9-13.2-6.6-17.8-2.9-4.3-8.5-5.8-23.3-5.8h-15.7c-6.4 0-6.8.4-6.8 6.6v46.9h19.4c18.6 0 19.6-1.7 22.3-15.5h6v39.6h-6c-2.7-14.9-4.1-16.1-22.1-16.1H472v39c0 9.7 1.2 14 5 16.7 3.9 2.5 11.1 2.7 21.5 2.7 15.7 0 21.5-1.7 26-7 3.5-4.1 7.4-11.1 10.1-19.4l6.2.9zm112.9.2c-1.2 6.4-5.6 26-7.4 32.4h-93.5v-5.8c17.3-1.2 19-2.7 19-20.2v-82.6c0-17.5-1.4-18.6-18.2-19.8v-5.8h53.9v5.8c-16.3 1.2-18.2 2.3-18.2 19.8V455c0 11.1 1 15.3 4.7 17.3 4.1 2.3 11.1 2.7 19.8 2.7 11.4 0 18.4-1 23.1-6.4 3.5-4.1 7.4-10.7 10.5-20.2l6.3 1.3z"/>
</svg>
