<svg xmlns="http://www.w3.org/2000/svg" xml:space="preserve" viewBox="0 0 600 170.2">
  <path d="M108.5 140.2h13.4c2.7-.3 5.7.8 7.9 2.7 1.4 1.4 2.2 3 1.9 4.9 0 3-1.6 5.5-4.4 6.5 3.5.5 6 3.8 6 7.4 0 5.5-4.4 8.2-11.2 8.2h-13.9l.3-29.7zm18 8.4c0-2.5-1.9-3.8-5.2-3.8H114v7.9h7.1c3.3 0 5.4-1.3 5.4-4.1zm-4.6 8.5h-8.2v8.2h9c3.5 0 5.7-1.4 5.7-4.1-.2-2.5-2.1-3.8-6.5-4.1zm79.1-16.9h5.7l7.1 22.1 7.4-22.1h4.4l7.4 22.1 7.1-22.1h5.5l-10.4 30h-4.4l-7.4-21.5-7.4 21.5h-4.4l-10.6-30zm67.1 18.3-12-18.3h6.3l8.5 13.4 8.5-13.4h6l-12 18v12h-5.5v-11.7h.2zm-113.7 0-12-18.3h6.3l8.5 13.4 8.5-13.4h6l-12 18v12h-5.5v-11.7h.2zm144.2-18.3h4.9l16.1 20.7v-20.7h5.2v30h-4.4L304 148.9v21.3h-5.2l-.2-30zm43.1 0h11.2c8.2-.5 15.3 5.7 15.8 13.9v1.1c0 8.2-6.8 15-15 15h-12.3v-30h.3zm5.2 4.6v20.5h6c5.5.3 10.1-3.5 10.4-9v-1.1c.3-5.5-4.1-10.1-9.5-10.1h-1.1l-5.8-.3zm35.2-4.6h5.2v12.5h14.5v-12.5h5.2v30h-5.5v-12.5h-14.2v12.5h-5.5l.3-30zm49.6 0h5.2l13.1 30h-5.5l-3-7.4h-14.2l-3 7.4h-5.5l12.9-30zm7.7 18-5.2-11.7-5.2 12 10.4-.3zm22.6-18h5.7l9 14.2 9-14.2h5.7v30h-5.2v-21.5l-9.5 14.2-9.3-14.2V170h-5.2l-.2-29.8zM593.2 23.5c3.8 0 6.8 3 6.8 6.8s-3 6.8-6.8 6.8-6.8-3-6.8-6.8 3-6.8 6.8-6.8zm0 1.1c-3.3 0-5.7 2.5-6 5.5s2.5 5.7 5.5 6c3.3 0 5.7-2.5 6-5.5v-.3c-.1-3.3-2.2-5.7-5.5-5.7zm-1.7 9.5h-1.1v-7.9h3c1.9 0 2.7.8 2.7 2.2 0 1.1-.8 2.2-1.9 2.2l2.2 3.5H595l-2.2-3.3h-1.1l-.2 3.3zm0-4.6h1.4c1.4 0 1.9-.3 1.9-1.4s-.3-1.1-1.6-1.1h-1.6v2.5h-.1zm-454-6 35.2 86.2h-14.5l-10.4-25.6h-31.4l-10.6 25.6H91.9l36-86.2h9.6zm-5.2 21.2-11.2 27.5h22.1l-10.9-27.5zM285 25.1l9.8 84.5h-13.9l-5.7-55.9-25.6 55.9h-8.5l-25.4-54.5-6 54.5h-13.1L207 25.1h9.5l29.7 63.8 29.2-63.8h9.6zm69.5-1.6-35.7 86.2H333l10.6-25.9H375l10.4 25.9h14.7l-35.5-86.2h-10.1zm15.3 48.8h-22.1l11.2-27.5 10.9 27.5zm79.9-47.5c-3 0-9 0-15.5.5l-6.5.3v83.5h1.4c7.1.5 11.7.8 18 .8 9.8.3 19.6-1.1 29.2-4.1 14.5-5.5 24.3-20.7 24.3-38.2.3-11.7-4.4-22.9-12.5-31.1-9.2-7.6-22-11.7-38.4-11.7zm-8.2 72.3v-60h5.5c7.6-.3 15.3 1.4 22.4 4.4 10.4 5.5 16.6 16.1 16.1 27.8.3 7.4-2.5 14.5-7.1 19.9-5.5 6.3-13.4 9-26.7 9-3.3 0-6.6-.3-10.2-1.1zM555 23.5l-35.7 86.2h14.2l10.4-25.9h31.4l10.4 25.9H600l-35.5-86.2H555zm15.3 48.8h-21.8l11.2-27.5 10.6 27.5zM47.2 57.8l31.4 47.5-14.2 6.5-35.5-55.1 2.7-6h.5c13.1-1.6 21.5-9.8 21.5-21 0-12.3-6.5-18-22.1-18-3.3 0-13.1.3-16.1.3v97.4H0V.8h.8C1.1.8 26.4 0 31.6 0 41.7 0 69 0 69 28.4c0 19.9-16.4 27-21.8 29.4z"/>
</svg>
