<svg xmlns="http://www.w3.org/2000/svg" xml:space="preserve" viewBox="0 0 133.9 107.2">
  <path d="M101 22.3c-1.4-7.2-8.9-5.9-10.9-5.5-3.8.8-7.4 1.7-10.9 2.6C81 13.6 83.1 8 86.3.4 85 .1 83.5-.2 81.8 0c-1.9.2-4 1.2-5.3 3.6-2 3.9-4.2 10-6.7 18.5-5 1.6-9.6 3.4-13.9 5.3 2.2-8 5.2-16 8.3-22.8-.7-.2-1.9-.4-2.8-.4-3.4 0-5.4 1.3-7 4.7-2.4 5.3-5.3 14.1-7.5 22.8-4.2 2.2-8 4.6-11.4 6.9-2.1 1.5-2.7 3.4-2.8 4.3-.1.6 0 1.9.4 2.7 2.3-1.4 6.5-3.8 12.1-6.5-1.1 5.5-2.4 13.2-2.4 19.1 0 3 1.8 4.8 4.5 4.8.7 0 2.2-.2 2.3-.4.8-10.3 2.8-20.7 4.4-27.5 4.2-1.8 8.8-3.6 13.7-5.3-.1.5-.2.9-.4 1.4-3.8 15-6.4 31.1-6.2 35.5.2 3.5 2.8 4.9 5 4.9.7 0 2.1-.2 2.6-.4.9-11 4-27.6 5.6-34 1-3.8 1.8-7.2 2.7-10.2 7.5-2 15.6-3.8 24-4.7zM44.1 81.5c-1.3 0-2.6 1.2-2.6 2.5 0 1 .7 1.7 1.7 1.7 1.3 0 2.6-1.2 2.6-2.5 0-1-.8-1.7-1.7-1.7zm-9 1.2c-.7 3.6-3.1 14.9-3.1 14.9-.1.6-1 3.9 2.4 3.9h.6l4.5-21.7c-.1 0-3.7-.7-4.4 2.9zm5.3 7.5c-.8 3.5-1.5 7.4-1.5 7.4-.1.6-1 3.9 2.4 3.9h.5l2.9-14.1c-.1 0-3.5-.6-4.3 2.8zm-15.3-3.1c-2 0-3.8.7-5.1 1.8-2.1 1.7-3.3 4.5-3.3 7.5 0 3.3 2.3 5.1 5.5 5.1 2 0 3.8-.7 5.1-1.8 2.1-1.7 3.3-4.6 3.3-7.6-.1-3.3-2.4-5-5.5-5zm-.2 10.5c-.6.8-1.4 1.3-2.4 1.3-1.5 0-2.1-1.1-2.1-2.5 0-1.6.6-4 1.8-5.4.6-.8 1.5-1.3 2.4-1.3 1.5 0 2.1 1.1 2.1 2.5 0 1.6-.6 3.9-1.8 5.4zm73.2-15.9c-.6 2.6-3.3 15.9-3.3 15.9-.2.8-.9 3.9 2.4 3.9h.5l4.6-22.5c-.8-.2-3.6-.2-4.2 2.7zm13.3 5.4c-1.8 0-3.4.8-4.3 1.9 0 0-.1-2.7-3.8-1.7.7 1.9.3 2.6-.4 6.5l-.8 3.7c-.1.6-1 3.9 2.4 3.9h.5l1.3-6.5c.4-1.7 1.1-5.1 3.7-5.1 1.3 0 2 .8 1.6 2.8l-1 4.9c-.1.6-1 3.9 2.4 3.9h.5l1.8-8.9c1-3.7-1-5.4-3.9-5.4zm-98.2-5.2c-.2.8-.5 2.6-1.2 5.6l-6.3 1.3 1.8-9c-.6-.1-3.7-.4-4.3 2.9C3 83.7.1 97.6.1 97.6c-.1.7-1 3.9 2.4 3.9H3l2-8.8 6.3-1.3c-.6 3-1.3 6.2-1.3 6.2-.1.6-1 3.9 2.4 3.9h.5L17.6 79s-3.6-.7-4.4 2.9zm113.7 5.2c-1.8 0-3.4.8-4.3 1.9 0 0-.1-2.7-3.8-1.7.7 1.9.3 2.6-.4 6.5l-.8 3.7c-.1.6-1 3.9 2.4 3.9h.5l1.3-6.5c.4-1.7 1.1-5.1 3.7-5.1 1.3 0 2 .8 1.6 2.8l-1 4.9c-.1.6-1 3.9 2.4 3.9h.5l1.8-8.9c.9-3.7-1-5.4-3.9-5.4zm-72.4 8.4c-.2 1-.6 1.9-1.1 2.5-.5.6-1.1.9-2.1.9-1.3 0-2-.9-2-2.5 0-3.3 2.4-6.9 5.3-6.9.4 0 .9.1 1.1.2l-1.2 5.8zm2.6-12.8c-.3 1.7-1 4.7-.9 4.5-.3-.1-.9-.1-1.4-.1-5.4 0-9.3 4.4-9.3 9.4 0 3.1 1.9 5 4.7 5 1.7 0 3-.6 3.8-1.5.3 1 1.3 1.5 2.5 1.5h.5l4.5-21.7c-.3-.1-3.7-.6-4.4 2.9zm12.8 4.4c-5.2 0-9.3 4.2-9.3 9.4 0 3.1 1.7 4.9 4.6 4.9 1.7 0 3.1-.6 3.8-1.5.3 1.1 1.3 1.5 2.5 1.5h.5l2.7-13c-1.4-.8-3-1.3-4.8-1.3zm-.4 8.4c-.2 1-.5 1.9-1.1 2.5-.5.6-1.2.9-2.1.9-1.3 0-1.9-.9-1.9-2.5 0-2.9 2.1-6.9 5.4-6.9.3 0 .6.1.9.2l-1.2 5.8zm15.8-1.9c-.4 1.7-1 5-3.6 5-2.4 0-1.6-2.6-1.5-3.3l1.7-8s-3.6-.7-4.5 3.2c-.8 4-1 4.6-1 4.6-.2.8-.3 1.7-.3 2.4 0 1 .4 1.8.9 2.5-2.2.5-3.2 1.7-3.2 3.3 0 2.4 2.4 3.8 5.5 3.8 2.7 0 4.8-.9 6.2-2.4 1.1-1.3 1.8-3 2.3-5.4l2.6-12s-3.6-.6-4.4 3c-.8 3.7-.7 3.3-.7 3.3zm-1.7 7.6c-.3 1.1-.8 2.1-1.5 2.8-.7.7-1.7 1-2.7 1-1.3 0-2.4-.6-2.4-1.7 0-1.4 1.4-1.8 3.4-2 1.5-.2 2.7-.5 3.5-1.2l-.3 1.1zM133.1 88c0 .1-.1.2-.2.2h-.2v-.4h.1c.2 0 .3 0 .3.2m.3.6c-.1 0-.1 0 0 0h-.1l-.1-.3c.2 0 .2-.2.2-.3 0-.2-.2-.3-.4-.3h-.5v.1h.1v1h.2v-.4h.2l.2.3c0 .1.1.1.2.1h.1l-.1-.2zm.4-.4c0 .6-.4.9-.9.9s-.9-.3-.9-.9.4-.9.9-.9.9.3.9.9m.1 0c0-.6-.4-1.1-1.1-1.1-.6 0-1.1.4-1.1 1.1s.4 1.1 1.1 1.1c.7-.1 1.1-.5 1.1-1.1" class="st0"/>
  <path d="M80.5 30.8c0 .1-.1.2-.2.2h-.2v-.4h.1c.2 0 .3.1.3.2m.3.7c-.1 0-.1 0 0 0h-.1l-.1-.3c.2 0 .2-.2.2-.3 0-.2-.2-.3-.4-.3h-.5v.1h.1v1h.2v-.4h.2l.2.3c0 .1.1.1.2.1h.1l-.1-.2zm.3-.5c0 .6-.4.9-.9.9s-.9-.3-.9-.9.4-.9.9-.9c.6 0 .9.4.9.9m.2 0c0-.6-.4-1.1-1.1-1.1-.6 0-1.1.4-1.1 1.1s.4 1.1 1.1 1.1c.7 0 1.1-.4 1.1-1.1" class="st0"/>
</svg>
