<?xml version="1.0" encoding="utf-8"?>
<!-- Generator: Adobe Illustrator 26.0.1, SVG Export Plug-In . SVG Version: 6.00 Build 0)  -->
<svg version="1.1" id="Layer_1" xmlns="http://www.w3.org/2000/svg" xmlns:xlink="http://www.w3.org/1999/xlink" x="0px" y="0px"
	 viewBox="0 0 694.8 796.9" style="enable-background:new 0 0 694.8 796.9;" xml:space="preserve">
<g>
	<path d="M61.9,483.6c-2.4-5.6-4.8-11.2-7.2-16.7c-7.1-16.5-14.4-32.9-21.3-49.5c-1-2.3-1.1-5.6-0.4-8c6.3-20.5,11-41.3,8.9-62.9
		c-2.5-26.1-14-46.2-39.2-56.8c-1.2-0.5-2.6-2.2-2.6-3.4c-0.3-29.9,2.8-59.2,15.7-86.7c5-10.7,11.5-20.3,20.5-28
		c1.8-1.6,3.9-2.9,6.5-4.9c0,3.8,0.1,6.7,0,9.6c-0.6,16.7,0.1,33.3,5.1,49.5c9.3,30,29.8,41.4,60,33c8-2.2,15.5-5.9,23.3-8.8
		c3.8-1.4,5-3.6,5.1-7.8c0.5-31.7,2.5-63.2,10.6-94.1c4.1-15.7,9.2-31.1,19.1-44.1c4.9-6.5,11.6-11.8,17.7-17.3
		c1.7-1.6,4.4-2.1,7.5-3.4c-0.3,4.5-0.5,8.2-0.7,12c-2,34.2-1.7,68.3,6.5,101.8c5.5,22.3,16.6,40.9,34.9,55
		c16.6,12.8,32.3,14,49.9,2.7c8.7-5.7,16.5-12.9,24.5-19.7c1.5-1.3,2-4.1,2.3-6.3c3.2-24.3,6-48.6,9.4-72.8
		c6.6-47,12.7-94,23.9-140.2c0.9-3.9,2.3-7.6,3.5-11.4c0.4-1.1,1-2.1,2.1-4.2c1.4,3.7,2.9,6.4,3.5,9.3c4.7,22.1,10.3,44.1,13.7,66.4
		c7.7,50.7,14.4,101.5,21.4,152.3c0.5,3.8,1.6,6.9,4.8,9.3c8.1,6.1,15.6,13.1,24.1,18.5c15.3,9.6,30.6,8.5,45.3-2
		c21.3-15.2,33.1-36.3,38.6-61.5c7-31.9,7.2-64.1,5.4-96.5c-0.2-4-0.5-7.9-0.8-12.3c7.3,1.8,12.6,5.7,17.3,10.5
		c11.3,11.4,18,25.5,23,40.4c9.2,27.2,12.4,55.5,14,84c0.5,8.5,0.4,17,0.9,25.5c0.1,1.5,0.9,3.8,2.1,4.4c13.2,6.9,26.9,12.4,42.1,13
		c17.6,0.7,30.4-7.2,38.7-22.5c6.9-12.9,9.5-27,10.2-41.4c0.5-9.9,0.1-19.9,0.1-31.1c3.6,2.9,6.6,4.9,9.1,7.4
		c13.2,12.9,20.8,29.1,25.9,46.6c6.2,21.3,8.1,43.1,7.8,65.2c0,1.3-1.3,3.5-2.5,3.9c-29,9.9-47.6,35.5-46.9,72.6
		c0.3,16.3,3.8,32,8.6,47.5c0.6,1.8,0.4,3.8,0.5,5.8c0,0.6-0.5,1.2-0.7,1.8c-9.6,22.3-19.3,44.5-28.9,66.8c-0.3,0-0.5,0-0.8,0
		c0-1.8,0-3.7,0-5.5c0.3-17.2-0.3-34.2-3.8-51.2c-2.8-13.5-10.8-20.7-23.7-23.8c-18.3-4.4-36.9-4.4-55.6-4.6
		c-8.9-0.1-14.2,2.6-18,10.9c-4.1,9.1-9.7,17.4-14.7,26.1c-0.8,1.4-1.7,2.7-2.9,4.7c-3.7-14.2-10-26.3-17.6-37.9
		c-4.1-6.3-9.6-8.8-16.7-9.1c-14.2-0.6-27.9,2.7-41,7.4c-19.5,7.1-38.7,15.2-57.9,23c-1.9,0.8-3.7,2.8-4.7,4.7
		c-7.2,12.9-14.2,26-21.2,39c-0.8,1.4-1.6,2.9-2.7,4.8c-7.7-14.2-15.3-27.8-22.4-41.7c-2.1-4.1-5-6.6-9.2-8.4
		c-24.2-10.3-48.6-20.3-74.5-25.3c-7.9-1.5-16.2-1.6-24.3-1.6c-5.6,0-10.1,2.9-12.9,8.1c-6.4,12-12.8,24-19.2,35.9
		c-5.8-10.1-12.4-20.8-18-31.9c-3.2-6.2-6.9-9.2-14.1-8.7c-16.4,1.2-33,0.7-49.3,2.7c-23.9,2.9-31.6,11.1-34.3,35.2
		c-1.5,13.7-1.5,27.6-2.2,41.4c-0.1,1.7,0,3.5,0,5.2C62.5,483.5,62.2,483.5,61.9,483.6z M383,312.2c-0.2-1.1-0.4-3.6-1.1-6
		c-5.1-17.2-26.3-27.7-44-22c-17.5,5.7-26.7,20.3-23,37.2c4.1,18.2,16.8,29.7,31.9,39c1,0.6,3.3,0.1,4.3-0.7
		c6.8-5.6,14-10.8,20-17.2C378.6,334.6,382.6,324.7,383,312.2z"/>
	<path d="M372.8,714.8c0-2.9,0-5.9,0-8.8c0-22.7,0-45.3,0-68c0-17.8,9.8-27.1,27.5-26.3c2.8,0.1,5.6,0.6,8.5,0.9c1.4,4,0.7,6-4,6
		c-9.9,0-12.9,2.9-12.9,12.8c-0.2,41.2-0.1,82.3-0.3,123.5c0,1.9-1.1,3.8-1.7,5.7c-2-1.1-4.1-2.1-6.1-3.2c-0.4-0.2-0.7-0.7-1-1.1
		c-14-17.4-27.9-34.8-41.9-52.3c-9.9-12.4-19.8-24.7-29.7-37.1c-1-1.3-2.1-2.4-3.8-4.4c-0.1,2.5-0.3,4.1-0.3,5.7c0,22.3,0,44.7,0,67
		c0,1.7,0,3.3,0.2,5c1,10.4,2.8,12.1,13.3,12.7c2.2,0.1,4.9,0,4.1,3.2c-0.3,1.2-2.7,2.5-4.2,2.5c-14.8,0.2-29.7,0.1-44.5,0.1
		c-2.2,0-4.4,0.2-4.4-3.2c0.1-3.4,2.4-3,4.6-3c1,0,2,0,3,0c7.4-0.4,9.9-2.6,10.3-9.9c0.4-6.8,0.3-13.7,0.3-20.5
		c0-23.3-0.3-46.7,0.2-70c0.2-10.1-6.6-15.3-15-15.5c-0.7,0-1.5,0.2-2-0.1c-1.1-0.9-2.1-2-3.1-3c1-1,2-2.8,3.1-2.9
		c10.3-0.2,20.7-0.3,31,0c1.7,0.1,3.6,2,4.8,3.6c19.8,25.4,39.4,50.8,59.1,76.2c1.2,1.6,2.5,3.1,3.7,4.7
		C372.1,715,372.5,714.9,372.8,714.8z"/>
	<path d="M59.5,689c25.6,24.9,50.6,49.3,75.7,73.7c5.7,5.5,14.8,6.6,22.4,3c1.9-0.9,3.7-2.3,5.6-3.2c0.7-0.3,1.9-0.1,2.6,0.4
		c0.3,0.2,0.3,1.6,0,2.2c-3.2,5.5-7,10.5-13.7,11.3c-6.9,0.8-14.1,1.8-20.9,0.8c-5.3-0.8-10.6-3.8-15-7.1c-5.3-4-9.7-9.1-14.3-13.9
		c-16.9-17.3-33.7-34.7-50.5-52c-1.1-1.2-2.1-2.5-4-4.8c-0.3,2.7-0.5,3.9-0.5,5.1c0,11.7-0.1,23.3,0.1,35
		c0.1,9.8,2.9,12.5,12.8,13.5c1.5,0.1,3.8,1.6,4,2.8c0.6,3.4-2.3,2.9-4.4,2.9c-14.7,0-29.3,0-44,0c-2,0-4.6,0.8-4.7-2.8
		c0-3.4,2.5-2.9,4.6-3c9.5-0.5,12.3-3,12.3-12.5c0.2-30.5,0.2-61,0-91.5c-0.1-9.2-3.2-12-12.5-12.3c-2.3-0.1-4.9,0-4.2-3.2
		c0.3-1.2,2.6-2.8,4-2.8c15-0.2,30-0.2,45,0c1.4,0,2.7,1.9,4,2.9c-1.3,1-2.6,2.8-4,2.9c-10.1,0.8-12.8,3.2-12.9,13.1
		c-0.2,12.3,0,24.5,0,37.4c1.1-0.7,1.7-1,2.1-1.4c12.8-12.7,25.6-25.3,38.2-38.2c1.8-1.9,2.9-5.3,2.8-7.9c-0.1-1.1-4.3-1.8-6.5-3
		c-1.4-0.7-2.5-1.9-3.7-2.9c1.3-1,2.6-3,3.9-3c11.2-0.2,22.3-0.2,33.5,0c1.3,0,2.5,1.8,3.7,2.7c-1.1,1.1-2.2,3-3.3,3.1
		c-4.3,0.2-6.9,2.5-9.5,5.6c-3.1,3.7-6.6,7-10.1,10.4C85.8,664,73.5,675.7,59.5,689z"/>
	<path d="M529.2,624.9c1.5,0,2.8,0,4.1,0c0.3,0.5,0.6,1,0.7,1.4c1,12.1,2,24.2,2.8,36.4c0.1,1.3-1.4,2.7-2.2,4.1
		c-1.2-1.1-2.9-1.9-3.5-3.2c-2-4.2-3.2-8.8-5.4-12.8c-11.2-20.6-39.2-23.2-54.2-5c-9.2,11.2-12.3,24.6-13.1,38.6
		c-0.9,16.1,1.3,31.8,9.8,45.7c3.5,5.6,8.4,10.8,13.7,14.8c10.9,8.2,22.6,6.1,33.8-0.1c1.1-0.6,2.1-2.5,2.2-3.9
		c0.2-12.7,0.2-25.3,0-38c-0.2-8.6-3.3-11.4-11.8-12.1c-1.5-0.1-3.8-1.5-4.1-2.7c-0.8-3.2,1.9-3.2,4.2-3.2c12.5,0,25-0.1,37.5,0.1
		c1.4,0,2.8,1.5,4.1,2.4c-1.2,1.1-2.3,2.9-3.7,3.3c-5.6,1.4-8.1,4.2-8.1,10.2c0,24.2,0,48.3,0,72.5c0,24.2-21.1,27.8-35,20.2
		c-3.2-1.7-6-4.3-8.6-6.8c-0.9-0.8-0.7-2.7-1-4.1c1.4,0.2,3.1,0,4.1,0.7c6.6,4.6,13.3,5.2,18.4,0.7c1.9-1.7,3.7-4.6,3.9-7
		c0.5-6.9,0.2-13.9,0.2-20.9c-6.1,0.9-11.9,2.4-17.8,2.6c-30.3,1-52.3-15.2-59.8-44.6c-6.7-26-1.4-50,15.8-70.8
		c15.8-19,42.4-24,64.3-12.7C526.6,633.7,527.7,633.1,529.2,624.9z"/>
	<path d="M655.7,635.7c1.6-6.3,3.1-12,4.7-17.9c3.8-1.3,5.1,0.4,5,4.4c-0.1,14.5,0,29-0.2,43.5c0,1.5-1.2,4-2.5,4.4
		c-3.1,1.2-3.3-1.9-3.7-3.8c-2.9-13.6-10.9-22.7-24-26.9c-9.6-3.1-18.2,0.3-23.2,8.8c-4.9,8.1-4,17.3,2.8,24.3
		c3.3,3.4,7.1,6.6,11,9.4c9.9,7.1,20,13.7,29.9,20.8c9,6.5,14.9,15.2,16.8,26.2c2.6,15.4-1.3,28.9-13.2,39.3
		c-11.3,10-24.6,10.7-38.5,6.6c-4.8-1.4-9.4-3.5-14.1-4.9c-4.8-1.5-6-0.6-6.6,4.3c-0.4,3.6-0.8,7.3-1.2,11.1
		c-3.5,1.2-5.2,0.4-5.2-3.7c0.1-16.2,0.1-32.3,0-48.5c0-3.5,1.4-4.5,4.9-3.6c1.4,5.3,2.5,10.8,4.4,16c4.9,14,21,23.4,34.9,20.6
		c13.1-2.6,20.5-15.4,16.4-28.1c-2.1-6.4-6.2-11.3-11.6-15.2c-11-7.8-22.1-15.4-33-23.5c-8.2-6.1-14.2-14.2-16.1-24.5
		c-2.9-15.7,0.7-29.7,13.6-39.9c12.1-9.5,25.5-9.1,39.1-3.1C649,633,651.9,634.1,655.7,635.7z"/>
	<path d="M205.9,758.6c-7.8,0-15.7,0.1-23.5-0.1c-1.4,0-2.8-1.8-4.1-2.7c1.4-1,2.7-2.7,4.2-2.8c11.2-0.9,13.5-2.7,13.6-14
		c0.2-30.3,0.1-60.6-0.1-90.9c-0.1-8.4-3.6-11.3-12.2-11.5c-0.8,0-1.9,0.3-2.4-0.1c-1.1-0.8-2-2-3-3.1c1.1-1,2.1-2.7,3.2-2.7
		c16.7-0.2,33.3-0.2,50,0c1,0,2,1.9,3,2.9c-1,1-1.9,2.4-3.1,2.9c-1.3,0.5-3,0.1-4.5,0.2c-6,0.4-9.1,3.1-10,9.1c-0.4,3-0.7,6-0.7,8.9
		c-0.1,26.7,0,53.3,0,80c0,1,0,2,0,3c0.3,12.2,2.3,14.2,14.5,15.4c1.3,0.1,3.3,1.6,3.6,2.8c0.6,2.9-1.8,2.9-3.9,2.9
		C222.2,758.6,214,758.6,205.9,758.6z"/>
	<path d="M607,514.2c6.7,0,13.4-0.2,20.1,0.2c1.2,0.1,2.4,2.1,3.4,3.3c10.5,13.5,21,27.1,31.5,40.7c1,1.3,2.1,2.6,4,4.9
		c0.2-2.8,0.3-4.4,0.3-6.1c0-12.8,0-25.7,0-38.5c0.1-11.6,7-17.3,18.5-15.3c0.9,0.2,1.6,1.2,2.4,1.8c-0.7,0.6-1.3,1.4-2.1,1.6
		c-7.9,2.1-8.2,2.4-8.2,10.8c0,22,0,44,0,66c0,1.8,0,3.6,0,5.4c-0.4,0.3-0.8,0.5-1.2,0.8c-1.3-1.1-2.8-2.1-3.9-3.4
		c-13.2-16.3-26.3-32.7-39.4-49.1c-1.1-1.4-2.2-2.7-4.4-3.7c0,6.4,0,12.8,0,19.3c0,7.5-0.1,15,0.1,22.5c0.2,5.9,0.1,9.5,8.3,9.5
		c0.7,0,1.4,0.6,3.4,1.6c-2.3,0.8-3.5,1.6-4.7,1.6c-8,0.1-16,0.1-24,0c-1.2,0-2.4-1.1-3.5-1.7c1.3-0.7,2.5-1.9,3.8-1.9
		c4.4,0,6.5-1.9,6.5-6.3c0.1-17.8,0.3-35.6,0.2-53.5c0-4.4-3.2-6.7-7.5-7.3c-1.4-0.2-2.8-0.9-4.2-1.4
		C606.8,515.5,606.9,514.8,607,514.2z"/>
	<path d="M29.4,532.1c0,16.1,0,30.6,0,45.1c0,4.7,1.9,7.6,7.1,7.6c1.1,0,2.2,0.6,3.3,1c0,0.5,0,1,0,1.4c-1.3,0.3-2.5,0.9-3.8,1
		c-7.8,0.1-15.7,0.1-23.5,0c-1.3,0-2.5-1.3-3.7-2c1.2-0.6,2.4-1.6,3.6-1.6c4.6,0.1,6.7-2,6.7-6.6c0-17.7,0.3-35.3,0.1-53
		c0-4.4-3.1-6.7-7.4-7.5c-1.5-0.2-2.9-0.9-4.3-1.3c0.1-0.6,0.2-1.3,0.3-1.9c6.8,0,13.6-0.2,20.4,0.2c1.2,0.1,2.3,2.2,3.3,3.5
		c10.5,13.5,21,27.1,31.5,40.7c1,1.3,2.1,2.5,4.1,4.9c0-3.2,0-4.9,0-6.7c0-12.8,0.2-25.7,0-38.5c-0.2-12.2,7.8-16.3,18.9-14.9
		c0.7,0.1,1.4,1,2.1,1.6c-0.6,0.6-1.2,1.5-1.9,1.8c-8.2,2.5-8.3,2.5-8.4,11.1c0,21.8,0,43.7,0,65.5c0,1.9,0,3.8,0,5.8
		c-0.5,0.2-1.1,0.5-1.6,0.7c-5.9-5.3-10.2-12.1-15.3-18.2c-5.3-6.4-10.4-13-15.6-19.5C40.5,545.9,35.4,539.6,29.4,532.1z"/>
	<path d="M190.4,586.5c1.1-0.8,1.5-1.4,2-1.5c8.1-2.1,8.2-2.3,8.2-10.6c0-15.7,0-31.3,0-47c0-8-0.2-8.1-8-10.1
		c-0.7-0.2-1.2-0.9-1.8-1.5c5.1-3.5,19.4-2.2,21.4,1.6c3.9-0.7,7.8-1.8,11.8-2.1c10-0.9,17.9,4.8,20.2,14
		c2.2,8.9-2.2,17.4-11.1,21.6c-1.3,0.6-2.7,1.2-4.2,2c7.9,11.9,15.2,23.9,23.5,35.1c3.6,4.8,9.2,8.1,13.6,11.9
		c-5.5,2.1-17.2-1.5-22.7-8.2c-4.7-5.8-8.8-12.1-13-18.3c-3.4-4.9-6.9-9.8-9.9-15c-2-3.4-4.3-4.8-8.4-3.4c0,8.4-0.2,17,0.1,25.6
		c0.2,3.9,3.7,4.1,6.8,4.5c0.7,0.1,1.4,1,2.1,1.6c-0.7,0.6-1.3,1.7-2,1.7c-8.8,0.1-17.7,0-26.5-0.1C192,588,191.5,587.3,190.4,586.5
		z M211.5,550.3c5.3-1.2,9.7-1.6,13.5-3.3c7-3.1,9.3-11.4,5.8-18.8c-3-6.5-9.6-8.4-17-4.9c-1,0.5-2.2,1.8-2.3,2.7
		C211.4,533.6,211.5,541.3,211.5,550.3z"/>
	<path d="M542.8,554.9c0,8.2-0.1,16.3,0,24.5c0,3.8,2.5,5.1,5.9,5.4c1.1,0.1,2.1,1,3.2,1.6c-1.1,0.6-2.3,1.7-3.4,1.8
		c-7.7,0.2-15.3,0.1-23,0c-1.2,0-2.4-0.5-3.5-0.8c-0.1-0.4-0.1-0.9-0.2-1.3c1-0.4,2-1.3,3.1-1.3c5.4,0,6.8-3.4,6.8-7.9
		c0-8.2,0-16.3,0-24.5c0-8.3,0-16.7,0-25c0-8.1-0.3-8.3-8-10.2c-0.7-0.2-1.2-0.9-1.9-1.4c4.9-3.5,19.3-2.3,21.4,1.6
		c3.9-0.7,7.8-1.8,11.7-2.1c10-0.9,18,4.7,20.3,13.9c2.2,8.9-2.1,17.5-11.1,21.6c-1.3,0.6-2.7,1.2-4.3,2c8,12,15.4,24.1,23.8,35.5
		c3.5,4.7,9.1,7.8,13.4,11.5c-5.1,2.1-16.8-1.4-22.4-7.7c-3.6-4.1-6.6-8.7-9.7-13.3c-4.6-6.7-9.3-13.4-13.6-20.4
		C549.4,555,547.1,553.5,542.8,554.9z M542.5,550.2c5.2-1.2,9.6-1.5,13.4-3.2c7-3.1,9.4-11.3,5.9-18.7c-3-6.5-9.4-8.5-16.9-4.9
		c-1.1,0.5-2.3,2-2.4,3.1C542.4,533.9,542.5,541.3,542.5,550.2z"/>
	<path d="M136.2,512c10.7,0.6,18.3,4.7,24.1,11.6c12.5,14.9,12.9,36.4,1.1,51.8c-10,13.1-35,20.2-50.1,0.6
		c-12-15.5-12-38.1-0.1-51.8c0.4-0.5,0.8-1.1,1.4-1.5C120.1,517.4,128.6,514.1,136.2,512z M123.8,523.7c-1.9,2.2-3.7,3.6-4.5,5.4
		c-6.1,15.2-6.8,30.5,1.7,45.1c7.2,12.3,24.2,11.5,30.7-1.3c7.4-14.6,7.1-29.5,0-44.1c-3.6-7.5-12.9-11.5-20.2-9.1
		c-1.3,0.4-3.4,2.2-3.2,3c0.3,1.7,1.5,3.6,2.9,4.7c0.9,0.6,2.9-0.6,4.2-0.2c1.5,0.5,3.3,1.5,3.9,2.8c0.4,0.7-1,3-2.1,3.7
		c-3.7,2.4-8.3,1-10.6-3.1C125.6,528.7,125,526.7,123.8,523.7z"/>
	<path d="M493.7,514c0.4,5.1,0.8,9.4,0.9,13.7c0,1.2-1,2.4-1.5,3.6c-0.8-0.9-1.8-1.7-2.2-2.7c-2.8-8.1-3.9-9.1-12.5-9.1
		c-6.5-0.1-12.9,0-19.6,0c0,9.3,0,18,0,27c6.7,0,13.1,0.2,19.6-0.1c4.1-0.2,5.2-3.5,6-6.9c0.3-1.1,1.2-2,1.9-3
		c0.6,1.1,1.6,2.3,1.6,3.4c0.1,7.5,0.1,14.9,0.1,22.4c-0.5,0.2-1,0.5-1.6,0.7c-0.8-1.3-2.1-2.5-2.3-3.9c-0.6-4.7-3.3-6.8-7.7-6.9
		c-5.8-0.2-11.6,0-17.7,0c0,9.4-0.1,18.3,0.2,27.3c0,1.1,2.2,3.1,3.5,3.2c7,0.2,14,0.3,20.9-0.3c6-0.5,7.5-3.5,5.4-9.3
		c-0.5-1.4-1.1-2.7-1.8-4.4c4-1.6,6.6-1.2,8,3.3c1.6,5.2,3.6,10.2,5.6,15.8c-1.9,0.2-3.2,0.5-4.5,0.5c-18.3,0-36.6,0-54.9,0
		c-0.7,0-1.4,0.2-2-0.1c-0.9-0.4-1.7-1.1-2.5-1.7c0.7-0.5,1.3-1.4,2.1-1.6c8-2.1,8-2.1,8-10.3c0-7.3,0-14.6,0-21.3
		c-2.2-3-7.7,1.2-7.3-4.1c0.1-1.3,4.2-2.3,7.2-3.8c0-7,0.2-15.1-0.1-23.2c-0.2-4.1-3.6-4.5-7-4.8c-1-0.1-1.9-1.1-2.9-1.7
		c0.9-0.5,1.8-1.5,2.7-1.5C457.4,514,475.3,514,493.7,514z"/>
	<path d="M374.5,515.3c-8.3,2.6-8.7,3-8.9,12c-0.1,6.2,0,12.3,0,18.5c0,0.7,0.1,1.3,0.3,2.3c9.6,0,19.1,0,29,0
		c0-8.8,0.6-17.7-0.4-26.3c-0.3-2.5-4.8-4.6-7-6.6c7.7,0,16.4,0,25.1,0c-2.7,1.6-6.1,2.6-7.4,4.8c-1.4,2.5-1.1,6.1-1.2,9.2
		c-0.1,6.1,0,12.3,0,18c2,2.9,8-1.4,7.8,5c-2.7,0.2-5,0.3-7.7,0.5c0,9.1-0.6,18.1,0.3,27c0.3,2.7,4.7,5,6.9,7.1
		c-7.4,0-16.2,0-25.1,0c0.2-0.5,0.2-1,0.4-1c7.8-1.7,8.3-2.1,8.5-10.1c0.2-7.6,0-15.2,0-23.1c-10,0-19.4,0-29.2,0
		c0,9.3-0.5,18.6,0.4,27.8c0.2,2.4,5,4.4,7.4,6.4c-7.9,0-16.7,0-25.6,0c0-0.3,0-0.9,0.1-0.9c8.5-2.3,8.6-2.4,8.6-11.5
		c0-7.1,0-14.3,0-22c-2.3,0-4.3,0.2-6.2-0.1c-0.9-0.2-1.7-1.4-2.5-2.1c0.8-0.6,1.5-1.6,2.3-1.7c1.9-0.3,3.9-0.1,6.2-0.1
		c0-8.9,0.2-17.4-0.1-25.8c-0.2-5.2-4.5-5.9-8.5-7.3C357,515.3,365.7,515.3,374.5,515.3z"/>
	<path d="M310.1,608.5c-10.4,0-19.4,0-28.4-0.1c-0.8,0-1.6-1.1-2.4-1.7c0.8-0.6,1.6-1.9,2.4-1.8c5,0.1,6.8-2.7,6.8-7.2
		c0-25.3,0-50.6,0-76c0-0.5-0.3-0.9-0.6-2c-3.1,0-6.4-0.1-9.7,0c-6.6,0.3-9.5,2.8-11.3,9.2c-0.3,1-1.3,1.8-1.9,2.7
		c-0.6-1-1.6-2-1.6-3c-0.2-5.3-0.1-10.5-0.1-15.5c20.9,1.7,41.2,0.8,62.5,0.7c0,4.5,0,10.4-0.1,16.2c0,0.5-0.9,1.4-1.5,1.4
		c-0.6,0-1.8-0.6-1.9-1.1c-2.5-13.4-12.7-10.4-22-10.7c-0.1,2-0.3,3.6-0.3,5.2c0,23.5,0,47,0,70.5c0,5.1,0.4,9.5,7.1,9.6
		C307.9,605,308.7,606.7,310.1,608.5z"/>
</g>
</svg>
