<?xml version="1.0" encoding="utf-8"?>
<!-- Generator: Adobe Illustrator 26.0.1, SVG Export Plug-In . SVG Version: 6.00 Build 0)  -->
<svg version="1.1" id="Layer_1" xmlns="http://www.w3.org/2000/svg" xmlns:xlink="http://www.w3.org/1999/xlink" x="0px" y="0px"
	 viewBox="0 0 415.8 130.2" style="enable-background:new 0 0 415.8 130.2;" xml:space="preserve">
<g>
	<path d="M16.6,130.1c-0.6-1.5-1.3-3-1.9-4.5c-1.9-4.4-3.9-8.9-5.7-13.3c-0.3-0.6-0.3-1.5-0.1-2.1c1.7-5.5,2.9-11.1,2.4-16.9
		c-0.7-7-3.8-12.4-10.5-15.3C0.4,77.8,0,77.3,0,77c-0.1-8,0.7-15.9,4.2-23.3c1.3-2.9,3.1-5.4,5.5-7.5c0.5-0.4,1-0.8,1.8-1.3
		c0,1,0,1.8,0,2.6c-0.2,4.5,0,9,1.4,13.3c2.5,8.1,8,11.1,16.1,8.9c2.1-0.6,4.2-1.6,6.3-2.4c1-0.4,1.3-1,1.4-2.1
		c0.1-8.5,0.7-17,2.8-25.3c1.1-4.2,2.5-8.4,5.1-11.9c1.3-1.7,3.1-3.2,4.8-4.6c0.5-0.4,1.2-0.6,2-0.9c-0.1,1.2-0.1,2.2-0.2,3.2
		C50.7,34.8,50.7,44,53,53c1.5,6,4.5,11,9.4,14.8c4.5,3.4,8.7,3.8,13.4,0.7c2.4-1.5,4.4-3.5,6.6-5.3c0.4-0.3,0.5-1.1,0.6-1.7
		c0.9-6.5,1.6-13.1,2.5-19.6c1.8-12.6,3.4-25.3,6.4-37.7c0.3-1,0.6-2.1,1-3.1C93,0.9,93.2,0.6,93.5,0c0.4,1,0.8,1.7,0.9,2.5
		c1.3,5.9,2.8,11.9,3.7,17.9c2.1,13.6,3.9,27.3,5.7,41c0.1,1,0.4,1.9,1.3,2.5c2.2,1.6,4.2,3.5,6.5,5c4.1,2.6,8.2,2.3,12.2-0.5
		c5.7-4.1,8.9-9.8,10.4-16.5c1.9-8.6,1.9-17.2,1.5-25.9c-0.1-1.1-0.1-2.1-0.2-3.3c2,0.5,3.4,1.5,4.7,2.8c3,3.1,4.8,6.9,6.2,10.9
		c2.5,7.3,3.3,14.9,3.8,22.6c0.1,2.3,0.1,4.6,0.2,6.9c0,0.4,0.3,1,0.6,1.2c3.6,1.9,7.2,3.3,11.3,3.5c4.7,0.2,8.2-1.9,10.4-6.1
		c1.9-3.5,2.5-7.3,2.7-11.1c0.1-2.7,0-5.3,0-8.4c1,0.8,1.8,1.3,2.4,2c3.6,3.5,5.6,7.8,7,12.5c1.7,5.7,2.2,11.6,2.1,17.5
		c0,0.4-0.4,0.9-0.7,1c-7.8,2.6-12.8,9.5-12.6,19.5c0.1,4.4,1,8.6,2.3,12.8c0.1,0.5,0.1,1,0.1,1.5c0,0.2-0.1,0.3-0.2,0.5
		c-2.6,6-5.2,12-7.8,18c-0.1,0-0.1,0-0.2,0c0-0.5,0-1,0-1.5c0.1-4.6-0.1-9.2-1-13.8c-0.8-3.6-2.9-5.6-6.4-6.4
		c-4.9-1.2-9.9-1.2-15-1.2c-2.4,0-3.8,0.7-4.8,2.9c-1.1,2.4-2.6,4.7-3.9,7c-0.2,0.4-0.5,0.7-0.8,1.3c-1-3.8-2.7-7.1-4.7-10.2
		c-1.1-1.7-2.6-2.4-4.5-2.5c-3.8-0.2-7.5,0.7-11,2c-5.3,1.9-10.4,4.1-15.6,6.2c-0.5,0.2-1,0.8-1.3,1.3c-1.9,3.5-3.8,7-5.7,10.5
		c-0.2,0.4-0.4,0.8-0.7,1.3c-2.1-3.8-4.1-7.5-6-11.2c-0.6-1.1-1.4-1.8-2.5-2.3c-6.5-2.8-13.1-5.5-20-6.8c-2.1-0.4-4.4-0.4-6.5-0.4
		c-1.5,0-2.7,0.8-3.5,2.2c-1.7,3.2-3.5,6.4-5.2,9.7c-1.6-2.7-3.3-5.6-4.8-8.6c-0.8-1.7-1.8-2.5-3.8-2.3c-4.4,0.3-8.9,0.2-13.3,0.7
		c-6.4,0.8-8.5,3-9.2,9.5c-0.4,3.7-0.4,7.4-0.6,11.1c0,0.5,0,0.9,0,1.4C16.8,130,16.7,130,16.6,130.1z M103,84
		c-0.1-0.3-0.1-1-0.3-1.6c-1.4-4.6-7.1-7.5-11.8-5.9c-4.7,1.5-7.2,5.5-6.2,10c1.1,4.9,4.5,8,8.6,10.5c0.3,0.2,0.9,0,1.2-0.2
		c1.8-1.5,3.8-2.9,5.4-4.6C101.8,90,102.9,87.3,103,84z"/>
	<path d="M316.4,103.5c0-0.9,0-1.9,0-2.8c0-7.2,0-14.3,0-21.5c0-5.6,3.1-8.6,8.7-8.3c0.9,0,1.8,0.2,2.7,0.3c0.4,1.3,0.2,1.9-1.3,1.9
		c-3.1,0-4.1,0.9-4.1,4c-0.1,13,0,26-0.1,39c0,0.6-0.3,1.2-0.5,1.8c-0.6-0.3-1.3-0.7-1.9-1c-0.1-0.1-0.2-0.2-0.3-0.4
		c-4.4-5.5-8.8-11-13.2-16.5c-3.1-3.9-6.2-7.8-9.4-11.7c-0.3-0.4-0.7-0.8-1.2-1.4c0,0.8-0.1,1.3-0.1,1.8c0,7.1,0,14.1,0,21.2
		c0,0.5,0,1.1,0.1,1.6c0.3,3.3,0.9,3.8,4.2,4c0.7,0,1.6,0,1.3,1c-0.1,0.4-0.9,0.8-1.3,0.8c-4.7,0.1-9.4,0-14.1,0c-0.7,0-1.4,0-1.4-1
		c0-1.1,0.8-0.9,1.4-0.9c0.3,0,0.6,0,0.9,0c2.3-0.1,3.1-0.8,3.3-3.1c0.1-2.2,0.1-4.3,0.1-6.5c0-7.4-0.1-14.7,0-22.1
		c0.1-3.2-2.1-4.8-4.7-4.9c-0.2,0-0.5,0.1-0.6,0c-0.4-0.3-0.7-0.6-1-0.9c0.3-0.3,0.6-0.9,1-0.9c3.3-0.1,6.5-0.1,9.8,0
		c0.5,0,1.1,0.6,1.5,1.1c6.2,8,12.5,16,18.7,24.1c0.4,0.5,0.8,1,1.2,1.5C316.2,103.5,316.3,103.5,316.4,103.5z"/>
	<path d="M217.4,95.3c8.1,7.9,16,15.6,23.9,23.3c1.8,1.7,4.7,2.1,7.1,1c0.6-0.3,1.2-0.7,1.8-1c0.2-0.1,0.6,0,0.8,0.1
		c0.1,0.1,0.1,0.5,0,0.7c-1,1.7-2.2,3.3-4.3,3.6c-2.2,0.2-4.5,0.6-6.6,0.2c-1.7-0.2-3.3-1.2-4.7-2.2c-1.7-1.2-3.1-2.9-4.5-4.4
		c-5.3-5.5-10.6-11-15.9-16.4c-0.4-0.4-0.7-0.8-1.3-1.5c-0.1,0.9-0.2,1.2-0.2,1.6c0,3.7,0,7.4,0,11.1c0,3.1,0.9,3.9,4,4.2
		c0.5,0,1.2,0.5,1.3,0.9c0.2,1.1-0.7,0.9-1.4,0.9c-4.6,0-9.3,0-13.9,0c-0.6,0-1.5,0.2-1.5-0.9c0-1.1,0.8-0.9,1.4-1
		c3-0.2,3.9-0.9,3.9-4c0.1-9.6,0.1-19.3,0-28.9c0-2.9-1-3.8-4-3.9c-0.7,0-1.5,0-1.3-1c0.1-0.4,0.8-0.9,1.3-0.9
		c4.7-0.1,9.5-0.1,14.2,0c0.4,0,0.8,0.6,1.3,0.9c-0.4,0.3-0.8,0.9-1.3,0.9c-3.2,0.2-4,1-4.1,4.1c-0.1,3.9,0,7.7,0,11.8
		c0.3-0.2,0.5-0.3,0.7-0.4c4-4,8.1-8,12.1-12.1c0.6-0.6,0.9-1.7,0.9-2.5c0-0.3-1.4-0.6-2.1-0.9c-0.4-0.2-0.8-0.6-1.2-0.9
		c0.4-0.3,0.8-0.9,1.2-0.9c3.5-0.1,7.1-0.1,10.6,0c0.4,0,0.8,0.6,1.2,0.9c-0.4,0.3-0.7,1-1.1,1c-1.4,0.1-2.2,0.8-3,1.8
		c-1,1.2-2.1,2.2-3.2,3.3C225.7,87.4,221.8,91.1,217.4,95.3z"/>
	<path d="M365.8,75.1c0.5,0,0.9,0,1.3,0c0.1,0.2,0.2,0.3,0.2,0.4c0.3,3.8,0.6,7.7,0.9,11.5c0,0.4-0.5,0.9-0.7,1.3
		c-0.4-0.3-0.9-0.6-1.1-1c-0.6-1.3-1-2.8-1.7-4.1c-3.5-6.5-12.4-7.3-17.1-1.6c-2.9,3.5-3.9,7.8-4.1,12.2c-0.3,5.1,0.4,10,3.1,14.4
		c1.1,1.8,2.7,3.4,4.3,4.7c3.5,2.6,7.1,1.9,10.7,0c0.4-0.2,0.7-0.8,0.7-1.2c0-4,0.1-8,0-12c0-2.7-1-3.6-3.7-3.8
		c-0.5,0-1.2-0.5-1.3-0.8c-0.2-1,0.6-1,1.3-1c3.9,0,7.9,0,11.8,0c0.4,0,0.9,0.5,1.3,0.7c-0.4,0.4-0.7,0.9-1.2,1
		c-1.8,0.4-2.6,1.3-2.6,3.2c0,7.6,0,15.3,0,22.9c0,7.6-6.6,8.8-11.1,6.4c-1-0.5-1.9-1.3-2.7-2.1c-0.3-0.3-0.2-0.9-0.3-1.3
		c0.4,0.1,1,0,1.3,0.2c2.1,1.4,4.2,1.6,5.8,0.2c0.6-0.5,1.2-1.4,1.2-2.2c0.2-2.2,0.1-4.4,0.1-6.6c-1.9,0.3-3.8,0.8-5.6,0.8
		c-9.6,0.3-16.5-4.8-18.9-14.1c-2.1-8.2-0.4-15.8,5-22.4c5-6,13.4-7.6,20.3-4C365,77.9,365.3,77.7,365.8,75.1z"/>
	<path d="M405.8,78.5c0.5-2,1-3.8,1.5-5.7c1.2-0.4,1.6,0.1,1.6,1.4c0,4.6,0,9.2,0,13.7c0,0.5-0.4,1.3-0.8,1.4c-1,0.4-1-0.6-1.2-1.2
		c-0.9-4.3-3.4-7.2-7.6-8.5c-3-1-5.7,0.1-7.3,2.8c-1.5,2.6-1.3,5.5,0.9,7.7c1.1,1.1,2.2,2.1,3.5,3c3.1,2.2,6.3,4.3,9.5,6.6
		c2.9,2,4.7,4.8,5.3,8.3c0.8,4.9-0.4,9.1-4.2,12.4c-3.6,3.1-7.8,3.4-12.2,2.1c-1.5-0.5-3-1.1-4.5-1.6c-1.5-0.5-1.9-0.2-2.1,1.4
		c-0.1,1.1-0.2,2.3-0.4,3.5c-1.1,0.4-1.6,0.1-1.6-1.2c0-5.1,0-10.2,0-15.3c0-1.1,0.4-1.4,1.5-1.2c0.4,1.7,0.8,3.4,1.4,5.1
		c1.5,4.4,6.6,7.4,11,6.5c4.1-0.8,6.5-4.9,5.2-8.9c-0.7-2-1.9-3.6-3.7-4.8c-3.5-2.5-7-4.9-10.4-7.4c-2.6-1.9-4.5-4.5-5.1-7.7
		c-0.9-5,0.2-9.4,4.3-12.6c3.8-3,8.1-2.9,12.4-1C403.6,77.6,404.6,78,405.8,78.5z"/>
	<path d="M263.7,117.3c-2.5,0-4.9,0-7.4,0c-0.4,0-0.9-0.6-1.3-0.9c0.4-0.3,0.9-0.9,1.3-0.9c3.5-0.3,4.3-0.9,4.3-4.4
		c0.1-9.6,0-19.2,0-28.7c0-2.7-1.1-3.6-3.9-3.6c-0.3,0-0.6,0.1-0.8,0c-0.4-0.3-0.6-0.6-0.9-1c0.3-0.3,0.7-0.9,1-0.9
		c5.3-0.1,10.5-0.1,15.8,0c0.3,0,0.6,0.6,0.9,0.9c-0.3,0.3-0.6,0.8-1,0.9c-0.4,0.2-0.9,0-1.4,0.1c-1.9,0.1-2.9,1-3.1,2.9
		c-0.1,0.9-0.2,1.9-0.2,2.8c0,8.4,0,16.8,0,25.3c0,0.3,0,0.6,0,0.9c0.1,3.9,0.7,4.5,4.6,4.9c0.4,0,1.1,0.5,1.1,0.9
		c0.2,0.9-0.6,0.9-1.2,0.9C268.8,117.3,266.2,117.3,263.7,117.3z"/>
	<path d="M390.4,40.1c2.1,0,4.2-0.1,6.3,0c0.4,0,0.8,0.6,1.1,1.1c3.3,4.3,6.6,8.6,10,12.8c0.3,0.4,0.7,0.8,1.3,1.6
		c0-0.9,0.1-1.4,0.1-1.9c0-4.1,0-8.1,0-12.2c0-3.7,2.2-5.5,5.9-4.8c0.3,0,0.5,0.4,0.8,0.6c-0.2,0.2-0.4,0.4-0.7,0.5
		c-2.5,0.7-2.6,0.8-2.6,3.4c0,6.9,0,13.9,0,20.8c0,0.6,0,1.1,0,1.7c-0.1,0.1-0.2,0.2-0.4,0.3c-0.4-0.4-0.9-0.7-1.2-1.1
		c-4.2-5.2-8.3-10.3-12.4-15.5c-0.3-0.4-0.7-0.9-1.4-1.2c0,2,0,4.1,0,6.1c0,2.4,0,4.7,0,7.1c0.1,1.9,0,3,2.6,3
		c0.2,0,0.4,0.2,1.1,0.5c-0.7,0.3-1.1,0.5-1.5,0.5c-2.5,0-5.1,0-7.6,0c-0.4,0-0.7-0.3-1.1-0.5c0.4-0.2,0.8-0.6,1.2-0.6
		c1.4,0,2.1-0.6,2.1-2c0-5.6,0.1-11.3,0.1-16.9c0-1.4-1-2.1-2.4-2.3c-0.5-0.1-0.9-0.3-1.3-0.4C390.3,40.5,390.4,40.3,390.4,40.1z"/>
	<path d="M207.9,45.8c0,5.1,0,9.7,0,14.2c0,1.5,0.6,2.4,2.2,2.4c0.4,0,0.7,0.2,1.1,0.3c0,0.2,0,0.3,0,0.5c-0.4,0.1-0.8,0.3-1.2,0.3
		c-2.5,0-4.9,0-7.4,0c-0.4,0-0.8-0.4-1.2-0.6c0.4-0.2,0.8-0.5,1.1-0.5c1.5,0,2.1-0.6,2.1-2.1c0-5.6,0.1-11.2,0-16.7
		c0-1.4-1-2.1-2.3-2.4c-0.5-0.1-0.9-0.3-1.4-0.4c0-0.2,0.1-0.4,0.1-0.6c2.2,0,4.3-0.1,6.5,0.1c0.4,0,0.7,0.7,1.1,1.1
		c3.3,4.3,6.6,8.6,10,12.9c0.3,0.4,0.7,0.8,1.3,1.6c0-1,0-1.6,0-2.1c0-4.1,0.1-8.1,0-12.2c-0.1-3.9,2.5-5.1,6-4.7
		c0.2,0,0.4,0.3,0.7,0.5c-0.2,0.2-0.4,0.5-0.6,0.6c-2.6,0.8-2.6,0.8-2.6,3.5c0,6.9,0,13.8,0,20.7c0,0.6,0,1.2,0,1.8
		c-0.2,0.1-0.3,0.2-0.5,0.2c-1.9-1.7-3.2-3.8-4.8-5.7c-1.7-2-3.3-4.1-4.9-6.2C211.4,50.1,209.8,48.1,207.9,45.8z"/>
	<path d="M258.8,62.9c0.3-0.3,0.5-0.4,0.6-0.5c2.5-0.7,2.6-0.7,2.6-3.4c0-4.9,0-9.9,0-14.8c0-2.5-0.1-2.6-2.5-3.2
		c-0.2-0.1-0.4-0.3-0.6-0.5c1.6-1.1,6.1-0.7,6.8,0.5c1.2-0.2,2.5-0.6,3.7-0.7c3.1-0.3,5.7,1.5,6.4,4.4c0.7,2.8-0.7,5.5-3.5,6.8
		c-0.4,0.2-0.8,0.4-1.3,0.6c2.5,3.8,4.8,7.5,7.4,11.1c1.1,1.5,2.9,2.6,4.3,3.7c-1.7,0.7-5.4-0.5-7.2-2.6c-1.5-1.8-2.8-3.8-4.1-5.8
		c-1.1-1.6-2.2-3.1-3.1-4.7c-0.6-1.1-1.4-1.5-2.7-1.1c0,2.7-0.1,5.4,0,8.1c0,1.2,1.2,1.3,2.1,1.4c0.2,0,0.4,0.3,0.7,0.5
		c-0.2,0.2-0.4,0.5-0.6,0.5c-2.8,0-5.6,0-8.4,0C259.3,63.4,259.1,63.2,258.8,62.9z M265.4,51.5c1.7-0.4,3.1-0.5,4.3-1
		c2.2-1,2.9-3.6,1.8-5.9c-1-2-3-2.7-5.4-1.5c-0.3,0.1-0.7,0.6-0.7,0.9C265.4,46.3,265.4,48.7,265.4,51.5z"/>
	<path d="M370.1,53c0,2.6,0,5.2,0,7.7c0,1.2,0.8,1.6,1.9,1.7c0.3,0,0.7,0.3,1,0.5c-0.4,0.2-0.7,0.5-1.1,0.6c-2.4,0-4.8,0-7.3,0
		c-0.4,0-0.7-0.2-1.1-0.2c0-0.1,0-0.3-0.1-0.4c0.3-0.1,0.6-0.4,1-0.4c1.7,0,2.1-1.1,2.1-2.5c0-2.6,0-5.2,0-7.7c0-2.6,0-5.3,0-7.9
		c0-2.5-0.1-2.6-2.5-3.2c-0.2-0.1-0.4-0.3-0.6-0.5c1.5-1.1,6.1-0.7,6.8,0.5c1.2-0.2,2.5-0.6,3.7-0.7c3.2-0.3,5.7,1.5,6.4,4.4
		c0.7,2.8-0.7,5.5-3.5,6.8c-0.4,0.2-0.8,0.4-1.4,0.6c2.5,3.8,4.9,7.6,7.5,11.2c1.1,1.5,2.9,2.5,4.2,3.6c-1.6,0.7-5.3-0.4-7.1-2.4
		c-1.1-1.3-2.1-2.8-3.1-4.2c-1.5-2.1-2.9-4.2-4.3-6.4C372.2,53,371.5,52.5,370.1,53z M370,51.5c1.6-0.4,3-0.5,4.2-1
		c2.2-1,3-3.6,1.9-5.9c-0.9-2.1-3-2.7-5.3-1.6c-0.3,0.2-0.7,0.6-0.7,1C370,46.3,370,48.7,370,51.5z"/>
	<path d="M241.6,39.4c3.4,0.2,5.8,1.5,7.6,3.7c3.9,4.7,4.1,11.5,0.3,16.4c-3.2,4.1-11.1,6.4-15.8,0.2c-3.8-4.9-3.8-12,0-16.4
		c0.1-0.2,0.3-0.3,0.4-0.5C236.6,41.1,239.3,40.1,241.6,39.4z M237.7,43.1c-0.6,0.7-1.2,1.1-1.4,1.7c-1.9,4.8-2.2,9.6,0.6,14.2
		c2.3,3.9,7.7,3.6,9.7-0.4c2.3-4.6,2.2-9.3,0-13.9c-1.1-2.4-4.1-3.6-6.4-2.9c-0.4,0.1-1.1,0.7-1,1c0.1,0.5,0.5,1.1,0.9,1.5
		c0.3,0.2,0.9-0.2,1.3-0.1c0.5,0.1,1,0.5,1.2,0.9c0.1,0.2-0.3,0.9-0.7,1.2c-1.2,0.8-2.6,0.3-3.4-1C238.3,44.7,238.1,44,237.7,43.1z"
		/>
	<path d="M354.6,40.1c0.1,1.6,0.2,3,0.3,4.3c0,0.4-0.3,0.8-0.5,1.1c-0.2-0.3-0.6-0.5-0.7-0.9c-0.9-2.6-1.2-2.9-3.9-2.9
		c-2,0-4.1,0-6.2,0c0,2.9,0,5.7,0,8.5c2.1,0,4.2,0.1,6.2,0c1.3-0.1,1.6-1.1,1.9-2.2c0.1-0.3,0.4-0.6,0.6-0.9
		c0.2,0.4,0.5,0.7,0.5,1.1c0,2.4,0,4.7,0,7.1c-0.2,0.1-0.3,0.2-0.5,0.2c-0.3-0.4-0.7-0.8-0.7-1.2c-0.2-1.5-1.1-2.1-2.4-2.2
		c-1.8-0.1-3.7,0-5.6,0c0,3,0,5.8,0.1,8.6c0,0.4,0.7,1,1.1,1c2.2,0.1,4.4,0.1,6.6-0.1c1.9-0.2,2.4-1.1,1.7-2.9
		c-0.2-0.4-0.3-0.9-0.6-1.4c1.3-0.5,2.1-0.4,2.5,1.1c0.5,1.6,1.1,3.2,1.8,5c-0.6,0.1-1,0.2-1.4,0.2c-5.8,0-11.6,0-17.4,0
		c-0.2,0-0.5,0.1-0.6,0c-0.3-0.1-0.5-0.4-0.8-0.5c0.2-0.2,0.4-0.4,0.7-0.5c2.5-0.7,2.5-0.7,2.5-3.2c0-2.3,0-4.6,0-6.7
		c-0.7-1-2.4,0.4-2.3-1.3c0-0.4,1.3-0.7,2.3-1.2c0-2.2,0.1-4.8,0-7.3c-0.1-1.3-1.1-1.4-2.2-1.5c-0.3,0-0.6-0.4-0.9-0.5
		c0.3-0.2,0.6-0.5,0.8-0.5C343.1,40,348.8,40.1,354.6,40.1z"/>
	<path d="M316.9,40.5c-2.6,0.8-2.7,1-2.8,3.8c0,1.9,0,3.9,0,5.8c0,0.2,0,0.4,0.1,0.7c3,0,6,0,9.2,0c0-2.8,0.2-5.6-0.1-8.3
		c-0.1-0.8-1.5-1.4-2.2-2.1c2.4,0,5.2,0,7.9,0c-0.8,0.5-1.9,0.8-2.3,1.5c-0.5,0.8-0.3,1.9-0.4,2.9c0,1.9,0,3.9,0,5.7
		c0.6,0.9,2.5-0.4,2.5,1.6c-0.9,0.1-1.6,0.1-2.4,0.2c0,2.9-0.2,5.7,0.1,8.5c0.1,0.9,1.5,1.6,2.2,2.3c-2.3,0-5.1,0-7.9,0
		c0-0.1,0.1-0.3,0.1-0.3c2.5-0.5,2.6-0.7,2.7-3.2c0.1-2.4,0-4.8,0-7.3c-3.1,0-6.1,0-9.2,0c0,2.9-0.2,5.9,0.1,8.8
		c0.1,0.8,1.6,1.4,2.3,2c-2.5,0-5.3,0-8.1,0c0-0.1,0-0.3,0-0.3c2.7-0.7,2.7-0.8,2.7-3.6c0-2.3,0-4.5,0-7c-0.7,0-1.4,0.1-2,0
		c-0.3-0.1-0.5-0.4-0.8-0.7c0.2-0.2,0.5-0.5,0.7-0.6c0.6-0.1,1.2,0,2,0c0-2.8,0.1-5.5,0-8.2c0-1.6-1.4-1.9-2.7-2.3
		C311.4,40.5,314.2,40.5,316.9,40.5z"/>
	<path d="M296.6,69.9c-3.3,0-6.1,0-9,0c-0.3,0-0.5-0.4-0.8-0.5c0.2-0.2,0.5-0.6,0.7-0.6c1.6,0,2.2-0.9,2.2-2.3c0-8,0-16,0-24
		c0-0.1-0.1-0.3-0.2-0.6c-1,0-2,0-3.1,0c-2.1,0.1-3,0.9-3.6,2.9c-0.1,0.3-0.4,0.6-0.6,0.9c-0.2-0.3-0.5-0.6-0.5-1
		c-0.1-1.7,0-3.3,0-4.9c6.6,0.5,13,0.3,19.7,0.2c0,1.4,0,3.3,0,5.1c0,0.2-0.3,0.4-0.5,0.5c-0.2,0-0.6-0.2-0.6-0.3
		c-0.8-4.2-4-3.3-7-3.4c0,0.6-0.1,1.1-0.1,1.6c0,7.4,0,14.8,0,22.3c0,1.6,0.1,3,2.3,3C295.9,68.8,296.1,69.3,296.6,69.9z"/>
</g>
</svg>
