<svg enable-background="new 0 0 2111.8 2111.8" viewBox="0 0 2111.8 2111.8" xmlns="http://www.w3.org/2000/svg"><path d="m1144.1 1872.3c0-1.4 3.5-4 5-3.8 20.1 3.3 40.1 7.5 60.2 10.4 30.4 4.4 59 .6 85.7-11 28.6-5.2 54.6-17.8 77.4-38.3 15.2-13.6 29.4-28.2 44.3-42.1 1.1-1 5.5-.7 6.2.4 4.8 6.8 10.3 13.6 13.3 21.3 10.4 25.8 27.5 47.2 44 69.2 20.3 27.1 39.4 55.1 59.1 82.6 1.2 1.6 2.8 2.9 4.2 4.4l2.4-1.2c-1.2-3.9-2-8.1-3.8-11.8-12.5-26.6-25-53.1-37.8-79.6-7.7-16-15.8-31.7-23.6-47.7-9.3-19-18.5-38.1-27.7-57.2-1.6-3.4-.8-5.7 3.4-6.5 2.7-.5 5.6-.8 8.2-1.6 4.2-1.3 5.4.7 7.3 4 11.3 19.3 21.5 39.6 35.1 57.3 17.2 22.3 37.6 42.1 56.1 63.4 13.3 15.4 25.5 31.6 38.3 47.3 1.5 1.8 3.3 3.3 5 5 .6-.3 1.2-.7 1.8-1-1.3-3.2-2.2-6.6-3.9-9.6-15-26.4-29.9-52.9-45.4-79.1-18.1-30.6-36.7-60.9-55-91.4-4-6.7-3.2-8.3 4-10.5 27.9-8.4 52.9-22.5 75-40.9 10.6-8.8 17.8-21.5 26.7-32.4 1.7-2.1 4.3-3.6 6.4-5.3.5 2.6 1.2 5.1 1.4 7.7.9 9.3 1.8 18.6 2.4 28 1.4 20.9 2.7 41.8 4.1 62.7.2 2.8.7 5.5 1.1 8.2.8 0 1.6-.1 2.3-.1.6-7 1.3-14 1.8-21l5.7-80.7c.2-2.2 0-4.5-.2-6.7-.5-6.1 1.9-10.2 7.5-13.4 25.1-14.4 47.3-32.3 63.1-56.5 15.3-23.3 23.9-49.3 30.1-76 1-4.5 1.9-7.6 7.1-3.9 28.1 19.9 60.7 31.4 91.9 45.6 22.2 10.2 43.6 22.2 65.3 33.3 3.3 1.7 6.8 2.9 11.9 5-1.1-2.8-1.3-4.6-2.3-5.3-12.3-9.2-24.7-18.3-37.1-27.3-19.1-13.9-38-27.9-57.3-41.6-17.5-12.3-35.3-24.1-53-36.2-4.5-3.1-9.4-5.8-13.3-9.5-1.9-1.8-3.1-5.7-2.7-8.3 2.3-14.5 4.9-28.9 7.9-43.2.8-3.6 3-7.4 5.5-10.2 16.7-17.9 33.3-35.7 42.6-58.7 1.6-3.9 3-7.9 5-13.1 6.4 2.9 12.8 5.5 18.9 8.5 33.1 16.6 68.9 24.3 105.3 30.7 28.3 4.9 56.1 12.1 84.1 18.3 4.2.9 8.2 2.3 12.4 3.3.9.2 1.9.1 3.8-1.4-2.6-1.8-5-4.1-7.8-5.2-60.9-24.6-121.8-49.1-182.7-73.7-6.3-2.5-12.4-5.4-18.6-8-4.3-1.8-3-4.1-1.2-7 10.4-16.8 21.2-33.4 30.9-50.6 17.8-31.8 31.5-65.2 28-102-1.7-18-7.2-35.6-11-53.3-.3-1.6-.9-3.2-1.4-5.3 1.7-.5 3.1-1.4 4.4-1.3 37.4 4.1 74-3.4 110.9-8.3 23.5-3.1 47.3-4 71-5.9 3.4-.3 6.7-.6 10.1-.9 0-.9.1-1.9.1-2.8-8.3-1-16.6-2.3-24.9-3-24.2-1.9-48.4-3.7-72.6-5.1-30.5-1.7-61.1-3-91.7-4.5-3-.1-6.1-.2-9.1-.8-5.8-1.2-13.3 1.4-15.2-8.2-1.2-6.1-3.4-11.3-.7-17.8 4.9-12 4.4-12.7 17.9-12.1 35.7 1.6 70.3-5.4 105.1-12.8 29.4-6.3 59.4-9.6 89.1-14.3 2-.3 3.9-1.1 5.8-1.7 0-.8 0-1.5-.1-2.3-4-.6-8-1.8-12.1-1.8-38.2-.1-76.4-.3-114.6 0-23.8.2-47.5.8-71.3 1.7-6.6.2-8-1.5-7.4-8 1.5-16 2.3-32 2.5-48 .1-5.1 1.6-6.6 6.2-7 27.4-2.1 53.5-9.7 79.6-18.3 33-10.8 65.9-21.8 100.5-26.9 2.3-.3 4.5-1.3 6.8-2 0-.9-.1-1.7-.1-2.6-3.7-.3-7.5-1.1-11.2-.7-33.3 3.1-66.6 6.2-99.8 9.6-25.9 2.7-51.8 5.7-77.6 8.7-3.8.4-7.3.4-7.7-4.5-1.4-17.5-7.2-33.6-14.7-49.2-2.4-5.1-2-8.8 1.7-13.5 14.6-18.5 28.5-37.4 42.9-56 5.2-6.7 11-13 16.6-19.5l-2.2-2.2c-2.4 1.6-5.1 2.8-7.1 4.8-18.6 17.8-37 35.7-55.5 53.5-8.8 8.5-8.4 8.3-16-1.6-12.9-16.9-19-36.3-25-56.3-6.6-22.2-20.8-40.1-37.8-55.9-1.2-1.1-2.8-2.4-3.1-3.9-3.3-16.3-6.4-32.6-9.6-49.2 42.2 11.9 83.5 23.5 124.8 35.1.4-.9.8-1.8 1.2-2.8-6.1-2.8-12.1-5.6-18.3-8.3-20.5-8.8-40.9-17.9-61.6-26.2-13.9-5.6-28.2-10.6-42.7-14.7-5.4-1.5-7.5-4.1-8.6-8.6-3.6-15.3-6.7-30.8-10.9-46-8.4-30.5-18.4-60.6-39.1-85.4-7.5-9-17-16.5-26-24.1-3.6-3-3.7-5-.9-8.5 14.3-18 28.4-36.3 42.8-54.3 12.8-16.1 25.5-32.2 38.8-47.9 7.5-9 16-17.2 24.1-25.7-.6-.9-1.2-1.7-1.8-2.6-4.1 2.5-8.7 4.5-12.3 7.5-19.4 16.5-38.8 33.1-57.9 50-21.4 18.8-42.4 38-63.8 56.8-1.5 1.4-5.2 1.7-7.2 1-6.5-2.4-12.8-5.5-20.5-8.9 24-39.4 49.1-78.5 79.8-114.2-.7-.7-1.4-1.4-2.1-2-3.5 2.3-7.6 4.2-10.6 7.1-18.1 17.5-36.1 35.2-54 52.9-12 11.9-23.9 23.9-35.6 36-7.5 7.9-17.1 7.8-24.5-.6-3.1-3.5-5.9-7.3-9.1-10.8-19.6-21.3-44.5-34.7-71.8-44.2-9.7-3.4-19.9-5.7-26.2-14.9-2.5-3.6-2.8-6.2.3-9.8 26.3-30.7 45.3-65 58.4-103 10.7-31 21-62.3 37.6-91.1 2.5-4.3 3.6-9.3 5.4-14-.9-.4-1.8-.9-2.7-1.3-42.8 62.9-81.8 128.1-122.7 193.4-11.6-10.6-21.7-20.1-32.1-29.2-29.5-25.7-61-48.5-101.8-53.9-14.6-1.9-29.7-.7-44.6-1-2.6 0-5.1-.3-7.7-.4 24.2-30.5 47.9-60.3 71.6-90.1-.7-.8-1.4-1.6-2.2-2.4-3.9 2.9-8.2 5.4-11.6 8.8-8.1 7.9-15.8 16.2-23.6 24.3-17 17.5-33.9 35-50.9 52.6-4.2 4.3-7.1 6.1-13.8 1.9-31.1-19.5-64.2-34.9-102.7-34.7-5.5 0-7.2-1.8-8.1-7.1-3.3-21.4-7.7-42.7-10.8-64.2-2.2-15.6-2.9-31.4-4.4-47-.2-2.3-1.1-4.6-1.6-6.8l-2.7.3c-.6 6-1.5 11.9-1.8 17.9-1.6 31.8-3.1 63.7-4.6 95.5-.1 1.5-.5 3-.4 4.4.6 7.6-1 10.7-10.6 12.3-17.8 3-35.3 9.1-52.6 14.6-15.2 4.8-29.9 11.1-45.1 15.8-6.6 2-13.8 2.4-20.8 2.5-21.9.5-43.9-.3-65.8 1.2-11.1.8-22.1 5.2-33 8.4-5.7 1.6-8.1.3-8.1-5.6.5-36.5-6.4-71.5-20.2-105.2-7.4-18-15.7-35.7-22.2-54-6.8-19-11.8-38.6-17.7-57.8-.7-2.3-2.1-4.5-3.2-6.7l-2.7.6c.2 4.6-.1 9.4.6 13.9 5.5 34.3 10.9 68.6 16.8 102.8 4.5 26.2 9.9 52.2 14.5 78.3 1.5 8.7 2.1 17.6 2.9 26.4.4 4.4-.8 6.5-6.5 6-1.2-.1-2.3-.2-3.5-.3-.9.7-1.8 1.4-2.7 2.2-4.5 3.6-6.6 2.5-8.7-1.3-4.2-7.8-8.7-15.5-12.2-23.6-10.6-24.3-1.7-4.6-12.5-28.9-14-31.8-28.5-63.3-43-94.9-1.9-4.2-4.8-7.9-7.2-11.9-.9.3-1.7.7-2.6 1 .3 2.4.4 5 1.1 7.3 5.8 19.3 12.4 38.4 17.3 58 4.7 18.9 7.6 38.2 11.4 57.3 7.1 35.7 2 24.4 22.6 54.5 3.3 4.9 2.1 7.4-3.6 9.2-10.8 3.4-22.4 5.8-32.1 11.3-19 10.9-36.9 23.7-55.4 35.4-5.9 3.7-12.1 7.5-18.7 9.4-15.3 4.5-31 7.4-46.3 11.8-17.5 5-35.4 9.6-51.9 17-8.9 4-12 2.3-15.7-4.4-.7-1.3-1.9-2.3-2.8-3.5-18.9-25.7-37.7-51.3-56.7-76.9-3.6-4.8-7.6-9.3-11.4-13.9-.8.4-1.6.9-2.4 1.3.8 2.2 1.4 4.5 2.5 6.6 7.5 13.9 15.6 27.4 22.4 41.6 9.4 19.6 17.5 39.7 26.6 59.4 2.2 4.8 1.8 7.3-2.8 10.3-32.1 21.2-51.1 52.3-66.3 85.8-3.3 7.3-6.7 7.4-12.5 6.1-23.8-5.2-47.7-10.4-71.5-15.5-11-2.4-22-5.1-33.1-7.1-4.7-.9-9.7-.6-14.5-.9-.2 1.1-.3 2.1-.5 3.2 36.2 11.7 72.4 23.4 109.5 35.3-2.1 1.6-4.1 3.2-6.2 4.6-12.2 8.5-25.5 15.8-36.6 25.5-30.9 27.1-44.5 63.5-54.8 101.3-3.6 13.3-6.7 26.8-10.5 42-70.2-31.6-138.8-64.3-209.3-92.9-.5.9-1 1.8-1.5 2.6 4.1 2.9 7.8 6.5 12.3 8.7 29.8 14.8 55.8 35.1 81.8 55 31.9 24.4 66.8 42.4 105.7 53.3 4.5 1.3 5.7 3.6 5.7 8-.1 11.1-7.4 18.8-13.6 26.9-17.5 23.1-30.8 47.9-35.3 76.6-.7 4.6-1 9.3-1.6 14-1.5 11.2-9.4 16.5-20.1 14.1-16.5-3.7-33-7-49.6-10.3-24.7-4.9-49.5-9.6-74.3-14.2-4.1-.7-8.5-.1-12.7-.1-.2 1-.4 1.9-.6 2.9 45.3 12.7 87.9 31.3 129.7 50.9-4.5 7.1-8 13.1-12.1 18.7-1.3 1.7-4.5 3.4-6.6 3.2-28.2-3.8-56.3-8.1-84.5-11.9-25.2-3.4-50.6-6.5-75.9-9.5-4.7-.5-9.6.3-14.4.5 0 1-.1 2.1-.1 3.1 11.4 2.7 23 4.8 34.3 8.1 19.7 5.8 39.3 12.1 58.8 18.4 21.9 7.1 43.8 14.4 65.7 21.5 4.2 1.4 5.2 3 3.9 7.6-3.3 11.4-7 22.8-8.3 34.5-3.5 32.2 4.8 62.7 14.8 92.8 4.9 14.9 11 29.5 16.4 44.3 1.6 4.4 1.3 7.7-2.4 11.9-9.8 11.4-18.8 23.5-27.3 35.9-12.6 18.4-24.6 37.2-36.7 55.9-3.6 5.6-7.1 11.3-10.6 17 .8.5 1.7 1.1 2.5 1.6 28-32.6 55.9-65.1 84.4-98.4 6.5 15.5 13 30.9 19.3 46.3.6 1.4 0 3.4-.4 5-5.4 22.5-7.3 45.3-.5 67.5 6.1 19.9 11.7 39.5 10.4 60.7-.8 12.4-.4 12.4-12.4 10.2-25.3-4.6-50.6-9.3-75.9-13.8-2.7-.5-5.7 0-8.5 0-.2 1-.4 2-.6 3.1 8.2 2.3 16.6 4.4 24.6 7.1 22.3 7.5 44.4 15.5 66.8 22.8 5.6 1.8 8.1 4.7 8.9 10.3 2.4 17.1 6.5 33.8 15 49.1 2.4 4.3-.5 6.3-3.9 8-23.2 11.9-46.4 23.7-69.4 35.8-29.6 15.6-59 31.4-88.4 47.3-3.3 1.8-5.9 4.5-8.9 6.8.4.7.9 1.5 1.3 2.2 2.3-.7 4.7-1.1 6.8-2.1 31.5-15 65.1-24.1 98.5-33.3 26.4-7.3 52.4-15.4 76.4-28.9 4-2.3 6.2-1.8 9 2.4 9 13.2 18.6 26.2 28.7 38.6 4.1 5.1 4 7.3-1.7 10.8-20.3 12.4-40.4 25.1-60.3 38.1-32 21-63.7 42.3-95.4 63.5-3.3 2.2-6 5.4-9 8.2.4.6.8 1.3 1.2 1.9 1.9-.6 4-1 5.8-1.8 27.4-12.5 54.2-26.4 82.1-37.4 33.1-13.1 65.7-26.5 94.6-47.6 10.9-8 10.9-7.1 21.6.2 5.8 4 6.9 9.5 9.2 15.2 3.8 9-3.9 11-8.1 15.3-2.1 2.1-4.6 3.9-7.1 5.7-24.6 18.2-49.4 36.2-73.8 54.5-19.4 14.6-38.5 29.5-57.6 44.5-6.6 5.2-12.7 10.8-19.1 16.3.6.8 1.1 1.5 1.7 2.3 3-1.6 5.9-3.2 8.9-4.9 20.8-11.5 41.1-24 62.4-34.4 33.4-16.3 68-30.4 96.9-54.6 1-.8 2.6-.9 4.4-1.4.7 2 1.2 3.6 1.8 5.2 6.7 16.9 11.9 34.6 20.4 50.5 17.5 32.6 47.3 52.8 79.8 69.4 17.6 9 35.8 16.8 53.8 25 3.1 1.4 5.5 2.6 2.9 6.5-3.8 5.6-7.2 11.4-11.1 17-37.1 54.2-74.2 108.3-111.2 162.6-1.7 2.6-2.4 5.8-3.6 8.7 2.4.2 3.3-.3 3.9-.9 2.9-3.2 5.5-6.5 8.5-9.6 19.9-20.7 39.1-42 59.9-61.8 26.8-25.5 52.3-51.8 70.6-83.9 3.4-5.9 7.2-11.6 11-17.6 4.5 3.2 7.9 5.7 11.4 8.1 20.4 14 44.2 19.6 68 25.2 3.7.9 7.6 2.8 10.2 5.4 10.5 10.2 20.7 20.8 30.5 31.6 1.8 2 3 5.8 2.4 8.4-1.2 5.2-3.8 10.2-5.8 15.3-8 19.8-16.4 39.6-24.1 59.5-8.5 22-16.5 44.2-24.7 66.4-5.3 14.4-10.6 28.8-15.7 43.3-.4 1.2.5 2.7 1.1 5.7 3-4.6 5.3-7.5 7.1-10.7 12-21.3 23-43.1 35.9-63.9 18.1-29.1 38.8-56.7 51.2-88.9 2.3-5.9 4.7-3.8 8.1-.7 19.9 18.8 41.5 35.7 67.2 46.6 26.6 11.4 55 14 83.9 12.1 6.4-.4 10.7 1.7 13.6 7 1.1 1.9 2.2 3.9 3.5 5.7 16.4 21.4 32.9 42.7 49.4 64 4.3 5.6 8.8 11 13.2 16.5.7-.4 1.3-.8 2-1.2-1.2-2.5-2.3-5.1-3.7-7.5-10.4-18.2-21-36.3-31.4-54.5-4.6-8.1-9.1-16.4-13.5-24.6-1.2-2.3-2.1-4.8-3.1-7.2 2.8.3 5.7.1 8.3.9 13.4 4.1 26.4 10.7 40.1 12.2 28.5 3.1 57.2 1 85-7.5 7.3-2.2 8.8-1.2 9.2 6.5 1.6 35.5 2.9 71.1 4.8 106.6 1.6 30.3 3.9 60.6 6 91 .2 3.4 1.3 6.8 2 10.2.7 0 1.4-.1 2-.1.5-2.3 1.2-4.6 1.4-6.9 1.9-20.2 3.1-40.5 5.7-60.6 3.5-28 9.6-55.8 11.5-83.9 1.6-22.3-1.2-44.8-2.5-67.2-.2-3.8-.3-6.2 3.9-7.4 2.7-.8 5.2-2.1 7.7-3.2 3.8-1.7 5.9-.2 6.4 3.5 2.9 21 5.8 42 8.6 63 2.3 17.6 4.3 35.2 6.7 52.8m-606.4-352.1c-45.5-22.9-74.6-57.4-86.3-107.2 24.8 17.3 49 33.2 61.8 60.9 6.8 14.7 15.7 28.5 23.6 42.7.4.8.5 1.8.9 3.6zm225.4 134.9c46.4 9.1 81.1 37.4 116.5 66.7-30.6 1.6-115.2-47.6-116.5-66.7zm122.6 23c-6.4-5.1-13.2-9.7-19.8-14.6-1.9-1.4-3.5-3-5.3-4.5.4-.7.9-1.3 1.3-2 15.1 7.3 30.3 14.7 45.8 22.2-9.6 5.7-14.2 5.1-22-1.1zm101.6 37.2c-12.8 1.5-26.1 5.8-38.2 3.8-11-1.7-21.3-9.4-32-18.2 9.9-1.6 17.1-3.8 24.2-3.7 5.2.1 10.4 2.9 15.4 4.7 10.2 3.7 20.3 7.5 30.5 11.2 0 .8 0 1.5.1 2.2zm123.4-14.1c-.1-1-.3-1.9-.4-2.9 4.8-1.6 9.7-3.1 14.5-4.7.9 2.8 1.8 5.6 3.3 10.2-7.5-1.1-12.4-1.9-17.4-2.6zm60.5-6.3c-1.2.4-2.5.7-3.6 1.2-9.8 4.4-9.8 4.4-11.9-6.2-2.4-12.4-2.4-12.4 8.6-19 7.6-4.5 15.2-9 23-13.2 1.5-.8 4.4-1.2 5.4-.3 8.7 6.9 17 14.2 26.3 22-16.8 5.3-32.3 10.4-47.8 15.5zm48.8 28.6c7.3-5.9 40.2-5 46.1-.2-14.8.1-29.6.1-46.1.2zm54.7-107.8c19.8-4.6 53.6-9 69.1-11.7.3 2 .6 2.7.5 3.4-4.4 15.3-8.7 30.5-13.4 45.7-.8 2.7-2.7 5.4-4.8 7.4-4.9 4.7-10 9.3-15.4 13.4-5 3.8-10 7.5-15.1 11.2-6.3-.3-12.5-.6-18.8-1-6.8-.4-13.5-1.4-20.2-2.6-2.9-.5-5.9-1.7-8.1-3.5-12.3-10.1-24.4-20.4-36.5-30.7-.5-.4-.6-1.3-1.5-3.1 14.6-6.2 37.9-20.2 64.2-28.5zm66.7 84.8c2.2-7.2 29-26.3 38.4-25.4-13.7 9.1-26.1 17.3-38.4 25.4zm66.9-77.3c-1.2.2-2.4.7-3.7 1-15.7 4.4-31.5 8.8-48.5 13.5 3.4-11.7 6.3-22.3 9.7-32.9.4-1.3 3-2.6 4.7-2.7 8.8-.8 17.6-1.3 26.4-1.7 12.9-.6 12.9-.6 17.7 11 4.3 10.1 4.3 10-6.3 11.8zm37.2-15.4c-1.3-4.7-2.1-7.5-2.9-10.3 4.9-1.4 9.8-2.8 14.7-4.1.4.9.8 1.7 1.2 2.6-3.7 3.4-7.4 6.7-13 11.8zm157.5-86.5c-9.1 8.3-22.4 12.2-34 18-.4-.6-.7-1.2-1.1-1.8 6.4-8.8 12.7-17.6 19.2-26.3 3.2-4.3 6-9.6 10.2-12.5 5.9-4 13-6.2 22.2-10.3-4 13.3-8.3 25.4-16.5 32.9zm38.4-92.3c-2.8 7.7-5.9 15.3-8.4 23.2-3 9.5-6.5 12.5-17.7 13.1 8.8-14.9 17.3-29.4 25.8-43.9.7.3 1.5.6 2.2.9-.6 2.2-1.1 4.5-1.9 6.7zm20.9 56.1c13.2-44.1 26.4-86.8 60-120.1 9.5 16.7-33.6 104.4-60 120.1zm172.9-357.3c-.6-1.8-1.2-2.6-1.2-3.5-1.3-16.2-1.5-32.6-4-48.6-4.7-30.1 6.6-56.8 17.7-84.9 17.8 47.9 12.7 92.7-12.5 137zm-205.3-733.7c7.2-5.6 14.7-10.9 22.4-15.9.7-.5 3 .5 4.1 1.4 6.7 5.4 14.7 10 19.7 16.7 10.4 13.7 19.5 28.4 28.5 43.1 3.5 5.8 5.2 12.8 7.6 19.2l-2.4 1.2c-2.3-3.3-4.3-6.8-6.9-10-3.3-4-6.6-8-10.4-11.4-17.4-15.3-37.2-27.1-58.1-37.5-2.2-1.1-4.8-6.6-4.5-6.8zm66.3 130.9c-25.8-15.6-39.1-39.7-48.3-67.5 14.8 2.3 52.2 54.9 48.3 67.5zm-260.2-258.6c6.1 1.5 12.1 3.3 18.3 4.5 8.8 1.7 15.6 6.1 21.3 12.8 15.1 18 33.4 31.5 56.4 38.7 7.9 2.5 15.6 5.5 23.1 8.9 10.5 4.8 11.3 12.4 2.7 19.7-3.3 2.8-5.7 6.5-9.1 9-2.5 1.7-6.8 3.6-9 2.6-19.3-8.7-36.7-20.1-50.9-35.7-12.7-13.9-25.2-27.9-37.8-41.8-5.2-5.7-10.5-11.4-15.7-17.1.2-.6.4-1.1.7-1.6zm-30.5-49.3c-27.3-7.1-88.3-42.2-95.4-55 19.7-2.4 91.7 39.1 95.4 55zm-160.1-50c12.7 7.8 24.5 17 36.6 25.7 4.7 3.4 9.3 7.1 13.9 10.6-.3.7-.6 1.4-.9 2.2-6.2-.4-12.4-1.1-18.5-1.1-22-.1-44 0-65.9.3-16 .2-31-1.6-43.2-13.2-3.5-3.3-8.5-4.9-12.8-7.4-1.1-.7-2-1.8-4.4-4 5.8-.9 10.1-1.5 14.3-2.3 21.5-4.5 43-9.4 64.6-13.3 5.1-1.1 11.9-.2 16.3 2.5zm-113.5-42.4c.3-1.3 6.2-2.6 9.2-2 13.3 2.5 26.4 5.7 39.5 8.7 1 .2 1.7 1.5 4.5 4.1-6.8.7-11.4 1.1-16 1.6-10.7 1.3-21.5 2.7-32.2 3.8-1.8.2-5.2-.6-5.2-1.1-.4-5-.9-10.3.2-15.1zm-35.4 1.5c1-.1 3.6 3.2 3.5 4.9-.1 2.2-2.7 6.2-3.4 6.1-8.4-1.7-16.7-4.1-25.5-6.4 8.4-1.6 16.9-3.4 25.4-4.6zm-303.1 102.2c20.3-1 40.5-2.1 60.8-3 17.3-10.5 34.8-20.8 52.2-31.2 1.3-.8 3.1-.9 5.3-1.5-10.3 18.4-20 36.1-29.9 53.7l-13.8 24.6c-8.4-4.3-16.8-8.6-25.1-12.9-18-9.2-35.9-18.5-54.6-28.2 2.1-.6 3.6-1.5 5.1-1.5zm-195.8 48.7c7.7-3.8 15.8-6.9 23.6-10.2-6 6.8-11.6 13.3-17.7 19.4-.5.5-4.9-1.5-6.2-3.2-.9-1.3-.7-5.5.3-6zm-67.2 50.9c9.3-9.8 18.4-19.7 28.1-29.2 2.1-2.1 7.8-4.3 8.8-3.4 3.6 3.4 6.1 8 8.6 12.4.3.5-2.1 3-3.7 3.8-9.6 5-19.3 9.8-28.9 14.7-4.1 2.1-8.2 4.3-14.2 7.5.7-3.6.6-5 1.3-5.8zm-50.3 107.3c5.2-14 10-28.1 16.2-41.6 2.1-4.6 7.3-9.2 12.1-11.3 20.2-8.7 40.8-16.5 61.2-24.7 4-1.6 7.9-3.5 13.2-6-.8 3.1-.9 4.5-1.4 5.7-2.2 4.4-5.5 8.6-6.5 13.3-3.7 16.4-15.3 26.2-28.7 34.9-18.4 12-36.8 24.1-55 36.3-5.1 3.4-9.9 7.5-14.8 11.2-.7-.4-1.3-.9-2-1.3 1.9-5.5 3.6-11 5.7-16.5zm-40.4-10c1.1 14.6-30.2 77.6-49 98.7-5.8-15.3 31.2-89.8 49-98.7zm-110.2 276.6c4.4-7 9.1-13.8 14.3-20.2 15.2-18.8 22.9-40.2 25.5-63.5 1-8.7 4.2-16.1 10.6-22.4 4.5-4.4 8.5-9.2 12.7-13.9l1.5.9c-1.2 7.6-2.5 15.3-3.6 22.9-2.8 18.6-5.4 37.1-8.3 55.7-3.2 20.9-11.3 40-22.6 58-1.3 2-5.9 2.9-9 2.8-4.2-.1-8.3-1.9-12.6-2.4-11.1-1.3-14.7-8.1-8.5-17.9zm831.5 932.8c-28.9 15.2-57.6 30.9-89.3 39.7-9.3 2.6-19 3.9-29.6 6.1.9-3.4 1.3-5.1 1.9-7.5-3.6 0-6.6-.3-9.5.1-28.5 4.1-55.1-.7-80.4-13.8-20-10.3-40.5-19.6-60.8-29.4-21.8-10.5-44.6-17.3-69.3-18.9-34.5-2.2-69-5.2-103.4-8.7-7.4-.8-15.7-3.8-21.1-8.6-14.1-12.4-31.9-17.3-48.4-24.8-8.4-3.8-17.3-6.7-25.9-10-.9-.4-2.6-.6-2.7-1.1-2-9.5-3.9-18.9-5.6-28.5 0-.2 3-1.6 4.4-1.4 25.3 4.1 50.6 8.4 75.9 12.7 7.3 1.2 14.6 2.5 21.9 3.7l1.2-3.3c-5-2.1-9.8-4.3-14.9-6.1-21.7-7.7-43.5-15.3-65.3-22.8-6.4-2.2-12.9-4.2-19.4-6.1-4.8-1.4-7.8-3.9-8.6-9-2.2-15.6-4.7-31.2-6.9-46.8-1.7-11.7-3-23.5-4.7-35.2-.2-1.3-1.1-2.6-1.7-3.9-.8-.1-1.5-.2-2.3-.3-.8 3.4-2.1 6.8-2.2 10.2-.3 9.4.3 18.8 0 28.2-.5 15.3-1.5 30.5-2.3 45.8-.1 1.2-.4 2.5-1.2 3.4-2.9 3.4-19.8 1.3-21.6-2.8-2.6-5.9-4.7-11.9-7.3-17.8-2.3-5.1-3.4-9.3 7.5-8.9-13.5-6.3-16.2-16.4-19.6-26.5-4.7-14.2-9.7-28.4-16-42-6.6-14.5-19-24.7-32.3-33.2-19.4-12.3-39.2-23.9-58.9-35.7-6.2-3.7-10.5-8.4-12.2-15.8-2.7-11.7-6.4-23.3-10.3-34.6-1.5-4.4-5-8.1-7.6-12.2.5-.7.9-1.4 1.4-2 22.5 9.1 44.9 18.1 67.4 27.2.5-.9 1-1.9 1.5-2.8-4-2.5-7.9-5.2-12-7.6-24.2-14-48.5-27.7-72.5-42-4.1-2.4-7.3-6.8-10-10.8-10.3-15.7-20.6-31.4-30.1-47.6-2.7-4.6-3.7-10.7-3.4-16.1 1-21 2.8-42 4.1-63 .2-3.2.5-6.6-.3-9.6-8.1-32.1 7.2-58.3 23.2-84.3 7.2-11.7 15.5-22.8 23.2-34.2 1.2-1.8 2-3.8 2.9-5.8-.9-.8-1.9-1.5-2.8-2.3-6.2 7-12.5 14-18.7 20.9-.8-.4-1.7-.8-2.5-1.3 3-7.3 6.3-14.6 9-22 2.7-7.3 5-14.8 7.4-22.2-1.3-.5-2.7-1.1-4-1.6-8.1 15-15.9 30.2-24.4 45-8.7 15.1-18 29.8-27.6 45.5-1.4-2.2-2.6-3.6-3.4-5.3-1-2.2-1.3-4.8-2.6-6.9-9-14.9-2.9-28.3 3.6-42.5 8.9-19.4 16.1-39.5 23.8-59.4 5.8-15.1 1.6-30-2.2-44.5-5-19.5-11.2-38.7-16.9-58.1-1.8-6.2-2.2-11.7 2-17.5 10.7-14.9 20.3-30.5 31.4-45 24.2-31.5 38.1-66.3 42.5-105.3 3.2-27.5 9.4-54.6 14.5-81.9.6-3.2 2.5-6.1 4.9-9 1.2 41.3 9.1 81.4 11.9 122.2 1.3 0 2.5-.1 3.8-.1.5-2.7 1.1-5.3 1.4-8 2.5-26.4 5.5-52.7 7-79.1.7-13.2-1-26.6-2.7-39.7-1-8.2-4.5-16.1-5.9-24.3-.5-2.8 1.2-6.7 3-9.3 12.1-17.1 28.5-29.9 45.4-41.9 21.4-15.3 43.5-29.5 65.2-44.3 24.5-16.7 43-38.7 59-63 9.8-14.8 20.3-29.3 30.8-43.7 1.4-2 4.3-3.7 6.7-4.1 23.7-3.9 47.5-7.4 71.2-11.4 7.8-1.3 15.5-3.6 23.3-5.5-.1-.9-.1-1.9-.2-2.8l-79.6.3c-.4-.9-.8-1.7-1.3-2.6 2.7-3.3 5.1-7 8.2-9.9 12.9-12.3 26.1-24.4 39.2-36.6 11.7-11 24.7-10.3 38.5-5.3 12.9 4.7 25.9 9.2 39.1 13.3 17.7 5.6 35.5 10.7 53.2 16 3.9 1.2 7.7 2.3 11.6 3.5 2.6-3.1 5.1-6.2 7.7-9.3 11.8-14.3 23.8-28.4 35.5-42.8 8.6-10.7 17-21.7 25.1-32.8 8.7-11.8 19.2-19.6 35-16.9 17.6 3 35.3 5.7 52.9 8.8 4.2.7 8.2 2.5 12.3 3.7.1 1 .3 1.9.4 2.9-22.2 14.6-44.3 29.3-66.5 43.9.5.8.9 1.6 1.4 2.5 7.5-2.8 15.2-5.1 22.4-8.4 21.9-9.8 43.7-20.1 65.6-30 2.2-1 5.6-1.1 7.9-.3 16.7 6.2 33.4 12.4 49.8 19.3 26.8 11.3 54.4 19.4 84 19.8 26.3.3 52.6-.1 78.9.8 20.7.7 41.5 2.2 61 9.7 3 1.1 6.5 3.4 7.7 6 3.4 7.6 4.9 16.1 8.5 23.5 5.9 11.9 11.8 24 19.8 34.5 15.8 21.2 33 41.4 49.7 62 1.7 2.1 3.7 3.9 5.6 5.9 1.1-.7 2.1-1.4 3.2-2-20.2-35.5-35.9-73.3-57.8-108.4 3.6 1.1 6.8 2.5 9.1 4.8 19.3 19.9 39.6 39 57.5 60.1 25.3 30 56.1 51.3 93.8 64.1 17.3 5.9 34 13.7 51.1 20.1 6.8 2.5 9.5 7.3 11.4 13.5 5.9 19.3 11.4 38.7 18.1 57.7 4.9 14.1 9.6 28.8 22.8 38.2 17.4 12.3 34.6 25 52.7 36.3 13.3 8.2 25.8 16 26.5 33.4.1 2.4 1.3 4.7 1.7 7.2.3 1.8.1 3.7.1 6.3-16.7-7.8-32.6-14.8-48.2-22.6-15.3-7.6-30.2-15.9-45.2-23.9l-2.4 3.6c6.1 4.8 12.1 9.8 18.5 14.4s13.1 8.9 19.7 13.3c-.5.8-.9 1.6-1.4 2.4-9.1-2.4-18.1-4.7-27.2-7.1-.4 1.2-.7 2.3-1.1 3.5 1.9 1.1 3.7 2.3 5.6 3.2 12.7 5.3 25.8 9.9 38.3 15.7 27.7 12.8 55 26.1 66 57.3 1 3 3.1 5.6 5.1 8.2 12.8 16.7 25.9 33.2 38.4 50.2 3.2 4.3 5.8 10.1 6.1 15.3 1.1 18.7 1.2 37.5 1.3 56.3 0 4.9-.3 10.2-2.3 14.5-12 25.2-24.7 50.1-37.1 75.1-2.1 4.2-3.9 8.6-5.8 13 .9.5 1.9 1 2.8 1.5 13.7-20 27.3-40 41-59.9.8.3 1.5.6 2.3 1 .1 4.8-.7 9.8.4 14.3 3 11.7 6.4 23.3 10.6 34.5 2.7 7.2 1.7 13.4-1.4 19.9-9.9 20.7-19.9 41.4-29.2 62.3-6.4 14.5-11.1 29.7-8.6 45.5 2.4 14.8 6 29.3 10 43.8 2.8 10.3 6.1 20.3-1.6 33 8.8-6.4 10.2-2.2 11.2 3.2 1.1 6.3 2.7 12.5 3.8 18.8.8 4.3-12.1 15.5-16.4 14.3-1.1-.3-2.1-1.3-2.8-2.2-9.1-12.2-18.4-24.4-27.3-36.8-5.5-7.6-10.2-15.8-15.7-23.4-2-2.8-5-4.9-7.5-7.3-.6.5-1.2 1-1.7 1.5.2 1.4.1 2.9.7 4.2 5.1 10.6 10.5 21.2 15.6 31.9 6.8 14.2 13.4 28.6 20.2 42.8 2.3 4.7 1.1 8.5-2.1 12.3-4.4 5.1-8.7 10.4-12.8 15.8-14 18.3-27.9 36.7-41.7 55.2-3.2 4.3-6 8.9-9 13.4.9.7 1.9 1.4 2.8 2.1l16.2-15.3c18.7-17.6 37.4-35.2 56.2-52.6 1-1 4.3-1.5 4.4-1.3 3.9 8.9 7.6 17.8 11.1 26.8.2.5-1 1.6-1.6 2.4-5.4 7.5-11.1 14.9-16 22.7-9.6 15.4-21.6 29.3-26.5 47.5-1.9 6.9-7.1 14.1-12.8 18.8-26.7 22-53.7 43.6-81.3 64.6-19.7 15-34.9 33.3-47.2 54.1-11.5 19.4-23.4 38.5-34.3 58.1-13.8 24.9-33.3 43.6-59.3 56-2.6 1.3-4.9 3.2-7.9 5.2 1.8 1.6 3.2 2.8 5.8 5.1-10 4.1-18.8 8.3-28 11.3-31.3 10.3-63.9 13.2-96.3 16.5-3.8.4-6.6-.6-5.4-5.4 4.3-17.1 8.6-34.2 12.7-51.3 2.4-9.9 4.4-20 6.6-30-.9-.3-1.8-.5-2.7-.8-1.7 3.9-3.5 7.8-5 11.8-8.7 23.8-17.2 47.7-26.2 71.5-.9 2.5-4.7 5.2-7.5 5.5-8.8 1.1-17.7.7-26.5 1.7-15.5 1.7-56.9 10.6-90.9 25.1zm-838.9-776.3c7.8 28.2 10.1 55.7-2.8 83-10.1-8.4-8.2-72.8 2.8-83zm-57.2 16.3c-.7-17.2-1.2-34.5-.2-51.6.5-8.4 4.5-16.6 7.2-24.8.4-1.3 1.7-3.4 2.6-3.4 9.2 0 18.3.2 27.4.9.3 0 1.3 6 0 8.2-11.6 20.2-21.5 41-27.6 63.4-1.3 5-1.8 10.2-2.3 15.3-.4 4-.2 8.1-.2 12.1l-2.7.3c-1.4-6.9-3.9-13.6-4.2-20.4z"/><path d="m722.9 1354.5c-9.6 0-19.3-5.3-29.2-15.9l2.6-1.8c4.8 4.8 9.9 7.3 15.4 7.4 6.5 0 11.4-1.7 14.6-5.1 3.6-2.1 5.4-6.8 5.4-14.4v-27.7c-9.1 3.9-19.3 5.9-30.8 5.9-26.5 0-47-10.5-61.5-31.5-10.9-15.7-16.4-33.9-16.4-54.6 0-14.9 3.1-29.1 9.2-42.8 7.3-16.2 17.3-28.8 30-37.7 10.6-7.2 23.2-10.8 38-10.8 13.8 0 24.8 2.7 32.8 7.9 3.9 1.9 6.6 2.8 7.9 2.8 3.4-1.9 5.2-5.5 5.4-10.8h3.8l3.8 53.6h-3.8c-3.8-13.3-8.6-23.4-14.6-30.3-8.7-9.7-19.8-14.6-33.3-14.6-18.6 0-32.8 8.6-42.6 25.6-8 14.5-12.1 31.7-12.1 51.5 0 16.2 2.7 31 8.1 44.4s12.4 23.1 21.2 29.4c8.7 6.2 16.8 9.4 24.4 9.4 5.3 0 10.5-.8 15.5-2.4s10-4 15-7.1v-56.7c-.5-3.4-1.3-6.5-2.4-9.1s-2.6-4.6-4.4-5.8-5-1.9-9.6-2.1h-5.6v-4.9h58.7v4.6h-2.6c-5.6 0-10.1 3.2-13.3 9.5v109.2c-1.4 6.8-3.8 12.3-7.2 16.4-2.2 3.1-5.4 5.3-9.5 6.7-5.4 1.3-9.7 1.8-12.9 1.8zm180.2-51.5-53.1-79.5c-2.7.5-5.9.8-9.5.8h-6.9v48.7c0 10.6 1.1 17.2 3.3 19.7 2.9 3.8 7.3 5.6 13.1 5.6h6.2v4.6h-66.9v-4.6h5.9c6.7 0 11.4-2.3 14.1-6.9 1.5-2.7 2.3-8.9 2.3-18.5v-109.8c0-10.6-1-17.3-3.1-20-2.9-3.6-7.4-5.4-13.3-5.4h-5.9v-4.6h44.4v10.3c19-6.7 33.4-9.1 43.3-7.4 10.1 2.4 18.4 7.4 24.9 14.9 6.3 7.5 9.5 16.2 9.5 25.9 0 10.4-3.2 19.5-9.5 27.2s-16 13.2-29 16.4l54.1 82.3c9.9 14.4 22.1 23.5 36.4 27.4l.5 1.5c-22.2 0-39.5-6.1-51.8-18.2zm-69.5-87.2h6.7c14.9 0 26.1-3.2 33.7-9.6s11.4-14.5 11.4-24.2c0-9.6-2.5-17.6-7.4-24.2-5-6.6-12.5-9.9-22.6-9.9-6.8 1-14.1 3.2-21.8 6.4zm163.7 20.3 39-106.7h3.8l50.5 141.3c4.1 11.3 7.8 18.6 11.2 21.9s8 5.3 14 5.8v4.6h-57.4v-4.6c5.8-.3 9.7-1.5 11.8-3.3 2.1-1.9 3.1-4.3 3.1-7.2 0-3.6-.9-8.5-2.8-14.6l-.8-2.3-66.4-23.8-9.5 25.9c-2.4 6.5-3.6 11.4-3.6 14.6 0 2.7 1 5.1 3.1 7.1s6.7 3.2 13.8 3.7v4.6h-45.9v-4.6c6-1.2 9.9-2.8 11.8-4.9 3.6-4.1 7.7-12.2 12.3-24.4l9.2-25.4-32.1-11.5 14.6-3.6zm68.7 24.8-33.8-92.6-26.2 70.8zm75.2-127.7h46.2l92.6 119.5v-116.7c.7-10.9 5.5-19 14.4-24.1 8.2-4.1 18.8-5 31.8-2.8v4.6h-5.9c-7.2 0-12.3 2.1-15.4 6.4-1.9 3.1-2.8 9.1-2.8 18.2v167.5h-4.4l-109.5-136.7v104.4c0 10.4 1.2 16.9 3.6 19.5 3.1 3.6 8 5.4 14.6 5.4h5.9v4.6h-68.7v-5.1h5.9c7.2 0 12.3-1.5 15.4-4.4 2.2-2.9 3.3-10.2 3.3-21.8v-118c-1.7-4.4-3.5-7.6-5.4-9.5-3.1-2.9-6.6-4.7-10.5-5.4-2.4-.7-6.1-1-11-1zm345.3 84.1c0 23.8-6.2 43.6-18.5 59.5-14.4 17.1-35 25.8-62.1 26.2h-71v-4.6h5.6c6.3 0 10.8-2.2 13.3-6.7 1.9-3.1 2.8-9.3 2.8-18.7v-109.8c0-10.4-1-17.1-3.1-20-2.9-3.6-7.3-5.4-13.1-5.4h-5.6v-4.6h42.8v11c13-7.3 27.4-11 43.3-11 18.6 0 36.1 11 52.3 33.1 8.9 16.3 13.3 33.3 13.3 51zm-108.5 73.4c9.4 2.4 17.3 3.6 23.6 3.6 17.3 0 31.5-6.8 42.8-20.4s16.9-32.1 16.9-55.5-5.6-41.9-16.9-55.4-25.8-20.3-43.6-20.3c-6.7 0-14.3 3.4-22.8 10.3zm-684.1 76.8.1 20.5h-2.3c-.4-3.3-1-5.6-1.9-7-1.2-2.2-2.9-3.9-4.9-4.9-2.1-1.1-4.8-1.6-8.2-1.6h-11.5v87.4c0 4 .5 6.5 1.6 7.4 1.5 1.6 3.4 2.3 5.8 2.3h2.8v2.7h-32.3v-2.7h3c2.5.1 4.5-.7 6.1-2.5.9-1.2 1.4-3.7 1.4-7.3v-87.4h-9.9c-3.8 0-6.5.3-8.2.9-2.1.7-3.8 2.1-5.3 4.2s-2.3 4.9-2.6 8.5h-2.3v-20.5h2.3v2h64v-2zm50.4-.1c7.6 0 15.6 3.7 24 11.1 7.7 9.5 11.6 18.9 11.6 28.2 0 10.4-2.6 19.9-7.8 28.4-3.8 6.4-10.6 11.3-20.5 14.7-3.6 1-6.8 1.5-9.4 1.5-15.4 0-26.8-8.8-34.1-26.3-1.6-5.3-2.5-11-2.5-17.3 0-12.5 4.5-22.8 13.6-30.9 3.2-2.1 6.7-3.3 10.5-3.6 4.4-3.9 9.2-5.8 14.6-5.8zm-11.4 10.9c.3 3.4 2.1 5.8 5.3 7.2 2-1 3.5-1.5 4.6-1.5 1.9 0 3 1.3 3.5 3.8-.2 1.6-2.1 2.9-5.8 3.7-5.7 0-9.1-4.2-10.1-12.7-2.6.8-4.9 2.9-7 6.2-3.4 7.5-5.1 15.7-5.1 24.7 0 14.1 3.8 25.1 11.4 32.9 3.9 3 7.8 4.5 11.9 4.5 7.7 0 14-3.3 18.8-10 4.5-8.2 6.8-17.1 6.8-26.6 0-9.6-2.2-18.5-6.6-26.8-4.7-6.7-10.7-10-18-10-6-.1-9.2 1.4-9.7 4.6zm134.5-23v2.2h-2.8c-2.1 0-3.9 1.4-5.4 4.1-1.6 2.2-2.3 5.1-2.3 8.7v45.7c0 8.2-1.2 14.7-3.6 19.5-2.4 4.9-5.9 8.7-10.6 11.6-4.7 2.8-10.8 4.3-18.2 4.3-7.2-.2-12.4-1.5-15.8-4-4.3-2.5-7.3-6.1-9.1-10.9-1.6-4.1-2.6-8.7-2.7-13.6v-43.9c-.2-2.7-.9-4.6-2.2-5.6-1.6-1.1-3-1.6-4.4-1.7h-2.8v-2.2h30.7v2.2h-3.2c-3 0-5.2.7-6.6 2-.9 1.4-1.4 3.2-1.5 5.3v40c0 10.5 2.3 17.6 7 21.4 3.5 3.5 7.2 5.2 11 5.2 6.9 0 12.7-2.3 17.3-6.9 3-5.9 4.4-12.4 4.4-19.7v-49.3c0-7.1 3.4-12.4 10.1-16.1 5.1.1 8.6.6 10.7 1.7zm60.6 96-25.6-38.3c-1.3.2-2.8.4-4.6.4h-3.3v23.5c0 5.1.5 8.3 1.6 9.5 1.4 1.8 3.5 2.7 6.3 2.7h3v2.2h-32.3v-2.2h2.8c3.2 0 5.5-1.1 6.8-3.3.7-1.3 1.1-4.3 1.1-8.9v-52.9c0-5.1-.5-8.3-1.5-9.6-1.4-1.7-3.5-2.6-6.4-2.6h-2.8v-2.2h21.4v4.9c9.1-3.2 16.1-4.4 20.9-3.6 4.9 1.2 8.9 3.5 12 7.2 3 3.6 4.6 7.8 4.6 12.5 0 5-1.5 9.4-4.6 13.1-3 3.7-7.7 6.3-14 7.9l26.1 39.7c4.8 6.9 10.6 11.3 17.6 13.2l.2.7c-10.7 0-19-2.9-25-8.8zm-33.5-42h3.2c7.2 0 12.6-1.5 16.3-4.6s5.5-7 5.5-11.7c0-4.6-1.2-8.5-3.6-11.7s-6-4.8-10.9-4.8c-3.3.5-6.8 1.5-10.5 3.1zm60.3-39.8h22.2l44.6 57.6v-56.2c.3-5.3 2.6-9.1 6.9-11.6 4-2 9.1-2.4 15.3-1.4v2.2h-2.8c-3.5 0-5.9 1-7.4 3.1-.9 1.5-1.4 4.4-1.4 8.8v80.7h-2.1l-52.8-65.9v50.3c0 5 .6 8.2 1.7 9.4 1.5 1.7 3.8 2.6 7 2.6h2.8v2.2h-32.8v-2.5h2.8c3.5 0 5.9-.7 7.4-2.1 1.1-1.4 1.6-4.9 1.6-10.5v-56.9c-.8-2.1-1.7-3.7-2.6-4.6-1.5-1.4-3.2-2.3-5.1-2.6-1.2-.3-2.9-.5-5.3-.5zm110.2 49.6 18.8-51.4h1.9l24.4 68.1c2 5.4 3.8 9 5.4 10.6s3.9 2.5 6.7 2.8v2.2h-27.7v-2.2c2.8-.2 4.7-.7 5.7-1.6s1.5-2.1 1.5-3.5c0-1.7-.5-4.1-1.4-7l-.4-1.1-32-11.5-4.6 12.5c-1.2 3.1-1.7 5.5-1.7 7 0 1.3.5 2.5 1.5 3.4s3.2 1.5 6.7 1.8v2.2h-22.1v-2.2c2.9-.6 4.8-1.4 5.7-2.3 1.7-2 3.7-5.9 5.9-11.7l4.4-12.2-15.5-5.6 7-1.7zm33.2 11.9-16.3-44.6-12.6 34.1zm77.4-15.3-20.6-32.7v53.9c.2 5.3.7 8.5 1.5 9.8 1.2 1.7 2.8 2.6 4.6 2.6h2.2v2.1h-26.1v-2.2h2.3c3.4-.1 5.4-1.6 6.1-4.6v-63.7c0-3.4-.6-5.8-1.9-7.2-1.3-1.2-2.8-1.9-4.5-2h-2.1v-2.2h17.7l22.7 36.6 25.2-36.6h18.9v1.9h-2.3c-2.9 0-4.9 1-6.1 3.1-.7 1.3-1.1 4.3-1.1 8.9v73.2c0 5 .5 8.2 1.4 9.4 1.8 2.6 4.4 3.6 7.8 3.1l.4 1.2c-5.7 2-10.5 1.3-14.3-2.1-3-3.1-4.6-7-4.6-11.6v-74.4l-23.2 33.6h-4zm81.5-41.8v32.4h18c4.7 0 7.8-.7 9.4-2.1 2.1-1.9 3.2-5.1 3.5-9.8h2.2v28.4h-2.2c-.6-4-1.2-6.5-1.7-7.7-.7-1.4-1.8-2.5-3.5-3.3s-4.2-1.2-7.6-1.2h-18v27.1c0 3.6.2 5.8.5 6.6s.9 1.4 1.7 1.9 2.3.7 4.6.7h13.8c4.7 0 8.1-.3 10.1-1 2.1-.7 4.1-1.9 6.1-3.8 0-3.6-1.2-7.7-3.5-12.1l6.1.1 7.9 21.3h-70.6v-2.2h2.8c2 0 3.8-.5 5.6-1.4 1.2-.7 2.1-1.6 2.6-2.9s.7-3.9.7-8v-26.2h-8.7v-4.2h8.7v-26.7c0-2.6-.5-4.5-1.6-5.7-1.5-1.6-3.9-2.3-7.3-2.3h-2.8v-2.2h63l1 17.9h-2.3c-.9-4.3-1.9-7.2-2.9-8.8s-2.5-2.9-4.5-3.8c-1.6-.6-4.5-.9-8.5-.9h-22.6zm60-4.4h22.2l44.6 57.6v-56.2c.3-5.3 2.6-9.1 6.9-11.6 4-2 9.1-2.4 15.3-1.4v2.2h-2.8c-3.5 0-5.9 1-7.4 3.1-.9 1.5-1.4 4.4-1.4 8.8v80.7h-2.1l-52.8-65.9v50.3c0 5 .6 8.2 1.7 9.4 1.5 1.7 3.8 2.6 7 2.6h2.8v2.2h-33.1v-2.5h2.8c3.5 0 5.9-.7 7.4-2.1 1.1-1.4 1.6-4.9 1.6-10.5v-56.9c-.8-2.1-1.7-3.7-2.6-4.6-1.5-1.4-3.2-2.3-5.1-2.6-1.2-.3-2.9-.5-5.3-.5v-2.1zm161.7-2 .1 20.5h-2.3c-.4-3.3-1-5.6-1.9-7-1.2-2.2-2.9-3.9-4.9-4.9-2.1-1.1-4.8-1.6-8.2-1.6h-11.5v87.4c0 4 .5 6.5 1.6 7.4 1.5 1.6 3.4 2.3 5.8 2.3h2.8v2.7h-32.3v-2.7h3c2.5.1 4.5-.7 6.1-2.5.9-1.2 1.4-3.7 1.4-7.3v-87.4h-9.9c-3.8 0-6.5.3-8.2.9-2.1.7-3.8 2.1-5.3 4.2s-2.3 4.9-2.6 8.5h-2.3v-20.5h2.3v2h64v-2zm61.9-575.6c-5.6-36-10.8-72.3-21-107.1-5.1-17.4-20.6-31.8-31.3-47.5-6.9 24.1-7.3 44.8-10.9 65-10.7 59-45.3 77.9-101.5 57.9-17.9-6.4-25.1-15.5-25.5-36-1-52.5-5.8-105-28-153.8-9.6-21-21.1-41-45.7-49.9 0 22.4.6 43-.2 63.6-.8 20.8-2.1 41.6-4.6 62.3-5.2 42.6-18.8 81.2-54.6 108.4-39.6 30-102.1 3.3-108.9-46.2-10-72.6-19.9-145.3-31-217.7-4.3-28.3-11.7-56.2-17.7-84.3-2.1.1-4.2.2-6.4.3-2.4 8.5-5.7 16.9-7.1 25.6-14.4 90.5-30.3 180.8-41.8 271.6-4.6 36-28.4 48.8-54.3 61.1-24.3 11.5-45-.8-63.3-17.1-35.1-31.1-45.3-73.1-48.3-117-2.4-36.1-.5-72.5-.5-111.6-33 13-47.6 38.3-53.7 65.2-10.6 46.8-16.4 94.8-22.1 142.6-1.8 14.8-4.7 23.9-19.5 30.1-61.4 25.8-100.6 4.1-109.7-62.7-2.5-18.3-2.9-36.9-4.4-58.2-5.8 4.9-9.2 7.1-11.9 10.1-38.6 42.5-44.5 95.3-46.1 149.2-.1 4.6 4 11.4 8.1 13.7 55.3 30.5 60.3 81.6 45.1 132.4-15.7 52.6 16.2 87 31.4 134 10.2-40.9-9.8-88 37.6-105.8 24-9 52.2-6.8 78.6-8.8 37.6-2.9 30.3 40.8 53.5 53.1 7.6-14.3 13.4-29.5 23-41.6 6.3-7.9 19.2-17.3 27.5-15.9 65.5 10.9 136.2 13.9 166.1 90.9 1.7 4.5 5.1 8.4 8.6 13.9 3.5-5.3 7.3-9 8.7-13.4 14.3-44.3 47.8-65.6 90.1-76.9 8.8-2.4 17.2-6.2 25.9-8.8 63.1-19.2 74.3-13.7 99.2 48.3.5 1.2 2.5 1.8 5.5 3.7 7.7-13.7 14.5-27.8 23.5-40.4 4.1-5.8 12.5-12.1 18.9-12.1 25.7.1 51.4 1.6 76.9 4.7 22.2 2.6 36 15.9 38.5 39.2 2.3 21.5 4.5 43 7.3 70.7 20.9-51 47.1-91.3 30.4-146.8-16-53 7.6-90.8 54.3-119.1 5.8-3.6 12.2-13.3 11.3-18.9zm-482.6 114.3c-16.8.8-48.3-40-48.9-63.3-.6-22.6 22.6-44.6 47.4-45.1 24.4-.5 48.6 21.2 48.9 43.7.4 22.7-29.9 63.9-47.4 64.7z"/></svg>