<svg xmlns="http://www.w3.org/2000/svg" xml:space="preserve" style="enable-background:new 0 0 1320.5 695.4" viewBox="0 0 1320.5 695.4">
  <style>
    .st2{fill:#fff}.st3{fill:#000}.st4{fill:none}
  </style>
  <g id="Layer_6">
    <path d="M242.1 427.5c0 .1-.1.2-.1.3h.6c-.2-.3-.3-.4-.5-.3zm417.8-18.8c.2 1.2-.1 4.4 2.6 3.3 2.3-1 1.5-4.1.5-5.1-2.3-2.3-.1-5.6-1.6-7.8-1.4-1.9-2-8.2-5-7.2-.4.3-.5 1.3-.3 1.8 2.5 4.7 3 9.8 3.8 15zm-7.7-15.7c.2-3.4-2.9-3-3.9-.1-3.4 6.4-1.3 13.2 5.3 17v.1-.1c1-3.2 4.4.1 1.2 1 .1 2 3.3 3.2 4 1.5-1.4-2-.1-5.2-3-6.3-1.2-.5-2.7-1-1.9-2.1 3-4.5-1.2-7.4-1.7-11zm-3.2-8.8c-.5-1.2.2-3.1-1.9-3.5-.1 1-.4 2.1-.3 3.1.1 1.1 0 2.7 1.4 2.7s.8-1.4.8-2.3zm-261.5 8.6c-.6.6-2.6 3.3-.5 3 1.4-.2 2.3-3.5.5-3zm61.6 1.2c-3.1-.7-5.3-4.7-9-2.8.1-.1.3-.1.4-.2-.2.1-.3.1-.5.2 3.1 1 6.3 3.8 9.5 3.8.4-.3.1-.9-.4-1zm-18.7-14.5c-1.1 3.1-4.6 3.6-6.4 6 2-.6 5.2 2.1 5.4-.6.2-2.4.3-2.8 2.3-2.6.9.1 1.6.3 1.9-.9.8-1.4-2.9-3.3-3.2-1.9zm-178.1 37.8c-1.7.7.4 1.7 1 2.2.7-1.1-.3-1.6-1-2.2zm-4.5 2.8c2.7-3.7-3.6-5.4-2 2.6-1 1.1.8 2.1.6 3-.8 2.9 1.3 2.8 2.9 3.2 1.3.4 1.6-.4 1.9-1.6 2-5.8-6.2-2.3-3.4-7.2zm12.5 2.5c.9.5 1.2-.3 1.2-.9 0-.9-.4-1.7-.6-2.6-1.7.2-1.9 2.9-.6 3.5zm8.5 8.4c-.1 0-.2-.1-.2-.1l.1.1h.1zm0 0c8.3-1 0 4.2 3.1 4.8 1 .1 2.6.8 2.6-1.1 1.2-4.9-7.5-9.5-5.7-3.7zm-.8-.2c.2 0 .5.1.7.2-.3-.1-.5-.1-.7-.2zm330.9-52.7c.1 1.1.7 2.2.9 3.3.4 2.1 3.5 3.9.8 6.5-.5.5.4 2.3 1.6 2.7 1.7.6 1.6-1.1 2.3-1.9 1.4-1.8 1.2-3.7 1-6 .9-2.8-7.8-11.3-6.6-4.6zm137.6 25.4.1-.2h-.3c.1.2.1.2.2.2zm.3.3c0-.1-.1-.3-.1-.4l-.1.2.2.2zm1.4 1.2c-.5-.4-.9-.8-1.4-1.2 0 .6.5 1.9 1.4 1.2zm-5.4-11.7-.3.2.3.2zM772.7 233v.3l.4-.2zM580.8 408.5c-1.1-2.2-3.9-30.8-7.4-21.6-2.2 2.4-.2 7.8-5.6 7.8-.1 4.1 1 10.7 1.4 17.1h12.9c-.6-.3-1.1-1.4-1.3-3.3zm-388.6 66.2c2-1.5-1.3-4.3-3.3-4.8-1.6 2.7.9 4.4 3.3 4.8zm71.6-40.3c-.1 0-.2.1-.2.1.1-.1.1-.1.2-.1z" class="st4"/>
    <path d="M656.5 423.8c-4.3-2.1-3.3-9.3-9.5-9.5-2.3-.8 1.6-5.1-2.3-6.8-10.5-3.4-15.7-28.7-25.1-10.3-1.3 3.5-5 2.1-4.6-1.4.4-7.5 10.8-14.7 3.6-21.7-1.3-2.1-1.4.5-1.6.8-1.5 2.2-2.8 4.5-4.1 6.7-.4.6-.2 1.9-1.5 1.3-.8-.3-.6-1.1-.2-1.7 1.5-2.7 1.5-6.3 4.3-8.3 1.3-.9 1.9-1.7.7-3.1-4.6-4.3-9.2 6.1-7.9 9.6.4 9-4.9 12.4-.2 23.1 2.8 4.9-.6 6.6-2.5 1.3-1.6-5-8-6.6-8.5-12.4-.1-1.1-1.3-.3-2-.1-3.4.4.2 7.1-1.6 7.6-2.2-.2-1.4-3.1-1.9-4.8-1.4-4.1-2.1-8.6-4-12.4-2.5 3.2.6 9.6.8 13.1-.5.8-1.5.1-2.2-.2-6.3-3.2-4 10.3-3.2 13.4.9 2.1.6 3.5 0 3.9h5.7v29.3c1.2 5.2 3.2 10.3.6 15.7-.3.7.1 2-.6 2.3v67.1l57.4-74.7c-.1-.1-.2-.2-.2-.5-.2-1.4 1-1.8 2.2-2.1l12.3-16c-1.3-2.2-2.8-4.4-4.6-6.3-1-1.2 2.7-1.9.7-2.9zm-58.2 1c.3-.1.5.1.5.4-.3.8-.8 0-.5-.4zm-2.8-16.4c-2.3-.3-1.2-2.7-2.1-3.9.1-1.2.3-2.3.4-3.4 1.3 1 3.3 6.6 1.7 7.3zm3.8 32.3c-2.5-.6-2.1-7.1-3-9.4-.1-.6-.2-1.4.6-1.6 1.5-.3 3.7 11.1 2.4 11zm1.9-34.1c-.8.3-1.1-.6-.8-1.3.5-1.3-.2-3.3 1.5-3.9.8-.3.5.9.8 1.3-.2 1.6.2 3.3-1.5 3.9zM608 419c-1.3.5-1.9-.9-1.5-1.8 1.3-2.3-2.4-5.9 1.7-7.3 3-1 2.9 9-.2 9.1zm14.1-19.5c.1-1 .7-1.2 1.3-.9 1.2.5 3.1-.7 3.5 1.5.2 3.9-3.4.2-4.8-.6zm6 17.3c-.2-.5-.5-1.7.3-1.4 4.1 2.5.4 7-.3 1.4zm8.8 33.3c-2.8-.1-1.3-4.7.1-5.5 1.1-.5 1.2 1.1 1.2 2.1-1 .9 1.1 3.2-1.3 3.4zm.6-29c1.3-.1 1.3.6 1.4 1.2-.3 3.3-4.2 1.7-1.4-1.2zm7.1-4.9c.4-.2.7-.4 1.1-.4.2 0 .3.4.6.8-.8.2-1.3.5-1.7-.4zm3.3 18.2c-.3-.2-.3-.4-.1-.7.4.2.4.4.1.7zm2.6-6.3c-.2-.4-.4-.7-.5-1.1.5-.8 1.1-.3 1.8.3-.6.4-1 .6-1.3.8zm85.3-24.6c.2 0 .3 0 .5-.1-.1-.2-.2-.5-.5.1zm-26.1-14c.6-.1 1.2-.1 1.8-.2-.4-1.3-1.7-1-1.8.2zm-265.6-10.2c-1.9.9-6.1.6-4.8 5.3-.9 1.7.3 2.6 2.1 3.1 1 .3 2 1.2 3.1-.2.6-.7.3-3.1 1.9-2 1.6 1-.3 2.2-1 3.1-1.3 1.8.4 1.9 1.3 2.2.6.2 2.1 2.5 2-.5-.1-1.3 1.1-1.6 1.8-2.2 2.1-1.8 2.7-4.7 1-6.1-2-1.4-4.4-4.1-7.4-2.7zm246.6 22.4c.3.1.5.2.8.3.1-.3.2-.5.2-.8-.2-.1-.5-.1-.7-.2-.2.2-.2.5-.3.7zM641 383.8c-1.4.3-.2 4 1.1 6.1.8 1.2 1.5 3.5-.9 3-1.5-.3-4.6-.9-4.5-3.5 2.1-7.3-10.2-.1 8 8.3 1-3.1.5-6.1-1.1-8.9-1-1.7 0-5.5-2.6-5zm17.1 31.5c-.5 1.1.5 2.9 1.9 2.6.4-1.1-.1-3-1.9-2.6zm36-16.5c.5.1 1 .2 1.5.4-.2-.5-.4-.9-.6-1.4-.3.2-.6.6-.9 1zm1.5.3c0 .1.1.2.1.2l.1-.1c-.1-.1-.1-.1-.2-.1z" class="st4"/>
    <path d="M711.7 389.3c.5 1.4 2.8 3.1.9 4-1.2.6-1.9-2.2-3-3.6-4 1.7-3.6-6.2-8.5-.9-1.8 2.3-7.5 2.5-4.5 7.6.7 1.3 1.7 2.7-.8 3-1.3 6.7 5.8 5.1 9.7 7.4.8.6.7-1.4 1-1.6 2.6-1.3 2.1-6.3 6.5-5.6 4.7.8 7.5-1.1 7.9-6-3.2-2-4.2-10.6-9.2-4.3z" class="st4"/>
    <path d="M695.7 399.3s.1 0 0 0c.1 0 .1-.1.1-.1l-.1.1zm25.5-6c1.3-.6 2.6-1.2 3.7-2 1.3-.9 1.5-3 .2-3-2.6.1-3.6-3.9-5.4-2.5-3.2 2.5 1.8 4.6 1.5 7.5zm-457.5 41.2c.1-.1.2-.1.3-.1-.1 0-.2 0-.3.1 0-.1 0 0 0 0zm202.5-26.4c-.3.3-.3.4 0 .7.3-.3.3-.4 0-.7zm61.3-16.6c.1.2.3.3.4.5.1-.3.2-.6-.4-.5zm-58.5 0c-3.2 0-6.2-6.3-8.3-4.6-2.1 1.9-3.9 4.3-6.5.9-.7.4-1.1.7-1.6.9 2.2 2.6 5.3 1.7 2.8 6.2-1 2.1 2.9 3.9 3.5 1.6 4.1-8.2 8.8 4.7 11.2-.8.9-1.8 1.5-3.6-1.1-4.2zM899.2 444c4.6.7 14.6-8.6 15.6-14.5 1.1-5.9-4.2-12.8-10.6-13.9-6.5-1.1-13.7 3.5-14.7 9.4-.9 6.1 5.3 18.4 9.7 19z" class="st4"/>
    <path d="M222.7 606.3c.7-.1 1.3-.1 2-.2-.7-.9-1.5-1.6-2 .2zM268.8 431zm288.8-19.2h8.5c-1.9-6-8.6-5.4-8.5 0zm-372.2 55.7c3 1.7.9 6-2.4 5.3-1-.1-1.8.6-2.6 1.3-3.5 2.9-6 11.1-3.7 15 1.9 3.2 3.3 8.3 9.5 4.5 1.8-1.1 4.9-1.8 7.5-2.4 2.7-.6 10.8-9.9 10.8-12.6-5.3-11.5 7.7-5.8 4.2-14.4-1.1-1.9-2.9-2.3-4.6-.9-9 6.3-7.7-10.4-14.8-12.4-.8-.3-1.4-1.3-.9-2 8.1-4.3 8.1 10.7 16 8.6 5.7-.8 4.8-7.4 6.4-11.7 1.9-9.3-4-6.4-8.8-10-1.8-2.5-3.6-3.2-5.7 0-1.4 2.2-4.3 2-4.6-.4-1.9-12.3-12.5-23.6-25.8-23.1-3.3-2.1-4.6 2.8-7 2.8-4.3-.2-4.5 3-4.9 5.4 0 7.8-5.2 2.5-6.2 7.9-.2 1.3.8 2.2 2 2.6 5.9 2 1.1 6.2 1.9 9.9 4.7 7-.3 10.6 3 14.4 2.9 3.2 1.3 5.4-1.6 7.2-4.4 1.1-2.2 5 1.5 3.8 4.6-.8 8.9-1.1 12.6 2.5 7.7 3.5 15.2-4.8 18.2-1.3zm3.5 2.4c2 .5 5.3 3.3 3.3 4.8-2.4-.4-4.9-2.1-3.3-4.8zm76.8 70c-6.1-1.7-.4-12.2-12.8-13.3-1.1-.1-1.8-.8-2.2-1.7-2.4-2-3.9.7-5.8 1.3-14 2.5-15.3 31.1-1.5 34.1 1.3.3 1.7 1.4 1.9 2.7.4 3.9 5.4 3.4 6.1 0 1-2.7 1.9-4.8 3.9-.6 7.4 6.9 18.8-18.4 10.4-22.5zM250.9 525l-.2-.2.2.2zm-69.4-24.9c-9.2-1.1-10.8 17.2-10 23.8 1.1 10.9 15.2 16.7 22.8 7.4 9.6-8.9 4.1-33.8-12.8-31.2zm171.3 22.5c-3.3 6.5-12.2 10.9-5.8 18.6 3.4 3.1 13.1 21.7 16.9 19.1 1.8-.9 1-2.6.8-4-2.7-12.3-1.7-15.9 2.1-27.6-1.8-6.4-8.8-15.2-14-6.1zM498.2 70.5c4.6-2.6 8.6 2.7 13.5-.1 4.1-2.4 8.5-5.2 8.1-9.3-.7-19.4-27-13.2-22.3 4.9 1.2 1.3-.2 5 .7 4.5zm5.5 455.2c-9 2.3-9.9 14.4-16.1 20.2-.5.6-.4 1.3-1.6.7-5.4-2.7-9-1.3-9.9 4.7-.5 3.5-5.2 8.1 1 11.3 1.1.6.2 2.2.5 3.3.4 1.4-1.4 3.3.3 3.9 1 .3 1-2.1 1.6-3.2 1.3-2.4 3.3-.7 4.9-1 5.5-1.5 7.4-9.2 5.1-14.1-.4-.8-1.9-2.1.1-3.1 3.7-.6 17.9-20.9 14.1-22.7zm-218.9 37.1c-5.9-4.8-13 1.3-11.7 8.2.2 4.5 7.6 17.3 12.8 13.3 11.9-2.4 8.1-17.2-1.1-21.5zm220-485.5c-4.6 1.5-3.9 6-.1 7.9 3.8 3.2 9.7 5.7 10.2 10.5.7 5.9 5 2.8 6.9 5 1.9-1.6 5-1.4 5.2-4.3.2-2.5-.7-4.9-3.5-6-5.6-2.1-9.3-6.8-13.7-10.3-1.6-1.3-2.4-3.6-5-2.8zm354.4 78.9c-2.3 9.3 12.4 16.2 10.9 7.4-.5-2.4-.6-4.9-.9-7.4-.8-2 .4-12.7-3.3-10-2.7 1.8-3.4-3.8-6.3-1.4-1 .8-1.5 1.8-.9 3 1.3 2.9.8 5.6.5 8.4zM128.7 96.9c9.1-2 7.6-16.7-2.2-16.7-8.7.8-5.6 17.8 2.2 16.7zm230.8 392.4c-4.4 1.2-3.3 5.5-4 9-.5 3.1 3.8 8.1 6.6 8 7.5-1.7 7.7-9.3 1.4-15.3-1.1-1.2-1.9-2.6-4-1.7zm-146.2-24.9c.8 10.8 10 9.4 11.8 1.4.1-9.2-12.7-12.1-11.8-1.4zM65 446.2c-9 1.3-5.4 15 1.4 14.4 6.6-1.8 6.5-14.5-1.4-14.4zm772.1-320.8c6.1 5.5 6.3-4.2 10.3 0 5.6 4.5 4.7-8.8-.9-5.3-4 3.7-1.4-5.5-7.9-4.4-7.2.6-6.8 6.4-1.5 9.7zM37.5 391.8c-4 1-13.2 2.8-11.9 8.5 3.1 7.9 23-7.8 11.9-8.5zm321.6 171.7c-6 .6-5 12.6 1.7 11.1 6.2-1.1 4-12.6-1.7-11.1zM655.4 52.7c8.3.5 9-10.6.9-11-3.6.2-3.6 2.7-3.3 6 2.5.6-.7 5.3 2.4 5zM203.7 488.8c-3.1 1.2-2.5 9.3-2 12.2 1.8 3.7 5.1-5.7 7.6-6.2.9-.6 2.6-.8 2.2-2.3-.9-3.6-5.2-1.9-7.8-3.7zM634.3 44.6c1 .1.9-1.2.9-2-.1-11.7-.6-23.3 2.1-34.8.1-.5-.3-1.6-.6-1.7-4.5 3.7-4.1 29.9-2.7 36.6-.2.7-.7 1.9.3 1.9zM103.5 569.8c-4.9 1-2.2 6.4-4.3 9.3-.6.8 1.1 2.8 1.8 2 2.1-2.4 8.1-.8 7-6.3-.3-2.9-1.7-5.6-4.5-5zm236.9-27.5c-5.6.9-4.3 10.7 1.5 10 5.8-.6 4.3-10.6-1.5-10zm488.2-413c2.5-.2 2.8-2.8 2.8-5.3-.7-2.4-1.7-4.9-4.9-4.9-1.9 0-3.8 1.3-2.9 3.5.9 2.7.6 7 5 6.7zM179.6 404c.4 2.4 2.5 1.7 4 2.2 2.2-.7 13.6-4.1 6.5-6.8-3.4-1.3-5.3 1.1-7.9 1.6-1.4.3-2.9 1-2.6 3zm409.7 52.9c2.6-5.4.6-10.5-.6-15.7v18.1c.7-.4.3-1.7.6-2.4zm-460.1 44.2c-3.3.4-5.9 2.9-5.9 5.7 0 2.2 3.4 1.4 4.7 1.6 6.5.8 7.7-8.4 1.2-7.3zm730.4-312.6c-.1-4.9-7.8-6.4-7-.4.1 6.3 8 7.6 7 .4zM189.5 389.1c-.7-2.7-1.6-5-4.6-4.5-2.4.4-2.8 2.6-2.6 4.7.5 5.9 7.9 6 7.2-.2z"/>
    <path d="M483.5 530.2c4.5 2.8.2 6.4 1.3 10.3 0 0-1 1 .2 1.3.2 0 .7-.7.7-1.1.7-7.1 3.7-14.7 2.9-21.7-3.5 2.3-1 8.5-5.1 11.2zm-171.1-48.5c-1.1 1.2-4.8-.5-3.7 2.4.8 2.1 1.2 6 5 5.6 2.9-.3 2.9-2.9 2.8-5-.2-2.4-1.7-3.5-4.1-3zm136 56.2c-4.8 4-7.4 9.7-11.4 14.3-.5.6-1.4 1.3-.6 2.1 1.3 2.8 12.7-14.6 13.8-16.4l-.3-.9-1.5.9zM134.2 69.3c6.6 3.1 13.2 6.2 19.7 9.3.7.3 1.7 1.1 2.1.1.4-.8-.7-1.4-1.4-1.8-6.9-3.1-13.7-6.8-20.7-9.6-1.3.5-.7 1.7.3 2zm205 464.7c0-5.1-7.1-3.9-6.5-.1-.4 7 6.9 5.3 6.5.1zM850 273.6c4.1-.1 8.9-6.9 1.7-5.8-2.5.6-5.6.8-5.5 4.3.1 2.1 2.2 1.4 3.8 1.5zM496.7 455.2c-1.7 3.5-3.3 7.1-2.6 11.2 1.1.8-.4 3.3 1.2 3.4 1.4.1.8-2.2 1.2-3.4.6-2.3 3.4-10.5.2-11.2zM345 578.8c-4 .2-3.8 8.6.1 8.3 3.1.4 4.7-8.3-.1-8.3zm-94.6-55.7c.3.5.4 1.1.5 1.7 3.4.1 6.2-1.2 5.3-4.9-.8-5.2-9-1.1-5.8 3.2zm.5 1.9v-.2h-.1c-.1 0 .1.2.1.2zM656.8 39.7c2.2-.1 3-1.8 3.4-3.7-2.6-8.4-12.2 3-3.4 3.7zM485.1 91.1c4 .4 3.2-7.2-.4-7.1-4.8.2-3.9 7.2.4 7.1zm330.1 265c1.8.2 1.4-1.8 1.4-3 0-2.9-1.8-3.5-4.2-3.7-5.1.4-.2 7 2.8 6.7zm-116.3-345c.7.2 1.6-1 1.1-1.8-1.3-1.9-.9-5.3-4.3-5.3-1.7 0-2.4 1.5-2.7 3.2 1.1 2.5 3.6 3.2 5.9 3.9zM53.6 508.9c-.4.6-.4 1.2.5 1.5 2-1.9 10.5-12.5 8.9-14.6-4.1 3-6.2 9.1-9.4 13.1zm388.3 5.4c-1.4.2-9.8 8.6-5.6 9.4.7-.3 10-9.6 5.6-9.4zM608.2 410c-4.1 1.3-.4 4.9-1.7 7.3-.5.9.2 2.2 1.5 1.8 3.1-.2 3.2-10.2.2-9.1zm51.6-385.1c3.7-.5 3-7.2-1.3-6-3.3.7-2.7 7 1.3 6zm31.4 0c1.9-.5 2.8-2.2 3-4.3-3.2-6.4-10.6 5.3-3 4.3zM840 197.4c.4 1.7.8 4.2 3.4 4 1.9-.1 1.7-2.1 2.1-3.5-1-3.8-5.7-5.7-5.5-.5zM529 25.1c.7 3-.2 7.6 2.3 8.7 1.9-.4.6-2.4.5-3.6 0-1.6-.4-3.3-.9-4.8-.8-2.2.6-6-2.1-6.2-1.3 0 .4 4.3.2 5.9zm335.7 205.8c-.6-1.5-2-2-3.5-2.1-2 0-3.7 1-3.7 3 .4 3.3 6.5 2.2 7.2-.9zM216.1 486.5c-3-.2-4.8 6.7-1.1 5.6 1.6-.8 3.8-1 4.5-3.2-.7-1.6-1.6-2.6-3.4-2.4zm393.8-381.4c2.4-3.6 2.1-9.8 3.2-13.4.7-2.5-.6-3.8-1.5-1.1.1 2.8-3.7 13.6-1.7 14.5zm-56.3-36.2c2-2.4-.1-4.9.5-7.5-1.1-2 .3-4.7-1.8-6.6-1.8 2.4-.4 4.9-.1 7.3.2 2.3-.4 4.8 1.4 6.8zM357.9 579c-3.5.2-3.2 7.1.1 6.7 3.2-.5 3.6-7.1-.1-6.7zM209.7 474.7c-3.7.2-3.7 6.2-.1 5.8 3.4 0 3.6-5.9.1-5.8zm568.5-92.6c2-1.3-2-4-2.9-6.3-.5-1.3-1.8-2.2-2.6-3.1-2.5.7 0 3.4.8 4.5 1.6 1.7 2.4 6.3 4.7 4.9zm-96-344.8c-3.5-4.4-5.5-11.1-9.9-14.1 0 .5-.1 1 .1 1.4 1.2 1 9.8 17 9.8 12.7zM256.7 456c3.3-.3 2-7.9-.6-7.9-2.2.5-.9 3-1.2 4.6.7 1.2-.4 3.7 1.8 3.3zM63.9 439.9c1.4-.5 6.6-5.1 2.6-4.8-1.9 1-8.3 3.6-6 6.2 1.5.7 2.4-.7 3.4-1.4zM491 67.3c3.8 0 3.2-5.7-.6-5.1-3.9.2-3.3 6.1.6 5.1zM238.7 463.9c-1.6.3-1.8 2.8-2.3 4.4-1.1 3 5.7 1.7 5.6-.8-1-1.3-1.3-3.9-3.3-3.6zm16.2 114.8c1.6-4-5.2-3.7-4-.2.1 1.9 5.1 7.8 4.8 2.9-.6-.8-1.1-1.6-.8-2.7zm530.3-278.4c-1.6-1.1.4-4.2-1.7-4.4-1.3-.1-3 2.3-3.2 4.3-.5 2.9 6.1 3.5 4.9.1zM142.3 99.5c-.1 4 5.5 3.9 5.2-.3-.3-3.4-5.7-3.7-5.2.3zm426.9-19.4c1.2-.7 3.6-.3 3.3-2.8-.9-3.3-6.5-2.3-6 1.1.2 1.5 1.1 2.6 2.7 1.7zM528.4 41c.3 3.2 3.2 4.6 4.4 7.1.3.7.7 1.7 1.7 1s.7-1.8-.1-2.5c-1.9-1.7-2.7-4.1-3.8-6.3-.8-2.2-2.5-2.2-2.2.7zM666.9 6.3c3.7 0 3.9-5.6-.1-3.9-4.6-.7-4.3 4.1.1 3.9zM349.7 553c-7.9 10-2.1 10.6 1.9.7-.3-1.1-1.1-1.6-1.9-.7zm247.2-123.3c-.9.1-.7 1-.6 1.6.9 2.3.5 8.8 3 9.4 1.3.1-.9-11.3-2.4-11zm180.4-166.5c.3 4.2 5.8-6 6.8-7-.2-.4-.3-.9-.5-.9-3 .5-4.2 5.7-6.3 7.9zM260.1 456.4c-.7 1 1.2 6.3 2.3 4.6 0-2.8.9-5.4 2.1-7.8-.7-2.5-4.2 1.9-4.4 3.2zm-151 95.2c-8.1 9-2.9 13.3 1.1 1-.1-.8-.5-1.8-1.1-1zM567.6 94.1c.5-1.5 2.3-4.2.5-4.6-2.7-.7-3.6 6.7-2.5 8.5 1.8-.9 1.5-2.7 2-3.9zm-369.2 304c-2.2.4-4.4 6.3-1 6 2.5-.2 4.1-6.3 1-6zm12.8 13.5c-.6 1.5-7.7 9.2-5.2 9.4 1.3 0 7.1-8 6.8-9.3-.3-1.5-1.2-.6-1.6-.1zm285 101.2c2.2 6.4 7.6-3.2 2.1-3.3-1.7.3-2.4 1.7-2.1 3.3zm-316.9 49.6c-2.3 1.4-2.5 3.9-3 6.2-.1.5.2 1.3 1.2 1 2.4-1.3 2.3-3.7 2.7-5.9.1-.6-.3-1.6-.9-1.3zM643.7 45.2c-.3-.6-.6-1.1-.8-1.5-1.6.9-4.2 8.8-3.8 10.6 2.4-2.2 3-6.3 4.6-9.1z"/>
    <path d="M686.3 30.6c2.3.4.4-9.7-.8-8.9-1.8.2-.3 3.1-1 4.8.9 1.3.2 4 1.8 4.1zM482.5 455.4c-1.2.4-2.9 1.4-2.4 2.7.5 1.5 2.2 2.6 3.3 3.8.8-1 1.7-7.5-.9-6.5zm-256.2 29.9c2-1.5 3-3.4 3.8-5.3.1-4.2-7.5 3.6-3.8 5.3zm36.9 104.1c-2.7.1-2.8 5.4 0 5.1 2.9-.3 2.6-5.4 0-5.1zm-66.5-201.9c-1.4.6-3.9 6-1.3 5.8 2.5-.1 4-5.3 1.3-5.8zm449.2 63.6c0 .2.1.4.2.5l2-2.6c-1.2.3-2.4.7-2.2 2.1zM388.4 558.7c-2.7.2-2.6 5.3.4 4.9 3 0 2.3-5.2-.4-4.9zm-122-89.8c-4.2-6.4-10.4-3.3-.8 1.4 1 .5.7-.8.8-1.4zm110.9 62.8c-2.7 0-2.6 5.5.3 4.9 2.4-.3 2.3-5.1-.3-4.9zm415.9-145.8c.1-.5.2-.9.4-1.5-2-1.7-2.8-4.5-5.5-5.4-.3 2.3 2.7 5.9 5.1 6.9zm-507.9 97.8c1.9-.3 2.1-4.7-.4-4.7-2.5.2-2.2 5.3.4 4.7zm-25.2 42c-.2 3.2 4.2 1.8 3.7-.9-.3-2.8-4.2-1.6-3.7.9zm592.7-302.3c-1.3-1.6-3.5-1.1-5.2-1.8-.7-.3-1.7.1-1.5.5.8 2.2 3.1 1.7 4.8 2.4.7.3 1.6.2 1.9-1.1zM637 444.6c-1.4.7-2.9 5.4-.1 5.5 2.4-.2.3-2.5 1.3-3.3 0-1.1 0-2.7-1.2-2.2zm-507.4 73.7c-1.2.1-1.5 1.1-2 1.9-5.9 9.5.7 4.3 2.5-1.2-.2-.3-.4-.8-.5-.7zm32.3 11.8c-1.1 1.8-5.6 5.7-2.6 7 .3-1.1 5.2-8 2.6-7zm431.9-129c-.1 1.1-.2 2.2-.4 3.4.9 1.2-.2 3.5 2.1 3.9 1.6-.7-.4-6.3-1.7-7.3zm-384.3-.5c-.2-2.6-4.1-1.6-3.7.7 0 2.7 3.6 1.2 3.7-.7zm493-319.9c0-.3-.1-.6-.1-.9-2.1.6-3.4 4.6-3.6 6.7 1.5.6 2.7-4.5 3.7-5.8zm108.8 225.8c-.4-1.2-5.1-3.6-4.5-1.2.4 1.7 4.3 3.8 4.5 1.2zM487.7 440.1c-2.2-.1-2.1 4.1.3 4 2-.3 1.3-3.9-.3-4zm263-335.1c.7.7-.3 2.8 1.5 2.4 1.6-.4.5-1.9.5-2.9 0-.9.4-2.4-1-2.3-1.6.1-1 1.7-1 2.8zM252.6 590c-2 .5-1.4 4.1.7 3.7 2.4-.7 1.8-4.5-.7-3.7zM750.8 95.2c1.5-.4.3-1.9.5-2.9-.2-.9.3-2.4-1.1-2.2-1.4.2-1.2 1.8-.9 2.8.4.7-.3 2.7 1.5 2.3zm23.7 270.2c-1.9 1.5 1.5 3.1 2.9 3.1 2-.6-1.4-3.5-2.9-3.1zm-747 135.1c-2.1.2-4.8 3.4-1 3.3 1.9.2 3.7-3.9 1-3.3zm574.4-99.1c-1.8.6-1 2.6-1.5 3.9-.3.7 0 1.6.8 1.3 1.8-.6 1.4-2.4 1.5-3.9-.3-.4 0-1.6-.8-1.3zm21.5-2.8c-.7-.3-1.3-.2-1.3.9 1.4.8 5 4.5 4.9.6-.5-2.2-2.4-1-3.6-1.5zm199.8-181.9c-.1-1.2-3.2-7.1-3.6-4.1 1.1 1.2 1.9 5.5 3.6 4.1zM634.7 50.4c.2-1 .9-2.6-.7-2.8-1.2-.1-.8 1.5-1 2.5-.3 1.3-.8 2.5.3 4.1.5-1.4 1.1-2.6 1.4-3.8zM245.2 583c-3.6 2.4 1.9 5.5 1.8 1.2-.5-.7-.9-1.8-1.8-1.2zM821 331.1c1.9-.6-.4-4.3-2.1-4-2.2.5.7 4.2 2.1 4zM318.3 507.9c-2.5.3 0 3.6 1.3 4 2.2-.3.6-4.2-1.3-4zm-83.4 69.5c-2 0-2.5 3.5-.2 3.6 2.1-.1 2.4-3.6.2-3.6zM98 459.7c-1.7-.1-4.6 3.1-1.7 3.5 1.2-.4 3.7-2.6 1.7-3.5zm380 56.6c0-3.1-3-.1-3 1.4.2 3.2 3.6.6 3-1.4zm-13.6 1.4c-1.3-.9 0-3.4-1.9-3.8-.9-.2-.3 1.2-.1 1.9.4 1.3-.1 3.1 1.6 3.6.7.1.8-.9.4-1.7zm38.6-60.3c-1 .6-1.7 1.6-1.3 2.9 1.9 2.4 4.2-3.6 1.3-2.9zM463.9 50c1.8.1 1.5-3.9-.7-3.2-1.8.6-1 3.2.7 3.2zm340.2 162.6c2.2-.1 2.2-3.1-.2-2.6-2.2-.2-1.9 2.9.2 2.6zm-18.7 100.1c.2-2.3-2.9-1.9-2.7.2 0 2.2 3.1 1.9 2.7-.2zm-613.9 88.9c.1-1.7-3.2-1.2-3.7.1.1 1.8 3.4 1.3 3.7-.1zM67.4 495.9c-.8.5-1.6 1.1-1.5 2.2 1 3.5 5.2-3.6 1.5-2.2zm278 71.1c1.6-.6 1.9-3.3.1-3.4-2.1.4-1.7 2.7-.1 3.4zM895 161.5c.5.1 1.6.2 1.3-.8-.4-1.1-1.6-.7-2.5-.8-.7.1-1.6.2-1.3 1 .4 1.2 1.6.5 2.5.6zm-722.6 320c1.5-.3 2.7-3 .2-2.6-1.9.1-2.7 3.1-.2 2.6zm48.2-52.5c0-2.3-2.8-1.9-2.9.2-.3 2.3 2.7 1.6 2.9-.2zm-26 164.6c-1.4-.2-2.2 4.4-.7 4.1 1.5-.1 2.1-4 .7-4.1zm294.1-197.4c.2.1.7-.3 1.3-.7-4.4-3.4-7.1-2.4-1.3.7zM910 285.4c1.7-.8-1.1-2.4-2.2-3.1-.3 1.5.7 3 2.2 3.1zm-781.4 89.8c.7-.6 3.1-3 .7-2.9-.4.5-2.7 3.1-.7 2.9zM696.8 16.8c-1.7.4-.9 3.2.8 2.9 2-.4 1.1-3.6-.8-2.9zM491.9 479.2c-.1.2.4.6.7.9 1.3-1.2 1.4-2.8 1.8-4.5l-.6-1.2c-1.7 1.2-1.3 3.2-1.9 4.8zm136.5-63.8c-.9-.3-.5.9-.3 1.4.7 5.6 4.4 1.1.3-1.4zm9.1 5.7c-2.8 2.9 1.2 4.5 1.4 1.2-.1-.6-.2-1.3-1.4-1.2zm-186.6 7.2c-.4-1.9-2.9-.7-2.7.9.3 1.6 3.3.7 2.7-.9zM688.3 37.5c-.2-.7-.5-1.4-1-2.9-2.6 5.1 1.6 5.4 1 2.9zM482.2 414.7c-1.8.1-2.5 3.1.1 2.4 1-.6 2.2-2.7-.1-2.4zM800.1 219c2 .2 1.5-1.8 0-2.2-2.1-.5-1.9 2.1 0 2.2zM183.5 110.1c1.5-.1 1.3-2.8-.2-2.8-1.8.2-1.7 3.1.2 2.8zm77.1 459.1c-1.3.2-1.7 2.2-.4 2.7 1.6.4 2.1-2.8.4-2.7zM797.5 288c.1 1.9 2.1 1.6 2.9.5.2-2-2.9-2.3-2.9-.5zM572.2 105.9c0 .6-.1 1.7.6 1.4 1.1-.1 1.6-4.9.2-4.5-1.4.6-.7 2-.8 3.1zm-88.3 299.4c-.7 1.1-2 3 .2 3.2 1.7-.7 1.1-2.4-.2-3.2zM249 103.8c2.1 0 1-3.1-.7-3-1.6.5-.7 3.2.7 3zm635.3 236.4c.2-.3.9-.6 1-1.1-.2-3.1-4.8 1.1-1 1.1zM451.8 488.8c-4 1.2-.9 5 .9.8-.3-.3-.6-.8-.9-.8zm-220.2-25.1c-.7.8-1.6 1.5-.2 2.3.5-.6 1-1.1 1.7-1.9-.8-.2-1.3-.5-1.5-.4zm44.6 40.2c.2-3.3-4.6 1.3-.9 1.3.2-.3.8-.8.9-1.3zM672 19.9c-.7-.6-1.4-1.3-2.1-1.7-2.1-.3 1.9 5.6 2.1 1.7zm186.1 179.9c-1.3.4-2.9 3-.5 2.3 1.9 0 3.1-3.2.5-2.3zM479.6 441.5c.5 1.1 3.6 4.6 2 1 .2-.2-1.6-3-2-1zm322.8-33.4c1-1.2-.6-1.6-1.3-2.4-1.2 1.1-.4 2.5 1.3 2.4zm-2-184c.6 1.8 1.8.2 3-.4-1.1-1.6-2.5-1.2-3 .4zm30.1-66c.2.5.8.9 1.2 1.3 1.1-1 1.2-1.8 0-2.7-1 .2-1.5.7-1.2 1.4zM365.3 436.8c.4-.4 1-1 1.4-1.7.3-.8-.5-.7-.9-.7-1.3-.1-2.6 2.7-.5 2.4zm95.1 67.6c-1.1.8-.4 1.9.6 2.4.1-.7.8-2.6-.6-2.4zm32.5-16.3c-.3-.5-.6-.8-.8-1.2-.4.9-.9 1.7-1.2 2.6-.3 2.8 1.8-.1 2-1.4zm-396.6 61c1 0 1.2-.8 1.4-1.8-1.2-1.8-3.4 1.3-1.4 1.8zm703.8-209.4c-.3-1-2.2-2.3-2.4-.6.1 1.5 1.8 2.8 2.4.6zM457.3 483.4c-3.3 1 1.7 3.4 1.1.5-.1-.3-.8-.4-1.1-.5zm317.8-159.3c-1.5.4-.8 1.9.7 1.5.7-.8.2-1.5-.7-1.5zm6.6-18.5c-.8-2.2-3.4 0-1.4 1.1.7.2 1.2-.2 1.4-1.1zm111-20.2c-.2.7-.5 1.1-.5 1.5.9 2.5 3 .2.5-1.5zm-767 117.9c-.4.4-.9.8-1.2 1.4-.1.2.3.7.6 1.3.9-1.2 1.8-1.7.6-2.7zm692.5-196.4c-.3-.2-.8-.6-1.3-1-.9 1.7 2 3.7 1.3 1zm-171-173c-.3-.4-.4-.6-.6-.9-.5.8-1.4 1.3-.6 2.2.4-.4.8-.9 1.2-1.3zM616.5 58c.3 0 .7-.4 1.2-.8-1.7-1.9-4 .4-1.2.8zm-83.1 29.3c.3-.1.5-.6.6-.8.3-1.9-2.3-2.2-1.9-.3.2.5.4 1.3 1.3 1.1zM140.1 438.1c-.6 1.5 1.5.5 2.1.1-.4-1.4-1.4-.6-2.1-.1zm-5.7-1.7c-2.5 1.3-1.1 2.9.7 1 .1-.9-.3-1.2-.7-1zM790 284.1c-2 1.2.4 2.7 1.5 1.1-.2-1-.8-1.3-1.5-1.1zM490.1 493.2c-.7.6-.7 1.4-.1 2.1.3-.5.7-1 .9-1.3 0-.8-.4-1.1-.8-.8zm18-55.1c-1.3-.2-1.1 2.1.2 2.2 1-.5 1.1-1.8-.2-2.2zm-307.4-59.7c-.2.4-.7.8-.9 1.4 0 2.2 3.6-1.4.9-1.4zM84.2 432.3c-.1.4-.3.8-.4 1.2 1.4.9 2.3-.8.4-1.2zm269.6 18.6c0-.4-.3-.8-.7-1.6-.7 1.4-.8 1.7-1 2.1.8.6 1.6.5 1.7-.5zm18.5 67.1c.3-.3.6-.6 1.2-1-.6-.3-1-.6-1.4-.6-.9.3-.3 1.1.2 1.6zM93.6 476.6c-.2.4-.7.9-.8 1.4 0 2.5 3.7-1.9.8-1.4zm456.7-95.4c-.2-.1-.8-.1-.8 0-.6 1.2 1 1.3 1.3 2.2 0-.8.4-1.7-.5-2.2zm.5 2.3s-.1.2 0 0zm-366.3 13.8c.4-.1.8-.2 1.3-.4-.2-.4-.4-.7-.5-.9-.6.3-1.5.6-.8 1.3zm331.1 37.4c-.3 1.5-.5 1.9-.4 2.2.3.4 1.5.5 1.4-.5-.2-.4-.5-.8-1-1.7zm-379-46.9c-.2.4-.6.9-.6 1.4.1 2.1 3.2-1.8.6-1.4zm307 113c-.1-.4-.4-.8-.9-1.9-.4 1.6-.5 2.1-.7 2.5.8.2 1.7.5 1.6-.6zm315.3-102.1c.2 1.9 1.2 1.2 2.9-.5-1.4-.1-2.3-.4-2.9.5zM56.2 378.1c-.1.3-.2.7-.4 1.1.7.2 1.6.5 1.5-.6-.1-.5-.4-.9-1.1-.5zm732.9-88.2c.4-.2.7-.4.9-.6.1-.8-.3-1.1-.9-1.1-.9.3-.4 1.1 0 1.7zM650 427c.1.4.3.7.5 1.1.3-.2.7-.4 1.3-.8-.8-.5-1.3-1.1-1.8-.3zm172.6-149.4c-.8.7.2 1.1.8 1.5.1-.3.2-.6.3-.8-.3-.6-.6-1-1.1-.7zM82 584.7c-.5.5-1.4 1.1-.4 1.6 1.2.2 1.7-1.2.4-1.6zM50.3 447.5c-.1.3.4.6.7 1.1 1.9-1.4.4-2.8-.7-1.1zm741.6-179.4c-.3.3-.7.5-1 .8l.6.6c.7-.4.8-.7.4-1.4zm-34.1 102.5c.3-.9.6-1.2-.6-1.5 0 .5-.1.9-.1 1.2 0 .1.4.2.7.3zM127.3 604.1c-1.1.3-.5 1-.1 1.6.3-.2.7-.5.9-.6.1-.8-.2-1.1-.8-1zm26.1-92.3c-.2 1.4 1.5.4 2.4.1-.9-.9-1.7-1.1-2.4-.1zM665 25.7c.3-.1.4-.7.7-1.3-2-1.7-3 1.8-.7 1.3zm123.1 197.9c-.3-.1-.5-.2-.9-.4-.2.4-.3.8-.5 1.2 1 .6 1.1-.1 1.4-.8zM95.9 78.4c1.4.3.7-1.2-.1-1.8-1.2.9-.8 1.3.1 1.8zm702.8 235.3c-.6-.1-1.5-.5-1.4.5.3.3.7.4 1.1.6.1-.3.1-.6.3-1.1zm-17.3 63.5c.1-.2.3-.4.4-.6-.3-.1-.6-.2-.9-.4-.1.1-.2.4-.2.4.2.3.5.5.7.6zM494 391.5c.1-.2.2-.4.3-.7-.5-.4-.7.1-1.1.4.3.1.6.2.8.3zM681.1 12.1c.2.3.5.5.7.8.2-.2.3-.4.5-.6-.3-.7-.6-.7-1.2-.2zM465 525c.1.4.3.8.4 1.2 1-.4.4-1 .2-1.8-.3.3-.7.5-.6.6zm-.4 23c-.3 0-.5.2-.8.3.2.3.4.6.6.8.2-.2.4-.4.7-.5-.2-.2-.4-.5-.5-.6zM619.9 28.3c.1-.2.3-.5.5-.8-1.6-1.2-2.2 0-.5.8zM241.1 460.1c-.2-.1-.6-.4-.7-.3-.5.6-1 1-.1 1.6.3-.6.6-1 .8-1.3zm404.6-44.3c-.4 0-.7.3-1.1.4.4.9.9.6 1.7.4-.2-.4-.4-.9-.6-.8zm-224.5-28.3c.1.4.3.7.4 1.1l.6-.6c-.1-.3-.2-.6-.3-.8-.3 0-.8.2-.7.3zM50.3 470.1c.1.2.3.6.4.6.2 0 .5-.2.8-.3-.1-.2-.3-.5-.4-.7-.3.1-.6.3-.8.4zM638.5 58.9c-.1-.3-.2-.5-.3-.8-1.1.2-.6.7-.4 1.5l.7-.7zm-126.3 42.7c-.3.2-.6.4-.9.7-.1.1.3.4.4.7.8-.3.9-.7.5-1.4zM84.7 582.8c.8.8 1-.1 1.6-.6-1-.8-1.1-.1-1.6.6zM594.7 78c.5-.2.1-.6 0-.9-.1.3-.5.8 0 .9zm4.1 347.2c.1-.3-.2-.5-.5-.4-.3.4.2 1.2.5.4zm218.4-132.8c-.5-.1-.9-.4-1.2.1.2.1.4.4.6.4.2-.1.3-.3.6-.5zm-33.5 46.1c.5-.6.6-.9-.1-1.4-.6.6-.5.9.1 1.4zm-282.1-294c-.1 0-.2-.1-.4-.1-.3.2-.3.4 0 .6.1-.2.2-.3.4-.5zm285.7 229c.4.5.7.4 1-.2-.5 0-1-.4-1 .2zM517.1 41.4c.1-.2.2-.5.3-.7-.1-.1-.3-.1-.4-.2-.1.4-.4.7.1.9zm130.8 393c.3-.3.2-.5-.1-.7-.2.3-.2.5.1.7z"/>
    <path d="M550.7 383.7c.1-.1 0-.3 0-.4v.4z"/>
    <path d="M550.7 383.7c.7.1 1.4.1 2.1.2v-.5l-2.1.3.1-.2c.1 0 0 .1-.1.2zM681.4 7.6c.2 0 .5-.2.7-.4-.4-.7-.7-.5-1.2-.1.2.2.3.5.5.5zm-521 560.9c0 .1.2.2.3.3.1-.3.2-.5.3-.8l-.3-.3c-.1.3-.3.5-.3.8zm612.1-344.9c.9.1 1-.5.1-.7 0 .2-.1.4-.1.7zm109.3-13.7-.3-.3c-.3.1-.5.3-.7.4.3.6.6.1 1-.1zM769.1 403.5l-.2-.3-.1.3zm34-108.2c.3-.2.3-.5-.1-.6-.3.1-.2.4.1.6zM761 371l.3.2v-.3zm14.1-116.2c0 .1-.1.2-.1.3h.6c-.1-.3-.2-.4-.5-.3z"/>
    <path d="m721.2 393.5-.1-.1v.1h.1v-.2s-.1 0-.1.1l.1.1zm-297.3-7.9c0-.1.1-.1.1-.2-.1 0-.1.1-.1.2-.1-.1 0 0 0 0zM268.8 431h-.1.1zm-.5-.6c.2.2.3.4.5.6-.2-.2-.4-.4-.5-.6zm171.5-39.1s.1 0 .1-.1c0 .1-.1.1-.1.1zm85.2-3c-.1 0-.2 0-.3.1.1 0 .2-.1.3-.1zm2.9 4 .1-.1-.1-.1v.2zm-263.9 42v-.1.1zm.2 1.3c.1 0 .1.1.2.1s.2.1.3.1l.2-.2-.9-1.2c-.2.5-.2.9.2 1.2zm517.1-140.7s0 .1 0 0c.1.1.1.1 0 0 .1.1.1.1 0 0 .1 0 .1-.1.1-.1 0 .1-.1.1-.1.1z" class="st2"/>
    <path d="M781.1 295c.1 0 .2-.1.2-.1-.2-.3-.3-.3-.2.1zm-278 107.9h.1c0-.1 0-.1-.1-.2.1 0 0 .2 0 .2z" class="st2"/>
    <path d="m503.3 403 .2-.1c-.1 0-.2-.1-.3-.1.1.1.1.2.1.2zm-234.7 27.9c-.1-.1-.1-.2-.2-.3 0 0-.1 0-.1.1l-.2.2c.2.1.5.1.7.2l-.2-.2zm-4.8 3.5h.2l.1-.2c-.1.1-.2.1-.3.2zm-.2 0c-.1 0-.2.1-.2.3.1-.1.2-.1.2-.3h.2-.2z" class="st2"/>
    <path d="M531.7 411.8c-.2-2-1-3.7-2.5-4.8-14.7-11.2-26.2 10.2-12.6 19.1v-14.3h15.1z"/>
    <path d="M686 210.9c4.2-1.4 3.5-8.9.4-10.8-6.7 1.7.8 5.8-1.7 8.2-.4.5 0 3.1 1.3 2.6zm-5.2-15.9c0 1.5.1 4.2 1.7 3.9 1.3-.3.3-3.1.2-4.8-.1-1.5-1.5-2.1-2.3-3.1-2.3-2.1-2.6-6.7-6.3-7-1.1.1-.8 1.3-.5 2.2.7 4.4 6.6 4.5 7.2 8.8zm27.6-21.1c.2-.2-.1-.7-.1-1.1-.8.5-1.6.9-2.4 1.4.9.5 1.8.7 2.5-.3z" class="st4"/>
    <path d="M681.4 183.9c3.2 1.4 3.1 1.5 1.3 4.6-.7 2.5 4.1 4.7 5.9 5.9 8.1 5.4-6.9 10.1 10.4 12.4 6.8 1.5 8-1.6 7.3-6.7 3.2-2.4.4-4.6 0-6.9-.4-2.2-.9-5.4.2-6.6 6.7-6.7-.3-6.2-.6-12.3-2.9 1.5-7.6 1.1-6.8 6.5-.7 1.4-1.9.8-2-.7-.6-1.4.4-4.5-1.6-3.9-4.8 2.4-16-3.9-18.2-.4-2.8 4.3.4 5.9 4.1 8.1zm20.2 17.9c-.1-.7.3-1.2 1.2-1.4.2.1.6.4.9.6-.6.4-1.4 1.7-2.1.8zm4.5-3.9c-.3 2.7-3.8-.8-4.9-1.4-.8-2.5 4.1 1.2 4.9 1.4zm-3.7-14.8c-.2 1.4-1.7.2-1.7-.6.4-1.4 2-.7 1.7.6zm-36.8 4.2c-.6.2-.9.4-.2.9.1-.2.3-.5.4-.7l-.2-.2.2.2c1-.5 1.1-1.3.6-2.1-.9.2-1 1-.8 1.9zm2.5-11.3c1.7-2.2 1.5-5 2.5-7.4.5-1.2-.2-1.8-2.3-1.7-.9.8-2.3 2.1-3.6 3.4 1.7 1.6 3.4 3.1 3.4 5.7zm-1.7 9.2c0 .1.1.1 0 0 .1.1 0 .1 0 0zm-291.4-47c.7-.9.2-1.5-.1-1.3-4.3 1.4-9.1-1.8-4.3 4.7 4.7 7.8 3.3 2.1 7.4 2.4 1.5-3.6-6.6-2.3-3-5.8zM503.3 403l.2-.1c-.1 0-.2-.1-.3-.1.1.1.1.2.1.2zm204.6-243c0-1.5-2.9-2-3.1-.2.7.4 1.6.8 2.4 1.1.7.3.7-.4.7-.9z" class="st4"/>
    <path d="M503.1 402.9h.1c0-.1 0-.1-.1-.2.1 0 0 .2 0 .2zm176.4-232.3c-1.4.5-.7 1.3-.3 2.1 1.8-.1.9-1.3.3-2.1zm-292 222.2c-.6.6-2.6 3.3-.5 3 1.4-.2 2.3-3.5.5-3zm75.7-192.3s0-.1 0 0c0-.1 0-.1 0 0 0-.2.1-.2-.1-.3-.2-.5-.3-1.2-1.2-.9h-.1c.1.9.6 1.1 1.4 1.2zm-1.4-1.3c-.2-.3-.3-.7-.5-1-.2.5-.1.9.5 1zm43.8 17c.2 0 .4-.6.8-1.3-.8-.2-1.4-.4-1.9-.6-.4 1-.1 1.8 1.1 1.9zm96.6 174.5c1.7.6 1.6-1.1 2.3-1.9 1.4-1.8 1.2-3.7 1-6 .9-2.8-7.8-11.4-6.6-4.6.1 1.1.7 2.2.9 3.3.4 2.1 3.5 3.9.8 6.5-.5.5.4 2.3 1.6 2.7zm65.7-207.2c-1.2-.8-1.7.8-1.3 1.7 1.1.1 1.3-.7 1.3-1.7zm-209.5-62.9c-.4-.1 0-1.5-1.1-.8-.5.3-.8 1-.8 1.6-.3 2.4 2.5 1.3 1.9-.8zm-112.2 44.9c.8-1.5 1.6-2 3.4-.5 1 .8 1.9-1.3 2.6-2.2 2.4-4.8-7.5 1.3-8.8-14.2 2 2 3.2-1.5-.1-.1.4 2.5-4.1 1.1-3 2.7 2.8 4.3-.4 8.3.4 12.4.2 2.5 4.2 4.7 5.5 1.9zm298.5 232.2c1-3.1.5-6.1-1.1-8.9-1-1.7 0-5.5-2.6-5-1.4.3-.2 4 1.1 6.1.8 1.2 1.5 3.5-.9 3-1.5-.3-4.6-.9-4.5-3.5 2.1-7.3-10.2-.1 8 8.3zm7.5-4.7c.2-3.4-2.9-3-3.9-.1-3.4 6.4-1.3 13.2 5.3 17v.1-.1c1-3.2 4.4.1 1.2 1 .1 2 3.3 3.2 4 1.5-1.4-2-.1-5.2-3-6.3-1.2-.5-2.7-1-1.9-2.1 3-4.5-1.2-7.4-1.7-11zm11.6-226.9c.6-1.1.9-2.1-.7-2.6-.6.8-1 3.7.7 2.6zM649 384.2c-.5-1.2.2-3.1-1.9-3.5-.1 1-.4 2.1-.3 3.1.1 1.1 0 2.7 1.4 2.7s.8-1.4.8-2.3zm11 33.7c.4-1-.1-3-1.9-2.6-.5 1.2.5 2.9 1.9 2.6zM250.4 178.8c-.5.3-.1.6.1 1 .1-.5.4-.8-.1-1zM781.1 295c.1 0 .2-.1.2-.1-.2-.3-.3-.3-.2.1zm-30.5-110.4c0-.2 0-.5.1-.7-.2.1-.3.3-.5.4.1.1.2.2.4.3zm-285.5-65.3c-.1-3.8-4.1-.3-3.7 1.8.5 3.7 3.8.1 3.7-1.8zm282.4 52.8c6.5 3 .4 6.9 3.2 11.6 8.3-.4 5.2-3.7 2.5-8.3 1.3-5.2-1.1-5.7-5.2-4.4-.5.2-1.1-1.1-1.6-.1-.3.9.6.9 1.1 1.2zm-434.5-7c.2-.1.3-.3.5-.4-.2-.2-.3-.5-.5-.7-.5.3-.2.7 0 1.1zm-176.3 94.5c.6.1.8-.4.7-1.2-2.2-.7-4 .7-.7 1.2zM268.8 431c8.3-1 0 4.2 3.1 4.8 1 .1 2.6.8 2.6-1.1 1.2-4.9-7.5-9.5-5.7-3.7zm487.9-89.5zm-493.1 92.9c-.1 0-.2.1-.2.3.1-.1.2-.1.2-.3.1 0 .2-.1.3-.1l.1-.2c-.1 0-.1.1-.2.1 0 .2-.1.2-.2.2zm.4-.1v-.1.1zm463.5-234.8s0-.1 0 0c.3-.4.5-.7.8-1 0 0 0-.1.1-.1l.1-.1c-.4.4-.7.8-1 1.2-.1 0-.1 0 0 0zM163.4 342.4c-2.3-.3-5.6 6.7-2.9 6.4 2.3-1.2 3.1-3.7 4.3-5.6-.1-1.2-.7-1-1.4-.8zm84.4 77.7c2.7-3.7-3.6-5.4-2 2.6-1 1.1.8 2.1.6 3-.8 2.9 1.3 2.8 2.9 3.2 1.3.4 1.6-.4 1.9-1.6 2-5.8-6.2-2.3-3.4-7.2zm28.1-218c2.4-.6 2.9-4.8.9-5.6-.6 1.4-3.7 5.3-.9 5.6zm148 183.5c0-.1.1-.1.1-.2-.1 0-.1.1-.1.2-.1-.1 0 0 0 0zm-252.1-43.1c-.3.4-.9.9-1.2.8-1.7-.7 1.6-2.9-.5-3.5-6 4.8-11.2 17.1.3 18.7 1.4.1 2.6.1 3.6 1.2 5.9 6.3 1.8-4.2 5.9-6 3.5-4.8-3.8-9.6-3.9-14.7-1.3-1.9-3.2 2.6-4.2 3.5zm1.3 1.1c.4.2.6.3.8.5-.6 2.1-2.4 1.1-.8-.5zm-7.2 5.6c-.4.1-1.1-.1-.6-.8.6-.6 2.4-3.6 2.8-1.5-.4 1-.9 2.1-2.2 2.3zm3.8 4.5c-5 1-1.6-4.5 1.6-4.2 1.2-.2 2.8.1 2.8 1.3 0 2.8-2.6 2.4-4.4 2.9z" class="st4"/>
    <path d="M268.3 430.4c.2.2.3.4.5.6-.1 0-.2-.1-.2-.1-.1-.1-.1-.2-.2-.3 0 0-.1 0-.1.1l-.2.2c.2 0 .5.1.7.2 0 0 .1.1.1 0-.3-.3-.5-.5-.6-.7zm-8-7.8c.9.5 1.2-.3 1.2-.9 0-.9-.4-1.7-.6-2.6-1.7.2-1.9 2.9-.6 3.5zm-8-5.3c-1.7.7.4 1.7 1 2.2.7-1.1-.3-1.6-1-2.2zm-61.9-62.7c1.2.1 2.2-.4 2.7-1.5-.2-1.6-3 .1-2.7 1.5zm92.7-156.9c2.5-1.8 3.1-5 4.5-7.4-2.9-8.1-12.8 8.8-4.5 7.4zm-92.8 157-1.2.3c.4.9 1.3.6 1.2-.3zm51.8 72.8c0 .1-.1.2-.1.3h.6c-.2-.3-.3-.4-.5-.3zm-46-76.7c.6-.3.8-.9.6-1.7-.5-2.2-2.8 2.5-.6 1.7zm529 37.6c-2.6.1-3.6-3.9-5.4-2.5-3.2 2.5 1.8 4.6 1.5 7.5 1.3-.6 2.6-1.2 3.7-2 1.3-.9 1.6-3.1.2-3zm-15.4 1.1c.6-.1 1.2-.1 1.8-.2-.4-1.3-1.7-1-1.8.2zm-19 12.2c.3.1.5.2.8.3.1-.3.2-.5.2-.8-.2-.1-.5-.1-.7-.2-.2.2-.2.5-.3.7zm79.7-136.8c.4-.5.4-.7-.2-1.1-.1.5-.4.9.2 1.1zM580.8 408.5c-1.1-2.2-3.9-30.8-7.4-21.6-2.2 2.4-.2 7.8-5.6 7.8-.1 4.1 1 10.7 1.4 17.1h12.9c-.6-.3-1.1-1.4-1.3-3.3zm113.3-9.7c.5.1 1 .2 1.5.4-.2-.5-.4-.9-.6-1.4-.3.2-.6.6-.9 1zm-32.7.2c-1.4-1.9-2-8.2-5-7.2-.4.3-.5 1.3-.3 1.8 2.4 4.8 3 9.9 3.8 15.1.2 1.2-.1 4.4 2.6 3.3 2.3-1 1.5-4.1.5-5.1-2.3-2.4 0-5.6-1.6-7.9z" class="st4"/>
    <path d="M656.5 423.8c-4.3-2.1-3.3-9.3-9.5-9.5-2.3-.8 1.6-5.1-2.3-6.8-10.5-3.4-15.7-28.7-25.1-10.3-1.3 3.5-5 2.1-4.6-1.4.4-7.5 10.8-14.7 3.6-21.7-1.3-2.1-1.4.5-1.6.8-1.5 2.2-2.8 4.5-4.1 6.7-.4.6-.2 1.9-1.5 1.3-.8-.3-.6-1.1-.2-1.7 1.5-2.7 1.5-6.3 4.3-8.3 1.3-.9 1.9-1.7.7-3.1-4.6-4.3-9.2 6.1-7.9 9.6.4 9-4.9 12.4-.2 23.1 2.8 4.9-.6 6.6-2.5 1.3-1.6-5-8-6.6-8.5-12.4-.1-1.1-1.3-.3-2-.1-3.4.4.2 7.1-1.6 7.6-2.2-.2-1.4-3.1-1.9-4.8-1.4-4.1-2.1-8.6-4-12.4-2.5 3.2.6 9.6.8 13.1-.5.8-1.5.1-2.2-.2-6.3-3.2-4 10.3-3.2 13.4.9 2.1.6 3.5 0 3.9h5.7v114.5l57.4-74.7 2-2.6 12.3-16c-1.3-2.2-2.8-4.4-4.6-6.3-1-1.3 2.7-2 .7-3zm79.3-20.3c.2 0 .3 0 .5-.1-.1-.2-.2-.5-.5.1zm2.4 1.5c-.5-.4-.9-.8-1.4-1.2 0 .6.5 1.9 1.4 1.2zm-1.4-1.2c0-.1-.1-.3-.1-.4l-.1.2.2.2zm-4.3-10.3.3.2v-.4zm-36.9 5.6c0 .1.1.2.1.2v.1h.1v-.2c-.1-.1-.1-.1-.2-.1zm40.9 4.4.1-.2h-.3c.1.2.1.2.2.2zm-15.3-10-.1-.1v.1h.1v-.2s-.1 0-.1.1l.1.1z" class="st4"/>
    <path d="M711.7 389.3c.5 1.4 2.8 3.1.9 4-1.2.6-1.9-2.2-3-3.6-4 1.7-3.6-6.2-8.5-.9-1.8 2.3-7.5 2.5-4.5 7.6.7 1.3 1.7 2.7-.8 3-1.3 6.7 5.8 5.1 9.7 7.4.8.6.7-1.4 1-1.6 2.6-1.3 2.1-6.3 6.5-5.6 4.7.8 7.5-1.1 7.9-6-3.2-2-4.2-10.6-9.2-4.3zm-245.5 18.8c-.3.3-.3.4 0 .7.3-.3.3-.4 0-.7zm2.8-16.6c-3.2 0-6.2-6.3-8.3-4.6-2.1 1.9-3.9 4.3-6.5.9-.7.4-1.1.7-1.6.9 2.2 2.6 5.3 1.7 2.8 6.2-1 2.1 2.9 3.9 3.5 1.6 4.1-8.2 8.8 4.7 11.2-.8.9-1.8 1.5-3.6-1.1-4.2zm-24.9-12.2c-1.9.9-6.1.6-4.8 5.3-.9 1.7.3 2.6 2.1 3.1 1 .3 2 1.2 3.1-.2.6-.7.3-3.1 1.9-2 1.6 1-.3 2.2-1 3.1-1.3 1.8.4 1.9 1.3 2.2.6.2 2.1 2.5 2-.5-.1-1.3 1.1-1.6 1.8-2.2 2.1-1.8 2.7-4.7 1-6.1-2-1.4-4.4-4.1-7.4-2.7zm-4.3 12s.1 0 .1-.1c0 .1-.1.1-.1.1zm-9.4-11.8c-1.1 3.1-4.6 3.6-6.4 6 2-.6 5.2 2.1 5.4-.6.2-2.4.3-2.8 2.3-2.6.9.1 1.6.3 1.9-.9.8-1.4-2.9-3.3-3.2-1.9zm18.7 14.5c-3.1-.7-5.3-4.7-9-2.8.1-.1.3-.1.4-.2-.2.1-.3.1-.5.2 3.1 1 6.3 3.8 9.5 3.8.4-.3.1-.9-.4-1zm323.6-160.7.4-.2-.4-.1zM525 388.3c-.1 0-.2 0-.3.1.1 0 .2-.1.3-.1zm2.5 3.2c.1.2.3.3.4.5.1-.3.2-.6-.4-.5zm.4.8.1-.1-.1-.1v.2z" class="st4"/>
    <path d="M229 275.5c-2.3 0-3.5.6-3.7 1.8.1 1.3.8 2.2 2.1 2.8.8-.4 1.4-.6 1.8-.6.7 0 1.2.5 1.3 1.5-.1.6-.8 1.1-2.3 1.4-2.2 0-3.5-1.6-3.9-4.9-1 .3-1.9 1.1-2.7 2.4-1.3 2.9-2 6.1-2 9.6 0 5.5 1.5 9.7 4.4 12.8 1.5 1.2 3 1.7 4.6 1.7 3 0 5.4-1.3 7.3-3.9 1.8-3.2 2.6-6.6 2.6-10.3 0-3.7-.8-7.2-2.5-10.4-1.8-2.7-4.2-3.9-7-3.9zm436.9-88s-.1-.1-.2-.1l.2.1zM267.7 283c0-1.8-.5-3.3-1.4-4.5-.9-1.2-2.3-1.8-4.2-1.8-1.3.2-2.6.6-4.1 1.2v11.5h1.2c2.8 0 4.9-.6 6.3-1.8 1.5-1.3 2.2-2.8 2.2-4.6zm129.8 0c0-1.8-.5-3.3-1.4-4.5-.9-1.2-2.3-1.8-4.2-1.8-1.3.2-2.6.6-4.1 1.2v11.5h1.2c2.8 0 4.9-.6 6.3-1.8 1.5-1.3 2.2-2.8 2.2-4.6zm330.7-84.5c-.2.3-.5.6-.7.9l-.1.1c.6 3.6 3.9.3.8-1zm-384.8-49.9zM90.8 193.7c2 2.1 12.1 5.6 10.6 8.3-1.7 4 .6 11.1 3.5 14.1 10.6 9.6 27.9-1.1 24.1-15.1-.1-.7-.5-2.2.2-2 5.5 1.4.5-2.6 1.8-3.2-.5-6.3-3-9.2-5.3-6.8-3.4 3.4-6.2 1.6-9.5 1.3-11.5-1.6-10.6 13.4-20.1 4.6-1.3-1-2.6-2.1-4.1-2.8-1-.5-2.1-2.6-3.2-.8-.8 1.4 1.1 1.9 2 2.4zm-8.3-13.4c-.7-7.8-15.4-17.9-22.8-15.5-6.7 2.1-10.1 10.5-5.2 14.6 4.6 3.8 4.9 6.7 1.2 10.8-1.6 1.2.3 2.7 1.4 1 2.3-2 4.4-8.1 7.3-3.3 5.5 8.5 19.9 2.2 18.1-7.6zm85.7-14.4c0 .9.9 1.8 1 .1.1-3.4 3.9-2 4.9-4.1 5.3-.7-5.1 5.9 1.6 10.1.1.1-.1 1-.4 1.2-2.1 2 .3 2 1.2 2.4 1.7.9 4.1 1.2 5.3 2.6 6.6 5.9 15.2-3.5 13.5-11 1-6.5-14.6-16.4-16-8.6-.1 1-1 1.3-1.9 1.1-1.1-.1-1.1-1.1-1.1-1.9 2.5-6.3-6.6-16-11.5-9.2-1.5 3.4-3.1 7-.2 10.7 1.5 2.2 3.6 3.8 3.6 6.6zm-131.8-4c6.5 1.9 12.7-4.4 11.6-11.3.4-7-9.9-10.7-15.1-7-4.2 2.5-6.1 9.6-4.1 14.2.4.8 3.2-.3 1.3 1.7-1 1-2 .2-2.8-.9-1.6-2-5.3.1-4.5 2.5.3 1.6 1.7 1.5 2.9 2.1 4 1.8 7.7 4 10.7-1.3zm92.1-12.6c11.3-1 9-23.2-2.5-21.7-13.3.3-9 22.5 2.5 21.7zM55.4 294.9c-5.2-.2-5.7 8.4-9.3 11.3-3 3.3-.2 6.1.7 8.7.7 2.1 3.5 3.5 6.7 2.9 6.9-1.9 14.7-22.4 1.9-22.9zm126.6-94 .1.1c0-.1-.1-.1-.1-.1 0-.1 0-.1 0 0zm-4.1.2c-1.9.6-8-3.9-7.5-6.1 1.4-6.2-3.8-6.9-7.1-9.1-1.3-.9-2.6-.7-3.1 1.1-.9 3.2-2.8 2.4-5 1.3-5.1-2.6-9-6.5-12.8-10.6-.7-.8-1.9-3.1-3.4-1.5-1.7 1.9.2 2.9 1.6 4.2 13.5 11.9 30.2 18.8 44.8 28.9.6.4 1.4 1.4 2 .2.7-2-4.8-2.5-5.5-8.7-.9-.7-1-.6-4 .3zM44.1 126.5c1.8 1.6 9.5 17.3 9.7 8.6-1.9-5.2 3.3-9.1 2.4-14.1.1-4.2-8.3-13-12.9-10.8-.4.8.5 1.5 1.2 2 4.7 2.7-5.7 7.5-.4 14.3zm41.4 83.4c-1.6-12.5-16.8-9.6-16.2 1.9 2.9 10.6 16.7 11.1 16.2-1.9zm163.3-72.2c.3.1.8.1.9 0 1.3-4.2 7.5-6.2 5.5-11.9.2-5.8-9.2-10.5-12.7-7-4.2 4.5 0 17.3 6.3 18.9zm-30.4 37.2c16.9-7.2-14.3-24.1-9.2-7.9.5 4.5 5.5 8.7 9.2 7.9zM9.3 129.7c8.5-1.2 7.2-13.9-1.4-12.5-8.6.6-7.7 13.6 1.4 12.5zm256.8-10.3c2.6 1.2 2.1 3.3 2.8 5.2 1.2 9.1 10 5.9 10-1.8-.5-5.1-3.4-7.1-8.3-5.7-4.4 1.9-3.4-4-5.5-2.6-1.2 1.2-.6 4.2 1 4.9zm32.3 3.5c-.1 3.5 4.5 7.7 8.4 5.7 7.1-3.6-1.8-15.8-6.6-14.3-4.6 1.5-.8 5.7-1.8 8.6zM75.8 365.3c1.1 8.1 10.7 8 9.9-1.1-1.8-7.9-11.3-8.1-9.9 1.1zm423.7-229.7c7.1.1 5.1-13.2-1.2-12.7-6.3.2-5 13.1 1.2 12.7zm42.9 43.3c.2-1.5 6-13 1.3-7.8-1.1-1.7-2.6-.3-3.9-.4-7.2-1.1-4.9 4.3-4.6 9.1 4 1.9 5.1 5.2 7.2-.9zm1.1-7.7s.1 0 0 0c.1-.1.2.1.2 0 0 .1-.1.1-.2 0-.2.1-.4.3-.6.4-.1-.7.3-.5.6-.4zm-8.3 8.7c-.1-.1-.2-.1-.2-.1v.1h.2zm-22.8-60c-.1-5.4-9-6.8-8.8-.6.1 6.6 9.1 9.1 8.8.6zM495.2 185c5.3-.1 3.9-9.6-.9-9.1-5 .7-3.3 9.6.9 9.1zm190.7-71.2c5.1-7.1 10.7-16.9 12.3-25.3-5.6 7-7.3 16.8-12.9 24.2-.4.6-.6 1.3.6 1.1zm88.4 216.8c.1-1.8-2.4-2.5-4.3-2.1-2.4.5-4.3 1.6-4.3 4.5.9.7 1 3.2 2.3 2.1 2-1.8 6.2-1.1 6.3-4.5zM5.7 184.4c3.6 1 8.6 5.2 11.4 2.2 1.7-3.1-16-6.4-11.4-2.2zm480-5.1c-2-.4 0-4.4-2.5-3.7-1.9.8.5 4.7-.9 6.3-3.9 4.3 3.2.9 2.2 3.1.3 0 .8 0 .9-.1.5-2.6 2-4.6 3.6-6.6-1.6-1.1-2.1 1.2-3.3 1zM127 171.1c-2.7-5.4-10.3-6.8-14.7-10.7-.4.2-.6.4-.9.6 4 4 9.4 6.6 14 10 .5.2 1.2 1 1.6.1zm220.3-51.5c3.3-.6 2.6-7.5-1.3-6.6-4 .4-2.1 7.2 1.3 6.6zm-175.1 84.7c-.6-3.5-5.7-3.6-5.5.4.1 4.4 5.3 3.7 5.5-.4zm-73.9 117c-1.8 1.1-5.5 6.3-1.2 6 2.8-.4 5.3-5.6 1.2-6zm-42.5 21.2c-1.4.2-2.6 1.2-2 2.8.8 2.5 6.5 1 6.4-1.5-1.1-1.7-2.8-1.5-4.4-1.3zm136.9-119.1c1.4.2 1.6-1.3 1.5-2.6-.9-3.7-4.3 3.5-7.1-2.2-1.2-.6-1.5 1-.8 1.7 1.4 2.6 4.1 2.7 6.4 3.1zm332.2-75.3c0-3.5-5.3-4-4.4 0-.1 3.7 4.9 4.1 4.4 0zM105.6 322.2c-.8 1.4-3.8.4-3.9 2.7-.1 1.6 1.6 1.3 2.6.9 3.2-.3 7.5-4.1 1.3-3.6zm-69.5 5.5c-3 .5-2.2 5.3.7 5 3-.1 2.5-5.6-.7-5zm495.1-197.9c2.1-1.3.6-4.2 1.1-6.3-.1-5-3.3.8-2 2.9.3 1.1-.1 3.9.9 3.4zm-374.1 18.4c2.6-.9 1.6-5.1-1-4.9-2.6.4-1.3 4.8 1 4.9zm-9.4 42.8c.6 0 .9-.2.4-1.1-1.8-.1-5.3-6.5-6.7-3.2 2.2 1.3 3.2 4.4 6.3 4.3zm395 4.4c-.4.8-1.4 1.5-.7 2.5 2.5-.2 3.4-4.6 4.9-6.3-.2-.5-.3-.8-.5-1.1-1.9 1.2-2.9 3-3.7 4.9zm-457.1 144c-2.4.4-2.4 4.9.4 4.1 2.7-.3 2.1-4.5-.4-4.1zm513.5-168.3c1.7-1.9 1.5-4.5 2.3-6.8-1.8-2.9-4.7 8-2.3 6.8zm89.7-28.6c1.9 1.9 3.9 3.8 5.8 5.7 2.2-1.2-4-6.4-5.3-6.2l-.5.5zm-74.7-1.2c1.1-1.8 1.9-3.8 2.6-5.3-.2-1.5-1.2-2.5-1.4-2-.5 1.6-3.6 6.5-1.2 7.3zM21.4 283c-.5.1-1.8.5-1.1 1 5.7 4 9.6-.7 1.1-1zm64.7-47.8c-1.2-.4-3-.8-3.6.3-.6 1.1 1 1.4 1.8 1.3 1.7-.3 3.5.9 5.2 0-.7-1.6-2.3-1.1-3.4-1.6zm128.4-115.9c.9.3.6-.8.4-1.3-3.9-7.4-6.9-1.4-.4 1.3zm350.1 29.8c1.7-1.2.8-3.4 1.4-5.1-.3-.4-.5-1.7-.9-1-.5.7-2.5 6.9-.5 6.1zM109 159.8c3.1-.5-3.9-3.8-4.7-4.6-3.1.6 3.9 3.7 4.7 4.6zm3.6 123c-1.9-4.1-5.6 2-1.5 2.3 1.2-.2 1.4-1.1 1.5-2.3zm99-95.5c2-.3-2.7-4.6-3.9-5-.8 1.8 2.2 4.6 3.9 5zm-82-8.7c1.6 1.2 3.6 3.8 5.9 3.1-.6-1.1-6.3-5.2-5.9-3.1zm-36-36.8c.7.2 1.1-.6 1.1-1.7-3.3-4.9-4.7.3-1.1 1.7zm-15.1 155c.4 1.3 1.7 1.5 2.8 1.6 4.2-.8-3.2-5.5-2.8-1.6zm450-145.4c1.4 0 2-4.3.5-4.7-.8-.2-1.3.9-1.1 1.8.2 1-.9 2.6.6 2.9zm51.8 40.8c1-.5.5-4.1-.9-3.8-1.1.7-.5 4.3.9 3.8zm-342.9-40.9c.6-.2 1.1-.6 1.3-.7-1.2-5.1-5.1.8-1.3.7zM218 134.9c.3-2.1-2.9-2.1-2.7 0-.3 2.1 2.8 2 2.7 0zm-174.7 35c.4.2.9-.1.7-1.1-4-4-5.5-.9-.7 1.1zm713.4 171.6c.3 1.9-.5 3.9.6 5.5 0 0 .7-.2.7-.4.5-1.8.6-3.7-1.1-5-.1 0-.1 0-.2-.1zM536.4 207.3c-.8.8-2.3 2.4-1.1 3.4 1.2-.2 2.8-3.7 1.1-3.4zm68-23.3c.7-.2 1.2-.9 1.7-1.3.3-3-3.5 1.1-1.7 1.3zm-48.3-3.2c-.7.6-3.1 2.8-.9 2.9 1.1-.1 2.5-3.3.9-2.9zm171.3 18.7c0 .1-.1.1 0 0l-.1.1c.1 0 .1-.1.1-.1zm.9-1 .1-.1c-.1 0-.1 0-.1.1zM90.9 310.2c-.3 0-.6.6-.9.9.5.3.9.6 1.3.9 2.1-.5 1.4-2-.4-1.8zm10.9-35.6c.2.1.6-.5.9-.7-.4-.4-.8-.8-1.3-1.2l-1 1c.4.3.8.7 1.4.9zm110.3-146.4c.5.4.8.1 1-.7-1-2.1-2.9-.8-1 .7zM45.6 164.7c.8.9 1.6 1.2 2.7 0-.9-.7-3.3-1.9-2.7 0zm158.9 16c.2.1.7-.2 1.4-.4-2.3-2.4-4.7-2.1-1.4.4zm-118.6 18c-.4-.4-2.7-1.7-2-.1.4.7 2.5 2 2 .1zm576.4-65.3c.4-1.8-3.3.2-1.8 1.9.7-.8 1.4-1.2 1.8-1.9zm-31 23.9c.3 1.3.6 1.5 2 .6-.6-.9-2.2-2.4-2-.6zm-69.8 11.1v1.8c.2 0 .4-.1.6-.1-.1-.6-.4-1.2-.6-1.7l-.4.2.4-.2zm-1.6-1.8c-1.5 1.2.6 2 1.6 1.8-.8-.4-.2-2-1.6-1.8zm1.6 1.8zm15.1 17.7c2 0 .5-1.7-.4-2.1-1.8-.1-.3 1.8.4 2.1zm-89.7 8.7c-.4-.3-.8-.8-1.1-.7-2.1 1.1.8 3.5 1.1.7zm266.2 146.6c-.2.2-.4.5-.7.8 1 .7 1.8 1.3 2.9.4-.4-.8-1.1-1.1-2.2-1.2zM654.2 170c.3-.5.7-1 .9-1.4-.1-.8-.6-.9-1-.6-.7.7-.9 1.4.1 2zM756 358.6c.3-.3.7-.5 1-.8-.3-.4-.5-.8-.7-.8-1.2-.4-.9 1.1-.3 1.6zM645.9 161c-.2-.5-.2-1.1-.8-.7-1.4 1.2.1 3.1.8.7zM74.1 236.6c.3-.2.6-.5.8-.7l-.6-.6c-.6.4-.6.7-.2 1.3zm91.7-23.2c-.3 1 .9 1.1 1.3.3-.2-.7-.8-.9-1.3-.3zm604.7 142.7c.2.3.5.6.7 1 .2-.2.4-.4.7-.6-.4-.8-.7-.9-1.4-.4zM720.7 143c-.7-.3-1-.2-1.2.6.6.2 1 .3 1.2-.6zm-7.6 1.6c.3-.3.4-.7.6-1-.3-.1-.5-.2-1-.4-.2.6-.6 1.4.4 1.4zm-146.7-5.2c.1-.2-.1-.5-.2-.7-.3.2-.7.3-1 .5.1.2.3.5.5.7.2-.1.6-.3.7-.5zm-366.1 36.8c-.1-.3-.6-.6-.9-.9-.3.2-.6.4-.8.6.4.7 1.8 1.7 1.7.3zm342.9-61c-.2.3-.5.7-.8 1.2.6.2 1 .4 1.4.4.6-.6 0-1.3-.6-1.6zm-11.8 104.5c-.2.3-.5.6-.6 1-.1 2.3 3.2-1.4.6-1zm238.1 4.1c0 .2.3.5.5.8 1.4-1.5-.6-2.6-.5-.8zM34 287.8c-.1 0-.3.4-.5.8.4.2.8.3 1.2.4.7-.7.1-1.2-.7-1.2zm71.9-13.6c-.6-1.7-2.3.5-.6.5.2 0 .4-.4.6-.5zM222 190.9c.2 0 .5-.2.8-.3-.1-.3-.3-.5-.4-.8-.5.3-1 .7-.4 1.1zm-71.3 8.2c-.1-.2-.5-.3-.7-.5-.1.3-.1.6-.2.9.2.1.5.3.7.4.1-.3.3-.6.2-.8zm156.7-38.6c.3.8.6.7 1.3.3-.2-.2-.3-.6-.6-.6-.2 0-.5.2-.7.3zM577 174l-.6-.6c-.8.4-.8.7-.3 1.4.3-.2.6-.5.9-.8zm-476-19.7c.1-.3.1-.6.2-.9-.2-.1-.5-.3-.7-.4-.4.8-.3 1.1.5 1.3zm483.4 45.6c-.1 0-.3 0-.4.1-.1.1-.1.3-.1.4.2-.1.5-.1.7-.2-.1 0-.2-.2-.2-.3zm165.7-8.1c.1.1.3 0 .4 0 0-.2-.1-.4-.1-.6-.1.1-.2.1-.3.2-.1.2-.1.3 0 .4zm-572-10.7c.1 0 .3-.4.5-.6-.2-.2-.5-.3-.7-.5-.2.2-.5.3-.7.5.3.3.6.6.9.6zm-2.3 28c-.2-.1-.4-.2-.5-.3 0 .1-.1.2-.1.4.3.3.4.3.6-.1zm38.2-87.9c-.1-.1-.2-.2-.4-.3l-.3.3c.3.4.5.4.7 0z"/>
    <path d="M705.9 174.2zm44.9 9.6c-.1-.1-.1-.1 0 0zm-87.7-20.3c0 .1 0 .1 0 0 .1 0 .1 0 .1-.1 0 .1-.1.1-.1.1zm42.8 10.7zm-39.5 11c0 .1.1.1 0 0l.1.1v-.1h-.1zM190.3 354.7c.1 0 .1 0 0 0l.1-.1h-.1v.1z" class="st2"/>
    <path d="M750.8 183.8s-.1-.1 0 0c-.1 0-.1 0-.1.1 0 0 0-.1.1-.1zm-2.6 157.9c.1-.1.2-.1.3-.2h-.2c-.1.1-.1.1-.1.2zM461.3 198.2c0-.1 0-.1.1-.2-.1-.1-.1-.2-.2-.2l-.2.2c.1 0 .2.1.3.2zm191.2-13.4-.1.1h.3c-.1 0-.2-.1-.2-.1zm103.8.7.2.3c.2-.2-.1-.2-.2-.3zm.6 69.3c.1-.2 0-.3-.1-.3l.1.3zm-29.2-56.2c-.1.1-.1.1 0 0-.1.1-.2.2-.2.3 0 0 0 .1-.1.1 0 .1-.1.3 0 .4v.1l.1-.1v-.1l.9-1.2c-.1 0-.1 0-.2.1-.1 0-.2.1-.3.1-.1.2-.2.3-.2.3zm-184.2-27.4c-.3-.1-.7-.3-.6.4.2-.1.4-.2.6-.4zm.1 0s-.1 0 0 0c0 .1.1.1.1.1l-.1-.1z" class="st2"/>
    <path d="M701.1 196.6c1.1.6 4.6 4.1 4.9 1.4-.7-.3-5.6-4-4.9-1.4zm.5 5.2c.7 1 1.5-.4 2.1-.9-.3-.2-.7-.4-.9-.6-.9.3-1.3.8-1.2 1.5zm.8-18.7c.2-1.3-1.4-2.1-1.7-.6.1.8 1.5 2 1.7.6zM171.3 349.5c-3.2-.2-6.6 5.3-1.6 4.2 1.8-.5 4.4-.1 4.4-2.9 0-1.2-1.6-1.5-2.8-1.3zm-6-1.1c-.5.7.2.8.6.8 1.3-.2 1.8-1.3 2.2-2.3-.4-2-2.2.9-2.8 1.5zm8.7-4.4c-.2-.1-.5-.3-.8-.5-1.7 1.7.1 2.7.8.5z"/>
    <path d="M205.8 269.9c-1.7 1-2.6 2.5-2.7 4.5v21.8l-17.3-22.4h-8.6v.9c.9 0 1.6.1 2.1.2.7.1 1.4.5 2 1 .4.4.7.9 1 1.8v22.1c0 2.2-.2 3.5-.6 4.1-.6.5-1.5.8-2.9.8h-1.1v1h12.9v-.9h-1.1c-1.2 0-2.2-.3-2.7-1-.4-.5-.7-1.7-.7-3.6v-19.5l20.5 25.6h.8V275c0-1.7.2-2.8.5-3.4.6-.8 1.5-1.2 2.9-1.2h1.1v-.9c-2.5-.6-4.5-.4-6.1.4zm23.9 3.2c-2.1 0-4 .8-5.7 2.3-1.5.1-2.8.6-4.1 1.4-3.5 3.1-5.3 7.1-5.3 12 0 2.4.3 4.7 1 6.7 2.8 6.8 7.3 10.2 13.2 10.2 1 0 2.2-.2 3.6-.6 3.8-1.3 6.5-3.2 8-5.7 2-3.3 3-7 3-11 0-3.6-1.5-7.3-4.5-10.9-3.2-3-6.3-4.4-9.2-4.4zm6.2 27c-1.9 2.6-4.3 3.9-7.3 3.9-1.6 0-3.1-.6-4.6-1.7-2.9-3-4.4-7.3-4.4-12.8 0-3.5.7-6.7 2-9.6.8-1.3 1.7-2.1 2.7-2.4.4 3.3 1.7 4.9 3.9 4.9 1.4-.3 2.2-.8 2.3-1.4-.2-1-.6-1.5-1.3-1.5-.4 0-1 .2-1.8.6-1.2-.5-1.9-1.5-2.1-2.8.2-1.2 1.4-1.8 3.7-1.8 2.8 0 5.2 1.3 7 3.9 1.7 3.2 2.5 6.7 2.5 10.4 0 3.6-.9 7.1-2.6 10.3zm39.6 5.5-10.1-15.4c2.4-.6 4.2-1.6 5.4-3.1 1.2-1.4 1.8-3.1 1.8-5.1 0-1.8-.6-3.4-1.8-4.8-1.2-1.4-2.8-2.3-4.7-2.8-1.9-.3-4.6.1-8.1 1.4v-1.9h-8.3v.9h1.1c1.1 0 2 .3 2.5 1 .4.5.6 1.8.6 3.7V300c0 1.8-.1 2.9-.4 3.5-.5.9-1.4 1.3-2.6 1.3h-1.1v.9h12.5v-.9h-1.2c-1.1 0-1.9-.4-2.4-1.1-.4-.5-.6-1.7-.6-3.7v-9.1h1.3c.7 0 1.3 0 1.8-.1l9.9 14.9 1.7 2c2.3 2.3 5.5 3.4 9.7 3.4l-.1-.3c-2.8-.8-5.1-2.5-6.9-5.2zm-16.2-16.3H258v-11.5c1.4-.6 2.8-1 4.1-1.2 1.9 0 3.3.6 4.2 1.8.9 1.2 1.4 2.7 1.4 4.5 0 1.8-.7 3.3-2.1 4.5-1.5 1.3-3.6 1.9-6.3 1.9zm44-16.2v.8h-24.9v-.8h-.9v8h.9c.1-1.4.4-2.5 1-3.3.6-.8 1.3-1.3 2.1-1.6.6-.2 1.7-.3 3.2-.3h3.8v33.9c0 1.4-.2 2.4-.5 2.8-.6.7-1.4 1-2.4 1h-1.2v1.1H297v-1.1h-1.1c-.9 0-1.7-.3-2.3-.9-.4-.4-.6-1.3-.6-2.9v-33.9h4.5c1.3 0 2.4.2 3.2.6.8.4 1.4 1.1 1.9 1.9.3.5.6 1.5.7 2.7h.9v-8h-.9zm23.8 1.6h1c.6 0 1.2.2 1.8.6.4.3.8.6.9 1 .2.5.2 1.6.2 3.2v9.1h-12.9v-9.1c0-1.6.1-2.6.3-3.1.2-.5.5-.9.9-1.2.6-.4 1.2-.5 1.9-.5h1v-.9h-11.9v.9h1c.7 0 1.3.2 1.9.6.4.3.7.6.8 1 .2.5.3 1.6.3 3.2v9.1h-3.8v1.8h3.8v9.6c0 1.9-.2 3.1-.5 3.6-.5.8-1.3 1.2-2.5 1.2h-1v.9h11.9v-.9h-1c-.7 0-1.3-.2-1.9-.6-.4-.3-.7-.6-.9-1-.2-.5-.3-1.6-.3-3.2v-9.6H331v9.6c0 1.9-.2 3.1-.5 3.6-.5.8-1.3 1.2-2.4 1.2h-1v.9H339v-.9h-1c-.6 0-1.3-.2-1.9-.6-.4-.3-.7-.6-.8-1-.2-.5-.3-1.2-.3-2v-10.8h3.4v-1.8H335v-9.1c0-1.6.1-2.6.2-3.1s.4-.9.9-1.2c.6-.4 1.2-.5 1.8-.5h1v-.9H327v.9zm40.4 22.6c.9 1.7 1.3 3.3 1.3 4.7-.8.7-1.6 1.2-2.4 1.5-.8.3-2.1.4-3.9.4h-5.4c-.9 0-1.5-.1-1.8-.3-.3-.2-.5-.4-.7-.7-.1-.3-.2-1.2-.2-2.6v-10.5h7c1.3 0 2.3.2 3 .5.7.3 1.1.8 1.4 1.3.2.4.4 1.4.7 3h.9v-11h-.9c-.1 1.8-.5 3.1-1.3 3.8-.6.5-1.8.8-3.6.8h-7v-12.6h8.7c1.6 0 2.7.1 3.3.3.8.4 1.4.8 1.8 1.5.4.6.8 1.8 1.1 3.4h.9l-.4-7h-24.5v.9h1.1c1.3 0 2.3.3 2.8.9.4.5.6 1.2.6 2.2v10.4h-3.4v1.6h3.4V300c0 1.6-.1 2.6-.3 3.1-.2.5-.5.9-1 1.1-.7.4-1.4.5-2.2.5h-1.1v.9H373l-3.1-8.3h-2.4zm37.8 8.3-10.1-15.4c2.4-.6 4.2-1.6 5.4-3.1 1.2-1.4 1.8-3.1 1.8-5.1 0-1.8-.6-3.4-1.8-4.8-1.2-1.4-2.8-2.3-4.7-2.8-1.9-.3-4.6.1-8.1 1.4v-1.9h-8.3v.9h1.1c1.1 0 2 .3 2.5 1 .4.5.6 1.8.6 3.7V300c0 1.8-.1 2.9-.4 3.5-.5.9-1.4 1.3-2.6 1.3h-1.1v.9H392v-.9h-1.2c-1.1 0-1.9-.4-2.4-1.1-.4-.5-.6-1.7-.6-3.7v-9.1h1.3c.7 0 1.3 0 1.8-.1l9.9 14.9 1.7 2c2.3 2.3 5.5 3.4 9.7 3.4l-.1-.3c-2.7-.8-5-2.5-6.8-5.2zM389 289.3h-1.2v-11.5c1.4-.6 2.8-1 4.1-1.2 1.9 0 3.3.6 4.2 1.8.9 1.2 1.4 2.7 1.4 4.5 0 1.8-.7 3.3-2.1 4.5-1.5 1.3-3.6 1.9-6.4 1.9zm53.7 16.9v-31.3c0-1.7.2-2.8.5-3.4.6-.8 1.5-1.2 2.9-1.2h1.1v-.9c-2.4-.4-4.4-.2-6 .5-1.7 1-2.6 2.5-2.7 4.5v21.8l-17.3-22.4h-8.6v.9c.9 0 1.6.1 2.1.2.7.1 1.4.5 2 1 .4.4.7.9 1 1.8v22.1c0 2.2-.2 3.5-.6 4.1-.6.5-1.5.8-2.9.8H413v1h12.9v-.9h-1.1c-1.2 0-2.2-.3-2.7-1-.4-.5-.7-1.7-.7-3.6v-19.5l20.5 25.6h.8zm91.1 22.3c-3.7 0-6.7-1.3-8.8-3.8l-38.7-39 24.7-23.5c1.3-2.1 2.5-3.3 3.6-3.7 1.1-.3 2.3-.5 3.7-.5v-1.8h-20.4v1.8h1.5c1.5 0 2.5.3 3.2.9.7.6 1 1.2 1 1.9 0 1-.4 2.1-1.2 3.4l-23.1 23v-19.3c0-3.3.2-5.4.6-6.5.4-1 1.1-1.8 2-2.3 1.4-.7 2.8-1.1 4.3-1.1h2.1v-1.8h-26.8v1.8h2.2c1.5 0 3 .4 4.3 1.2.9.5 1.5 1.2 1.8 2 .5 1.1.7 3.4.7 6.7v42.8c0 3.9-.4 6.4-1.1 7.5-1.2 1.6-3.1 2.4-5.7 2.4h-2.2v1.8h26.8v-1.8h-2.1c-1.5 0-3-.4-4.3-1.2-.9-.6-1.6-1.3-1.9-2.1-.5-1.1-.7-3.3-.7-6.6v-20.4l35.3 36.4c3.9 3.8 7.3 5.7 10.3 5.7 4.2 0 7.6-.2 10.2-.5 2.6-.4 5-2.4 7-6.1l-.2-.6c-2.8 2.2-5.5 3.3-8.1 3.3zm36.3-7.9h-2.4c-1.6 0-3.1-.4-4.5-1.2-1-.6-1.7-1.3-2-2.1-.5-1.1-.7-3.3-.7-6.6v-42.8c0-3.9.4-6.4 1.3-7.5 1.2-1.6 3.2-2.4 5.9-2.4h2.4v-1.8h-28.3v1.8h2.3c1.6 0 3.1.4 4.5 1.2 1 .5 1.7 1.2 2 2.1.5 1.1.7 3.3.7 6.6v42.8c0 3.9-.4 6.4-1.2 7.5-1.3 1.6-3.3 2.4-6 2.4h-2.3v1.8h28.3v-1.8zm20.7-60.1c.7.7 1.4 2 2.1 3.7v46c0 4.5-.4 7.4-1.3 8.5-1.2 1.1-3.2 1.7-6 1.7h-2.3v2h26.8v-1.8h-2.3c-2.6 0-4.5-.7-5.7-2.1-.9-1-1.4-3.5-1.4-7.6v-40.7l42.7 53.3h1.7v-65.3c0-3.5.4-5.9 1.1-7.1 1.2-1.7 3.2-2.5 6-2.5h2.3v-1.8c-5.1-.9-9.2-.5-12.4 1.1-3.5 2-5.3 5.1-5.6 9.4v45.5l-36.1-46.6h-18v1.8c1.9 0 3.4.1 4.3.4 1.5.2 2.9.9 4.1 2.1zm116.3 81.4c1.6-.5 2.8-1.4 3.7-2.6 1.3-1.6 2.3-3.7 2.8-6.4v-42.6c1.3-2.5 3-3.7 5.2-3.7h1v-1.8h-22.9v1.9h2.2c1.8.1 3 .3 3.8.8.7.5 1.3 1.2 1.7 2.2.4 1 .8 2.2 1 3.5v22.1c-1.9 1.2-3.9 2.1-5.9 2.8-2 .6-4 1-6 1-2.9 0-6.1-1.2-9.5-3.7-3.4-2.4-6.1-6.2-8.2-11.4-2.1-5.2-3.1-11-3.1-17.3 0-7.7 1.6-14.4 4.7-20.1 3.8-6.7 9.3-10 16.6-10 5.3 0 9.6 1.9 13 5.7 2.3 2.7 4.2 6.6 5.7 11.8h1.5l-1.5-20.9h-1.5c-.1 2.1-.8 3.5-2.1 4.2-.5 0-1.6-.4-3.1-1.1-3.1-2.1-7.4-3.1-12.8-3.1-5.7 0-10.7 1.4-14.8 4.2-4.9 3.5-8.8 8.4-11.7 14.7-2.4 5.3-3.6 10.9-3.6 16.7 0 8.1 2.1 15.2 6.4 21.3 5.7 8.2 13.7 12.3 24 12.3 4.5 0 8.5-.8 12-2.3v10.8c0 2.9-.7 4.8-2.1 5.6-1.3 1.3-3.2 2-5.7 2-2.1-.1-4.1-1-6-2.9l-1 .7c3.9 4.1 7.7 6.2 11.4 6.2 1.1 0 2.7-.2 4.8-.6z" class="st2"/>
    <path d="M782.3 231.5c-.1.3-.2.5-.2.8-.2-.1-.3-.3-.5-.4.2-.1.4-.2.7-.4.1-2-4.2 0-2.9-3.2 2.5-3.4-1.1-4.1-3.7-2-2.5 2.5-2.5 2.1-4.7.2-4.8-4.1-7.7-10.6-15.1-11.6-1.4-.2-3.4-3.4-.1-5.3 2.1-1.2 3.3-2.9 1.9-5.3-1.6-4.7-9.1-2.7-8 2.2.5 3.4-3.5 4.5-4.1 4.1-2.4-2-5.6-1.7-8.2-3.3-3-1.9-6.5-.1-9.8-.5-.6-.1-1.9 1.2-2.8.3-1.8-1.6 1.1-6.4 2.7-7.5v-.4s0-.1.1-.1c0-.1.1-.2.1-.2s.1 0 .1-.1l.2-.2c.1 0 .2-.1.3-.1h.1c.2-2.2 1.9-3 3.4-2 3.8 2.6 8.2-2.4 11.9 1 .4.4.9-.7 1.1-1.4 1.2-6.6 5.9-9.3 11.9-10.3-.6-.4-.4-.4-.1-.3-.1 0-.1 0 .2.1 1.5 3.3-2.9 4-3 6.7 0 .5-1 .9-.4 1.7 7-9 5.7 5.6 15.9-2.8.9-.8 3.2-1.4 3.6-1 3.6 4.1 9.7 5.2 12.2 10.5 2 2.7 5.6 14.5 8.3 14.3 1-.4 1.1-1.3.6-2-3.1-4.3-2.6-10.2-6.9-14.1-6.3-4.9-1-9-5.5-11.6-9.6-6.4-16.1-16.4-26.4-22-1.7-1-2.7-3.3-4-5-2.9-3.7-2.3-9.8-5.8-12.3-3.6-2.6-9.4-.9-13.8-3-7.2-4-.5 8.5-6.4 8.8-4.6-1.3-8.1 4.1-12.5 1.1-.5-.4-1 .6-1 1.3.2 3.4-1.1 3.5-3.3 1.5-1.5-1.4-2.6-1.1-4.3.1-2.6 1.9-6.1.9-9 2-2.5-9.1-12.6-.3-14.5-4.4-1.4-4.7-5.6-8.7-3-14.3 1.1-2.8-2.4-3.2-2.3 0-.4 1.7.7 3.8-.9 5.2-4.2 3.7-7.1 8.7-11.8 12-2.9 2.1-2.9 3.9.7 5.3-11.6 5.3-3.8 14.5-10.6 21.3-3.3-.2-2-3.3-3.1-4.9-.4-.6-1.4-1.7-1.4-.6 0 6.5-.3 6.8-5.7 2.7-5.7 5-3.3-7.4-7.5-4.9-5.9 5.7-2.3-1.1-2.5-2-.3-1.6-.4-2.9 1.2-4.6 2.1-2.2 1.3-6.6-.8-8.2-6.3-4.9-6.4-12-8.1-18.6-2.3-8.8 2.5-17.3 1-26.2-3.5-20.8 10.9-40.9 7.7-62-3.4 4.4-2.3 11.7-3.4 17.1-3.6 9.7-1.6-17.3-3.7-18.8-2.6-7.3-1.9-14.7-.9-22 .1-.7 0-1.3-.9-1.5-1.9-.8-3.9 10.4-3 11.8 2.4 8.1 1.8 16.4 1.4 24.5-.8 18.3-5.3 36.2-3.8 54.9 1.2 15.1-2 30.3-4.1 45.4-.1 10.8-8.1 17-14 24.9-1 1.6-2 2.4-4 1.5-3.8-1.6 2.4-12.1.5-16.4-1.7.6-1.5 2.2-1.9 3.5-3.5 7.1-16.1 9-9.4 19.7.8 1.3.4 3.6.3 5.4-.2 4-4.4 4-6.6 6.1-1.5 1.4-3.1-1.4-4.6-2.7-4.3-3.6-2-8.1-2.2-12.3-.1-1.2 1.1-2.9-.4-3.5-1-.4-1 1.4-1.4 2.2-4.1 3.9.4-14.3-3.9-16.7-2.9-3.3-1.5-4.2 1-4.8 5.4-1.2 5-5 4.6-8.9-.1-1.1-1.4-2.1-.5-3.3 2.8-3.5-.8-5.5-2.2-7.4-1.4-1.8-3.5.6-5.3 1-3.2.6-5.6 2.7-8.1 4.7-.8.6-2.8.5-2.2 2.1.4 1 1.8-.1 2.7-.3 2.1-.4 4.5-.5 4.9 1.9.5 2.9 2.3 7.6.3 8.8-5.5 3.2-3.2 7.1-2 10.6 3.2 8.9-7.8 11.8-10.4 19.2-3.1 6.3-5.5 13.2-12.7 16.3-3.1 1.8-3.5 11.1-8.5 5-4.3-3.9-7.2-24.8 3-20.5 7.2 3.4 10.1-10.6 5.3-13.5-4.6-2.8-3-6.1-2.5-9.6-3.7-.3-1.5 5.9-4.7 5.6-1.4-.4-.5-2.3-.6-3.6.8-6.8-5-7.3-.7-16.2 4.8-10 3.9-20.6 5.1-31 .1-.8.4-2.4-.6-2.5-.9-.1-1 1.5-1.2 2.5-.8 4.9-.8 9.9-2.5 14.6l.1-.1c0 1.3.6 3.1-.1 3.8-3.2 3.4-2.6 7.7-3.1 11.7-1.5 11.4-3.1 22.9-8.4 33.3-.9 1.8-1 5-4.1 4.6-7.9-2.2-7.9 3.8-10.3.9-6.2-4.4-8.6-3.6-10 3.7-.2 1.1-.2 2.6-1.7 2.4-2.8-.4-.9-4.2-.6-5.9.6-1.4 1.6-3.6.2-3.9-3.9-1.2-.1 13-11.4 8.7-1.5-.7-3.4-6.5-4.8.2-3.1.8-9.1-6.4-12.3-8.1 1.8-2.1.2-3.3-1.4-4.2-10.5-5.8 4.9-10 4.4-17.2 0-.5 1-1.4 1.1-1.4 4 2.4 6-1.6 9-2.4 6.1-1.8 7.1-7.2 9.6-11.3 3.4-5.3 1.5-11.8 2.2-17.8.2-1.7.9-4.5-.5-6.2-3.4-4.1-2.7-11.2-9.2-13.2-.4-.1-.5-2.1-.7-2.1-1.9 0-1.1-5.1-4.9-2.3-1.5 1.1-7.3-4.5-4.4-6.5 4.7-4.1 6.9-9.4 8.8-15.5 2.3-7-3.7-12.9-.4-19.3.1-.1-.7-.9-.8-.9-2.9 1.3-2.4-.9-3-2.6-.6-1.5-1.7-2.8-2-4.5-4.6 3.1-4.2-4.8-8.1-3.7-.6.2-2-2.3-3-3.6-2.4 3.2-4.8-2.5-8.2.4-2.4 2.1-7.6 1.8-9.9 4.5-7.4 8.4-12.2 22.4-6 32.7.9 2.2-.3 6.6 3.2 7 3.5.4 4.1 2 3.6 4.9-.4 2.1 1 3 1.9.8 3.7-1.8 4.8 5.8 9 2.6.4-.3 1.4 1.3.8 1.9-2.9 5.6-6 9.9-9.8 14.6-1.4 2.6-1.6 1.7-3.6.5-3.4-2.1-.7-9.1-7-8.3-.1 0-.4-1-.3-1.3 3.2-5.5-1.7-10.6-.8-16.2.7-4.2-3.6-6.8-7.3-7.5-2.8-.6-4.7 1.9-5.6 5.1-2.4 5.9 6.2 9.9 2.7 14-1.5 1.5-2.6 1-4.3 0-5.7-3.8-7.4 8.7-1.4 7.8 3.5-.4 2.9 1.4 3.2 3.2-.1 2.9 2 8 .3 10.2-2.7 1.9-4.9-.8-7-1.6-1.5-.6-3.9-1.9-3-4.5 3.7-10.3-1.4-24.9-12.6-27.5-17-4.2-14.2 5-24.3 8.7-8.6-.3-10.6 1.7-11.3 9.8.1 5.6 4.4 9.5 4.1 15.1.2 1 .3 2.8-.9 3.1-2.8.4-1.9-8-5.2-8.4.9 3.6 2.4 13.9-1.2 16.2-4.4.7-5.2-8.3-10.3-8.1-2.7-.2-2-1.4-1.7-2.7 1.8-8.3-4.8-16.5-13.1-18-4-.7-3.7 3.6-6.7 3.4-1.2-.1-3.7-.7-3.6 2.1 0 2.4-.4 5.1 2.6 6.1 3.6.8 1.4 6.7-1.5 4.8-2.7-1.7-4.5 0-5.2 1.8-1.4 3.7-3.6 1.9-5.6 1.3-1.3-1.5-2.6-1.5-1.7.9 4.6 6.4-5.2 6.3-3 9.8 3.8 2.4 2 5.6 1.3 8.4-1.7 6.1 6.6 7.2 6.8 13.1.2.8 1.8 1.4.6 2.5-.7.6-1.5 0-2.3-.2-3.8-1.3-7.9-1.1-11.4.1-3.5 1.2-5.4 5.4-9.4 6.4-.3.1-3.6 1.4-1.4 3.6.5.5.3 1.3-.6 1.4-2.6.1-2.7-8.9-.4-10.3 8.6-8.3 5.5-21-4.1-26.9-3.6-1.9-5.8-7-8.1-11-2-3.3-5.4-5.2-7.9-8-1.7-1.3-10.2 11-9.4 1.5.5-2.6-.7-4.2-3-4.9-3.8-1-5 5.9-1.8 7 9.3 4.9-6.8 14.7-4.8 22.4.1.7-.4 1.9-.9 2.2-7.8 3.5.4 15.2-6.9 15.4-1.9 0-.9 1.4.1 2.3 1.4 1.2.2 2.3-.7 2.8-2.3 1.2-1.2-1-1.4-1.7-4.4-4.2-8.6-7.8-7.2-15 .9-11.8-7.9 2.9-11.8-14.3-1.5-5.2-8.4-4.1-7.1 1.6.5 2.3 1.6 5.1 4.4 4.3 5.6-1.1 6.8 7.3 9.2 10.8 4.1 6.5 7.2 13.7 12.4 19.6.7.8.5 2.6.4 3.9-.1 1.3 1.2 3.2-.9 3.9-1.5.5-2.9.1-3.8-1.5-.7-1.3-2.3-1.2-2.9-.4-1.1 1.6.9 1.6 1.7 2.3 1.1 1 2.7 2.3 2.3 3.5-.8 2.1-4.8-1.5-5.5 1.1-.1 1.1.9 1.1 1.8 1.1 2-.2 3.4 1.6 2.4 2.5-3 2.1-5.4 11.7-9.3 5.4-3.1-6.9-8.6-13.2-14-18.3-1.1 3.7 8.7 9.2 7.2 15.8-.6 4.9 7.8 7.9 2.8 13.6-.1.1.6.8.8 1.2 1.8 3.4 0 3.7-2.8 1.5-1.3-.6-.5-3.7-3.4-2.4-9.9 5.6-10.7-6-14.1-12.2-3.2-7.4 5-13.9-1.8-22.1-1.4-2.1-4-3.4-6.5-2.5-9.2 1.4-8.3 14.6-.4 17.9 1.8 1 5.8 1.2 4.9 3.6-3.7 6.4-21.2-7-22.7-12.2-.5-1-1.6-2.8-3-1.5-2.2 3.8 5.2 4.9 4.8 8.8 2.1 1.5 4.1 3.2 6 4.9 2.8 2.5 2.5 7.1 6.4 8.4-.4-2.3 2.2-.9.4.3 2.4 3.3 7.3 5.9 6.8 10.4-.2 4.7-10.2 10-13.3 5.3-1.6-6.4-1.2 3.8-5.3-.1-2.7-3.4 6.9-6.6-3-10.3-1.1-.4-2.5-1.3-3.2-.4-1.3 2.4 4.5 3.4 3.7 6.1-.3 1-1.3.8-2.1.9-1.8.2-2.3-1-2.6-2.3-1.9-8.5-12.8-2-16.4-9.8-1.3-1.7-6.7-8.7-8.6-8.2-.6.5-.4 1.7.3 2.2 2.5 2 3.1 5.4 5.7 7.4 1.1.9 4.1 1.6 2.9 3.8-1 1.8-3.3.7-5.1.6-3.4.2-6.1-7.8-8.4-1.2-1 3.7-4 4.5-6.8 4.7-29.8 3.2-10.6 36.6-30.6 17.3-3.1-3.8-5 .9-7.3-.1-1.2 3.3.9 5.1 3.4 6.3 6.6 3.2 12.7 7.7 20.4 8.3 1.3.2 3.9.6 3.8 2.4-.2 1.3-1.3.5-2 .7-2 .7-5.4-2-5.8.2-.4 2.3 3.7.3 5.2 1.8 1 1 4.9 1.2 2.6 3.1-2.4 2.1-1.2 3.3-.6 5 1.6 2.9-2.3 6.9-4.8 4.7-4.5-5-8.6-1.3-12.8.3-6.6 2.8 9.9 2.9 11.4 3.2 3.2.2 3.5 3.2 5.1 4.9 1.6 2.6-4 1.2-2.8 4 1.8 2.6 6.3.9 8.3 3.8 1.6 1.4 2.2 8-1 7.2-7.1-3.5-12.7 1.1-18.7 3.5-2.3.9-3 2.8-2.4 4.8.7 2.2 2.6 2.3 4.4 1.1 1-.6 2.1-.8 3.3-.5 9 4.1 16.5-10.4 20.2-3.4 1.7 3.7-2.7 9.6-6.7 9-1.2-.2-1.6 0-2.5.6-3.7 2.4-7 5.6-11.4 6.8-2.9.5-1.7 4 .9 2.4 4-.5 14.7-8.5 16.4-3.1.7 2.1.6 6.1-4 6.5-6.1.7-3.6 10-10.2 10.1-1.8.2-2.2 2-1.4 3 2.3 3 .8 5.6-.2 8.4-1.3 3.8 2.4 11.9 6.4 13 3.5.9 1.3 4.6 2.6 5.3 1.5.9 3.2-3.9 6-1.2 10.9 9.9 5.6 30.3 18.2 23.4 7.1-3.7 13-9.9 21.5-10.8 3.8-4.5 8.3 10.6 15.2 2.9 6.6-7.8-6.7-10.8-4.1-14.5 1.1-1.4 1.9-3.4 4.2-2.9 2.4.5 4.5.5 6.5-1.3 2.2-1.8 3.2 3.4 5.2 2.7 4.6-1.8 5.4 2.1 4.7 4.2-1.3 4.2-3.1-.7-4.9-.5-1.5.2-3.4-.4-4.1 1-1 2 1.6 1.4 2.3 2.2 1.2 1.4 3.1 2.8 3.2 4.3.4 5.3 4.1 10.3 2.1 15.9-.6 1.6-.3 3 1.5 2.5 1.6-.5 3.8 2.2 4.4-.5.2-1.1-.7-3 .9-3 2.3.1 1.1 2.1 1 3.5.8 3 3.5 5.5-.3 8.2-2.3 1.8-.4 3.1 1.7 3.3 1.3.1 3.4-.3 2.6 1.6-1.7 3.5-.4 7.6-2.3 10.9-.5.8-1.7 1.8-.8 2.6 1.4 1.2 1.8-.8 2.6-1.3 4.7-3.9 1.5 2.9 4.4 1.4 2.8-2 3.6 1 3.6 2.1 0 5.2 2 10.6-1.9 15.6-4.5 5.4-1.7 20.1 7.5 18.4 1.2-.3 4.1-.9 4.4 1.1 1.7 9.3 2.9 2.5 4.3 0 4-3.2 7.4-6.6 9.4-11.4.4-.8.2-2.3 1.5-2.1 1.2.1.2 1.4.5 2 2 4.5 3.6 5.8 5.1.2 2.5-2.6-1-7.3 3-8.8 1.1-3 3.6-.4.5.4-3.1 8.1 8.2 9 5.8.1-.1 0-.2 0-.3-.1-.1 0-.2-.1-.2-.1-.4-.2-.4-.7-.2-1.2v-.1s0 .1-.1.2c-.1 0-.2.1-.3.1-.1.1-.2.1-.3.2 0-.2.1-.2.2-.3.1 0 .2-.1.2-.1.1 0 .1-.1.2-.1v.1l.9 1.2c1.1.7 2.2 2.2 3.1 2.1 3.1-.2 2.2 1 1 2.2-5.8 6.2-5.6 8.6 1.9 11.7 2 .8 2.6 5.3 5.2 2.8 5.4-4.2-3.7-18.7 2.2-19 2.3.7 9 4.1 3.5 5.2-3.2 2.8-3.3 6.5-.2 9.6 6.3 6-5.6 4.7-2 8.9 2.3 2.5 9.8 9.5 10.8 2.3.1-1.5.5-2.8 2.3-2.5 4.1.9-3 7.7 2.9 7.3 5.9-.5 4.8 6.2 8.5 8 .6.3.2 1.7-1.6 2-3.6.5-3.1 6.4-7.4 6.4 1.2 3.1-.9 5.8-1.1 8.7-1.3 6 8.6 10.9 10 4.2.3-1.8-.4-3.9-2.4-3.6-7.7 1.5-.7-5.1.1-7.7.6-1.2.9-2.5 1.5-3.6.3-.7-1.1-2.9 1.2-1.8 1.5 1.8 1.3 3.2 4.6 2.1 16.7-3.9 5.5 16.7 10 15.1 6.3-4.9 1.5 7.2 7.1 2.9 1.5-1.3 2.6.1 1.4 1.5-1.4 2.9-1.9 5.8-1 9.1 2.1 8.3 9 13.7 12.8 21 1 1.9 3 2.5 3.9-.4 2.2-7.6 3.4-15.5 7.1-22.7 2.7-4.7 1.6-10.1.2-15-.7-3.1-3.8-1-5.5-2-1.8-1-2.8-2.5-3.1-4.3-.6-3.2 3-.1 3.7-2.2-.1-3.5 3.9-5.6 3-9.6-1-6.3 7.4-10.2 2.2-17.1-3.9-4.6 1.4-8 .3-11.9-.1-.4 2.4 0 1.5-1.6-1.4-2.1-4.5 1.7-5.7-.9-.7-1.3-.2-2.6.5-3.8 3.1-3.4 8.8 6.4 8.4-4.2 1.1-5.5-2.5-17.6 3.5-20 2-.5 2.6 1.1 3 2.5.3.8.7 2 1.5 1.6 1.3-.5 3.5-1.6 3.4-2.4-.2-5 5.2-6.1 6.5-10.1.3-1 1.5-1.8 2.9-1.4 1 .2 2.1.6 1.9 1.9-.6 3.7 1.6 6.9 1.3 10.7-.6 6 8 13.9 13.2 12.6 26.6-9 5.8-25.1 16.6-31.8 7.2-5.2 2.4-14.5 14.5-13 3.1 2.3 5.5 11 8.3 4.4.6-.8-.9-2.9 1-2.5 2.6.4-2 5.2.2 5.9 3.1.4 1.6-5.5 3.8-5.1 1.4.2 2.7 1.2 2.6 3-1 .4-2.1 1.5-.8 1.7 4.4.9 7.4 4.9 12.2 5.2 2.3.2 5.6 1 6.5 3.9.5 4.9 7.2 4.3 5.6 6.8-3.3 4.3 11.3 10.6 9.5 19.6-.3 4 5.2 4.2 6.9 3.7 3.4-1-.9-2.7-.9-4.4-.7-5.8-6.4-9.1-7.1-15 0-.4-3.7-2.2-1.8-4 2.2-2 1.9 1.6 3 2.4 1.1.8 2.4 2 3.5 1.3 1.5-1-.6-1.8-.8-2.8-2.1-6.9 5.7-3.3 1.9-9.5-1.1-2.2-2.6-4.5 1.4-1.3.8.6 2-.4 2.2-1.4 1.5-4.7-5.2-1.9-2.2-6 4.6-7.9 12.1.9 14.6 6.2.5 1.8 2.4 2.3 3.9 1.2-18.9-21.4-6-6.2-2.6-17.8 2.4-9.3 14.5 11.5 8.4 21.6-1.9.4-3.1-3-3.8-2-1.1 1.6 1.9 2.1 2.6 3.5.5.9 2.3 1.4 1 2.8-.4.4-2.1-.6-2.2 1 0 2.4 4.2 3.2 2.6 5.9-2 6.1-2.1 12.4-2.1 18.6 0 2.8-2.5 5.4-.6 8.3 8.1-14.5 2-34.5 12.1-47.9 3.5-3.6 8.6-1.6 12-4.5.6 2.4-1 8.9 2.1 9.3 1.4-.1 2.3-4.6 1.1-5.6 4.3-7.5 6.5-20.6 16.8-22 2.4-.4 1.2 3.2 2.2 4.8 1.2 1.7 2.2 4.9 4.4 4.2 8.3-2.6 5.6 2.2 4.5 6.1-.1.3-.1.7 0 1 1.2 2.8-2.2 5.7 0 8.5 2.3-1.9 3.7-4.5 4.7-7.2.3-1.8 2.2-1.2 2.2.4 0 2-3.1 2.5-2.6 5 .6 3 4.1-.1 4.5 2.1.5 5.5 2.6 11.4 1.4 16.8h-49.7v277.5h72.1V569l93.9 120.4h93.5l-119-146.2 98-117c3.7.9 6.5 4.9 11.2 2.6 16.7-6 7.2-32.3-8.4-21.4-3 3.5-4.5-3.8-5.6-5.8-.2-3.3 4.4-.3 4.9-2.7.3-1.3-.9-1.6-1.7-2.2-.8-.6-1.6-1.1-1.8-2.2-1.2-6.2-5.1-8.4-11.1-7.9-2.2.2-7.9-6.3-7.5-8.4.5-2.3 1.7-1.1 2.9-.4.8.5 2.6.6 1.6-.6-5.1-5.7 6.4-6.9 3.1-12-.2-.3 1.6-.6 2.6-.4 1 .2 2.4 1.6 2.9 0 .5-2.5-5.8-1.2-4-5.5 1.5-7.8 4.8-1.9 6.9-5.7 1-3.2-4.8-3.2-3.6-6.3 2.5-4.8 13.2 8.4 14.6 5.8-1.7-4.8-9.5-6.7-12.2-11.5-.1.1-.2.1-.3.2 0-.1.1-.2.1-.2h.2-.2c1.2-1.4 1.1-1.4-1.2-5.2-1-1.1-.5-3.2 1-2.1 2.8 2.6 7.2 3.3 8.6 7.4 6.9-2.6-10.7-9-6.8-10.6 8.3-1.7 3.2 4.4 6.8 4.3 1.6-.3 1.4-1.9 1.6-3.3 1.2-7.6 3.6-14.6 9.4-20.2 7.2-3 9.2-10.9 13.7-16.7l-.1-.1c-.1 0-.2.1-.2.1-.1-.4 0-.4.2-.1 0 0 .1 0 .1-.1v.1c.4-.2.9-.4 1.3-.6-1.8-3.3 4.7-8.8-2.7-10.8-.2-.1-.4-.9-.3-1.3 2.4-12-8.3-12.5-6.8-16.9.1-1.8 1-4.1-1.2-5.2-1.8-.9-3.3.3-4.7 1.5-3.9 3.4-7.5-.8-11.3-.6 1.3-1.9-.4-4.4 1.3-6.2l-.1-.3c.1.1.1.2.1.2v-.1c2.1-.4 2.2 6.4 5.6 1.5.2-.3 1.8 2.9 2.8.5.6-1.5-1.6-2.2-2.8-2.9-.7-.4-2.3 1.2-2.4-1.2 0-1.6 1.4-1.6 1.9-2.3 1.5-2.3 4.7-.3 6-2.7 3.4-6.4 4.3 6.5 10.5 3.2 23.9-10 6-10 15-14.9 2-1.4 4.7-1.7 6-3.9-5.3-.7-15.1 7.4-17.3-.6zM746.5 171c.5-1 1 .3 1.6.1 4.1-1.3 6.5-.8 5.2 4.4 2.7 4.6 5.8 7.9-2.5 8.3v.1l-.1-.1.1.1-.1.1c0 .2 0 .5-.1.7-.1-.1-.3-.2-.4-.3.2-.1.3-.3.5-.4v-.2h.1c-2.9-4.7 3.3-8.6-3.2-11.6-.6-.4-1.5-.4-1.1-1.2zm-281.4-51.7c.1 1.9-3.2 5.5-3.7 1.8-.5-2.1 3.5-5.6 3.7-1.8zM313 165.1c-.1-.4-.5-.8 0-1.1.2.2.3.5.5.7-.2.1-.4.3-.5.4zm-176.3 94.5c-3.3-.5-1.5-1.9.7-1.2.2.8-.1 1.3-.7 1.2zm23.8 89.1c-2.7.3.7-6.6 2.9-6.4.7-.2 1.3-.4 1.4.7-1.2 2.1-2 4.5-4.3 5.7zm19.4 5c-4.2 1.8 0 12.3-5.9 6-1-1.1-2.3-1.1-3.6-1.2-11.5-1.6-6.3-13.9-.3-18.7 2.1.6-1.1 2.8.5 3.5.3.1.9-.4 1.2-.8 1-.9 2.9-5.4 4.2-3.4.1 5.1 7.4 9.9 3.9 14.6zm10.5.9s0 .1 0 0c0 .1-.1.1-.1.1.1.8-.9 1.2-1.2.3l1.2-.3s0-.1.1-.1c-.3-1.4 2.5-3.1 2.7-1.5-.5 1.1-1.5 1.6-2.7 1.5zm5.7-3.8c-2.2.8.1-3.9.6-1.7.2.8 0 1.4-.6 1.7zm15.7-80.6h-1.1c-1.3 0-2.3.4-2.9 1.2-.4.6-.5 1.7-.5 3.4v31.3h-.8L186 280.6v19.5c0 2 .2 3.2.7 3.6.6.7 1.5 1 2.7 1h1.1v.9h-12.9v-1h1.1c1.3 0 2.3-.3 2.9-.8.4-.5.6-1.9.6-4.1v-22.1c-.3-.8-.7-1.4-1-1.8-.6-.5-1.2-.9-2-1-.4-.1-1.1-.2-2.1-.2v-.9h8.6l17.3 22.4v-21.8c.1-2 1-3.6 2.7-4.5 1.5-.8 3.5-.9 6-.5v.9zm30.1 157.6c0-.1.1-.2.1-.3.3-.1.4 0 .5.3h-.6zm-1.4-128.4c-1.5 2.5-4.1 4.4-8 5.7-1.4.4-2.6.6-3.6.6-6 0-10.4-3.4-13.2-10.2-.6-2-1-4.3-1-6.7 0-4.9 1.8-8.9 5.3-12 1.2-.8 2.6-1.3 4.1-1.4 1.7-1.5 3.6-2.3 5.7-2.3 2.9 0 6 1.4 9.3 4.3 3 3.7 4.5 7.3 4.5 10.9-.1 4-1.1 7.7-3.1 11.1zm47.1-109.1c-1.4 2.4-2 5.6-4.5 7.4-8.3 1.4 1.6-15.5 4.5-7.4zm-10.8 6.2c2 .8 1.5 5-.9 5.6-2.8-.3.3-4.2.9-5.6zm-26.4-17.7c.5.2.2.6.1 1-.2-.4-.6-.7-.1-1zm.7 248.5c-.2 1.1-.6 2-1.9 1.6-1.6-.5-3.7-.4-2.9-3.2.2-.9-1.6-1.8-.6-3-1.6-8 4.8-6.3 2-2.6-2.7 4.9 5.5 1.4 3.4 7.2zm2.2-7.8c-.6-.5-2.7-1.5-1-2.2.7.6 1.7 1.1 1 2.2zm7 3.1c-1.3-.6-1.1-3.3.7-3.4.2.8.5 1.7.6 2.6-.1.5-.4 1.3-1.3.8zm14.2 12.1c0 1.9-1.7 1.3-2.6 1.1-3.1-.6 5.2-5.9-3.1-4.8h-.1c-.2-.1-.5-.1-.7-.2.1-.1.1-.2.2-.2 0 0 .1 0 .1-.1.1.1.1.2.2.3.1.1.1.1.2.1-.2-.2-.3-.4-.5-.6.2.2.3.4.5.6-1.7-5.7 7-1.1 5.8 3.8zm-1.8-127.1-1.7-2-9.9-14.9c-.5.1-1.1.1-1.8.1H258v9.1c0 2 .2 3.2.6 3.7.5.7 1.4 1.1 2.4 1.1h1.2v.9h-12.5v-.9h1.1c1.2 0 2.1-.4 2.6-1.3.3-.5.4-1.7.4-3.5v-20.5c0-2-.2-3.2-.6-3.7-.5-.7-1.4-1-2.5-1h-1.1v-.9h8.3v1.9c3.6-1.2 6.3-1.7 8.1-1.4 1.9.4 3.4 1.4 4.7 2.8 1.2 1.4 1.8 3 1.8 4.8 0 2-.6 3.6-1.8 5.1-1.2 1.4-3 2.5-5.4 3.1l10.1 15.4c1.9 2.7 4.1 4.4 6.8 5.1l.1.3c-4.1.1-7.3-1-9.6-3.3zm30.6-26.5c-.2-1.3-.4-2.2-.7-2.7-.5-.9-1.1-1.5-1.9-1.9-.8-.4-1.9-.6-3.2-.6H293v33.9c0 1.6.2 2.5.6 2.9.6.6 1.3.9 2.3.9h1.1v1.1h-12.5v-1.1h1.2c1 0 1.7-.3 2.4-1 .4-.5.5-1.4.5-2.8v-33.9h-3.8c-1.5 0-2.5.1-3.2.3-.8.3-1.5.8-2.1 1.6-.6.8-.9 1.9-1 3.3h-.9v-8h.9v.8h24.9v-.8h.9v8h-1zm35.7-6.4h-1c-.6 0-1.2.2-1.8.5-.4.3-.7.6-.9 1.2-.1.5-.2 1.6-.2 3.1v9.1h3.4v1.8H335v10.8c0 .8.1 1.5.3 2 .1.4.4.7.8 1 .6.4 1.2.6 1.9.6h1v.9h-11.9v-.9h1c1.1 0 1.9-.4 2.4-1.2.4-.5.5-1.7.5-3.6v-9.6h-12.9v9.6c0 1.6.1 2.7.3 3.2.2.4.4.7.9 1 .6.4 1.2.6 1.9.6h1v.9h-11.9v-.9h1c1.2 0 2-.4 2.5-1.2.4-.5.5-1.7.5-3.6v-9.6h-3.8v-1.8h3.8v-9.1c0-1.6-.1-2.7-.3-3.2-.1-.4-.4-.8-.8-1-.6-.4-1.2-.6-1.9-.6h-1v-.9h11.9v.9h-1c-.7 0-1.3.2-1.9.5-.4.3-.7.6-.9 1.2-.2.5-.3 1.6-.3 3.1v9.1H331v-9.1c0-1.6-.1-2.7-.2-3.2-.2-.4-.5-.8-.9-1-.6-.4-1.2-.6-1.8-.6h-1v-.9H339v.9zm1.7-111.1c-.8-4.1 2.4-8.1-.4-12.4-1.1-1.7 3.4-.3 3-2.7 3.3-1.4 2.1 2 .1.1 1.3 15.5 11.2 9.4 8.8 14.2-.7.9-1.6 3-2.6 2.2-1.8-1.5-2.6-1-3.4.5-1.3 2.8-5.3.6-5.5-1.9zm4.9 142v-.9h1.1c.8 0 1.5-.2 2.2-.5.5-.3.8-.6 1-1.1.2-.5.3-1.5.3-3.1v-10.2h-3.4v-1.6h3.4v-10.4c0-1-.2-1.7-.6-2.2-.6-.6-1.5-.9-2.8-.9h-1.1v-.9H370l.4 7h-.9c-.4-1.7-.7-2.8-1.1-3.4-.4-.6-1-1.1-1.8-1.5-.6-.2-1.7-.3-3.3-.3h-8.7v12.6h7c1.8 0 3-.3 3.6-.8.8-.7 1.2-2 1.3-3.8h.9v11h-.9c-.2-1.5-.4-2.5-.7-3-.3-.5-.7-1-1.4-1.3-.7-.3-1.6-.5-3-.5h-7v10.5c0 1.4.1 2.3.2 2.6.1.3.4.5.7.7.3.2.9.3 1.8.3h5.4c1.8 0 3.1-.1 3.9-.4.8-.3 1.6-.8 2.4-1.5 0-1.4-.4-3-1.3-4.7h2.4l3.1 8.3h-27.4zM377.9 144c-4.1-.3-2.7 5.4-7.4-2.4-4.8-6.6 0-3.4 4.3-4.7.3-.2.8.4.1 1.3-3.5 3.5 4.6 2.2 3 5.8zm125.4 259s-.1-.1-.1-.2h-.1l.1-.1c0 .1 0 .1.1.2.1 0 .2.1.3.1-.1 0-.2.1-.3 0zm204.6-243c0 .4 0 1.1-.7.9-.9-.3-1.7-.8-2.4-1.1.2-1.8 3.1-1.3 3.1.2zm-28.4 10.6c.6.8 1.5 2-.3 2.1-.4-.8-1.1-1.5.3-2.1zm-2.2 5.2c2.2-3.5 13.5 2.9 18.2.4 2-.6 1 2.6 1.6 3.9.1 1.4 1.3 2 2 .7-.8-5.4 3.9-5 6.8-6.5v-.1.1c0-.1 0-.1 0 0 .8-.5 1.6-.9 2.4-1.4.1.4.3.9.1 1.1-.7.9-1.6.8-2.5.3.3 6.1 7.3 5.6.6 12.3-1.1 1.1-.6 4.4-.2 6.6.4 2.4 3.2 4.6 0 6.9.7 5.1-.5 8.2-7.3 6.7-17.3-2.2-2.2-7-10.4-12.4-1.8-1.2-6.5-3.3-5.9-5.9 1.8-3 1.9-3.2-1.3-4.6-3.7-2.2-6.9-3.8-4.1-8.1zm9.1 24.4c3.2 1.9 3.9 9.4-.4 10.8-1.3.5-1.7-2.1-1.3-2.5 2.4-2.6-5-6.6 1.7-8.3zM674.1 184c3.7.2 4.1 4.9 6.3 7 .8 1 2.3 1.6 2.3 3.1.1 1.7 1.1 4.6-.2 4.8-1.7.3-1.7-2.3-1.7-3.9-.6-4.3-6.5-4.4-7.2-8.8-.3-.9-.7-2.1.5-2.2zm-5.8-17c2.1-.2 2.8.4 2.3 1.7-1 2.4-.9 5.2-2.5 7.4 0-2.6-1.7-4.1-3.4-5.6 1.4-1.4 2.7-2.7 3.6-3.5zm-1.8 18.3c.4.9.3 1.7-.7 2.2-.1.2-.3.5-.4.7-.7-.5-.3-.7.2-.9-.2-.9-.1-1.7.9-2-.1 0-.1 0-.1-.1.1 0 .1 0 .1.1-.4-1 .2-2.6 1.3-1.8.1 1-.1 1.8-1.3 1.8zm-3.3-21.7c-.1 0-.1 0 0 0-.1 0 0-.1 0-.1v.1c1.6.5 1.3 1.5.7 2.6-1.8 1-1.4-1.9-.7-2.6zM655.9 406c2.8 1.1 1.6 4.4 3 6.3-.7 1.8-4 .5-4-1.5 3.2-.9-.1-4.2-1.2-1v.1-.1c-6.6-3.8-8.7-10.5-5.3-17 1-2.9 4.1-3.3 3.9.1.5 3.6 4.6 6.5 1.7 10.8-.8 1.3.7 1.8 1.9 2.3zm4.1 11.9c-1.4.3-2.5-1.4-1.9-2.6 1.8-.4 2.3 1.5 1.9 2.6zm-13.2-34.1c-.1-1 .2-2.1.3-3.1 2.1.4 1.4 2.3 1.9 3.5-.1.9.6 2.4-.8 2.3-1.4 0-1.3-1.7-1.4-2.7zm5.7-199c.1 0 .1.1.2.1h-.3l.1-.1zm-70.1 71.4h18l36.1 46.6v-45.5c.3-4.3 2.1-7.4 5.6-9.4 3.2-1.6 7.3-2 12.4-1.1v1.8h-2.3c-2.8 0-4.8.8-6 2.5-.7 1.2-1.1 3.6-1.1 7.1v65.3h-1.7l-42.7-53.3v40.7c0 4.1.5 6.6 1.4 7.6 1.2 1.4 3.1 2.1 5.7 2.1h2.3v1.8h-26.8v-2h2.3c2.8 0 4.8-.6 6-1.7.9-1.1 1.3-4 1.3-8.5v-46c-.7-1.7-1.4-3-2.1-3.7a8.49 8.49 0 0 0-4.1-2.1c-.9-.3-2.4-.4-4.3-.4v-1.8zm58.8 136.7c2.4.5 1.7-1.7.9-3-1.3-2-2.5-5.8-1.1-6.1 2.6-.5 1.6 3.2 2.6 5 1.6 2.7 2.2 5.7 1.1 8.9-18.2-8.4-5.9-15.6-8-8.3 0 2.6 3 3.2 4.5 3.5zm-41.4-11.5c-.2-1.1-.7-2.2-.9-3.3-1.2-6.7 7.5 1.8 6.6 4.6.2 2.3.4 4.3-1 6-.7.8-.6 2.5-2.3 1.9-1.2-.4-2.1-2.2-1.6-2.7 2.7-2.6-.4-4.3-.8-6.5zm-95.3-167.1c.6.2 1.1.3 1.9.6-.4.6-.6 1.3-.8 1.3-1.2-.1-1.5-.9-1.1-1.9zm-43.3-16.5c.1.1.1.2.2.2 0 .1-.1.1-.1.2.2.3.3.7.5 1h.1c.9-.3 1 .4 1.2.9.1.1.1 0 .1.2v.1c-.8 0-1.4-.3-1.4-1.2-.6-.2-.7-.5-.5-1v-.1c-.1-.1-.2-.1-.3-.2.1 0 .1 0 .2-.1zm-4.8-76.4c.1-.6.4-1.4.8-1.6 1.1-.6.6.8 1.1.8.7 2.1-2.1 3.2-1.9.8zm-69.3 274.4c-2.2.4-.1-2.4.5-3 1.7-.5.8 2.8-.5 3zm15.4-88.2-1.7-2-9.9-14.9c-.5.1-1.1.1-1.8.1h-1.3v9.1c0 2 .2 3.2.6 3.7.5.7 1.4 1.1 2.4 1.1h1.2v.9h-12.5v-.9h1.1c1.2 0 2.1-.4 2.6-1.3.3-.5.4-1.7.4-3.5v-20.5c0-2-.2-3.2-.6-3.7-.5-.7-1.4-1-2.5-1h-1.1v-.9h8.3v1.9c3.6-1.2 6.3-1.7 8.1-1.4 1.9.4 3.4 1.4 4.7 2.8 1.2 1.4 1.8 3 1.8 4.8 0 2-.6 3.6-1.8 5.1-1.2 1.4-3 2.5-5.4 3.1l10.1 15.4c1.9 2.7 4.1 4.4 6.8 5.1l.1.3c-4.1.1-7.3-1-9.6-3.3zm31.1 73.8c-.2 1.1-1 .9-1.9.9-2-.2-2.2.2-2.3 2.6-.2 2.7-3.4 0-5.4.6 0 .1-.1.1-.1.2l-.1-.1c.1 0 .2-.1.2-.1 1.7-2.4 5.2-2.8 6.4-6 .3-1.4 4 .5 3.2 1.9zm-12.2-100.8v19.5c0 2 .2 3.2.7 3.6.6.7 1.5 1 2.7 1h1.1v.9H413v-1h1.1c1.3 0 2.3-.3 2.9-.8.4-.5.6-1.9.6-4.1v-22.1c-.3-.8-.7-1.4-1-1.8-.6-.5-1.2-.9-2-1-.4-.1-1.1-.2-2.1-.2v-.9h8.6l17.3 22.4v-21.8c.1-2 1-3.6 2.7-4.5 1.5-.8 3.5-.9 6-.5v.9H446c-1.3 0-2.3.4-2.9 1.2-.4.6-.5 1.7-.5 3.4v31.3h-.8l-20.4-25.5zm28.1 114.5c-3.2 0-6.4-2.8-9.5-3.8 0 0-.1 0-.1.1l.1-.1c.2-.1.3-.2.5-.2-.1 0-.3.1-.4.2 3.7-1.9 5.9 2.2 9 2.8.5 0 .8.6.4 1zm1-6.9c-.7.6-1.8.9-1.8 2.2.1 3-1.4.7-2 .5-.9-.3-2.6-.4-1.3-2.2.7-1 2.6-2.1 1-3.1-1.6-1.1-1.3 1.3-1.9 2-1.1 1.4-2.1.4-3.1.2-1.8-.5-3-1.4-2.1-3.1-1.3-4.8 2.8-4.4 4.8-5.3 3-1.4 5.4 1.3 7.4 2.9 1.7 1.2 1.1 4.1-1 5.9zm15.7 20.6c-.4-.2-.4-.4 0-.7.3.3.3.4 0 .7zm3.9-13c-2.4 5.5-7.1-7.5-11.2.8-.6 2.4-4.5.5-3.5-1.6 2.5-4.6-.7-3.7-2.8-6.2.4-.2.8-.5 1.6-.9 2.6 3.5 4.4 1 6.5-.9 2.2-1.7 5.1 4.6 8.3 4.6 2.6.5 2 2.3 1.1 4.2zm54.6-7.4c.1 0 .2 0 .3-.1-.1 0-.2.1-.3.1zm3.2 3.9v-.2c-.1-.2-.3-.3-.4-.5.7-.2.5.2.4.5l.1.1c0-.1-.1.1-.1.1zm7.3-60.5c-2.6.4-6 .5-10.2.5-3 0-6.4-1.9-10.3-5.7l-35.3-36.4v20.4c0 3.3.2 5.5.7 6.6.3.8 1 1.5 1.9 2.1 1.3.8 2.8 1.2 4.3 1.2h2.1v1.8h-26.8v-1.8h2.2c2.6 0 4.5-.8 5.7-2.4.7-1.1 1.1-3.6 1.1-7.5v-42.8c0-3.3-.2-5.6-.7-6.7-.3-.8-.9-1.5-1.8-2-1.3-.8-2.8-1.2-4.3-1.2h-2.2v-1.8h26.8v1.8h-2.1c-1.5 0-2.9.4-4.3 1.1-.9.5-1.6 1.3-2 2.3-.4 1-.6 3.2-.6 6.5v19.3l23.1-23c.8-1.3 1.2-2.4 1.2-3.4 0-.7-.3-1.4-1-1.9-.7-.6-1.7-.9-3.2-.9H498v-1.8h20.4v1.8c-1.4 0-2.6.2-3.7.5-1.1.4-2.3 1.6-3.6 3.7l-24.7 23.5 38.7 39c2.1 2.5 5.1 3.8 8.8 3.8 2.6 0 5.3-1.1 8.2-3.3l.2.6c-2.2 3.7-4.5 5.7-7.1 6.1zm6.6-9.4v-1.8h2.3c2.7 0 4.7-.8 6-2.4.8-1.1 1.2-3.6 1.2-7.5v-42.8c0-3.3-.2-5.5-.7-6.6-.3-.9-1-1.6-2-2.1-1.4-.8-2.9-1.2-4.5-1.2h-2.3v-1.8h28.3v1.8h-2.4c-2.7 0-4.7.8-5.9 2.4-.9 1.1-1.3 3.6-1.3 7.5v42.8c0 3.3.2 5.5.7 6.6.3.8 1 1.5 2 2.1 1.4.8 2.9 1.2 4.5 1.2h2.4v1.8h-28.3zm27.5 89.4c-.3-6.3-1.4-13-1.4-17.1 5.4 0 3.4-5.4 5.6-7.8 3.5-9.2 6.3 19.4 7.4 21.6.1 1.9.7 2.9 1.3 3.3h-12.9zm78.8 37.2-2 2.6-57.4 74.7V411.8H583c.6-.4.9-1.8 0-3.9-.8-3.1-3.1-16.6 3.2-13.4.6.4 1.6 1.1 2.2.2-.1-3.6-3.3-9.9-.8-13.1 1.9 3.9 2.6 8.3 4 12.4.5 1.8-.3 4.6 1.9 4.8 1.7-.4-1.8-7.2 1.6-7.6.7-.2 1.9-1 2 .1.5 5.8 7 7.4 8.5 12.4 1.9 5.3 5.3 3.6 2.5-1.3-4.7-10.7.6-14.1.2-23.1-1.3-3.5 3.2-13.9 7.9-9.6 1.3 1.4.6 2.2-.7 3.1-2.8 2-2.8 5.6-4.3 8.3-.3.6-.5 1.4.2 1.7 1.2.5 1.1-.7 1.5-1.3 1.3-2.3 2.6-4.6 4.1-6.7.2-.3.3-2.9 1.6-.8 7.1 7-3.3 14.2-3.6 21.7-.3 3.5 3.3 4.9 4.6 1.4 9.4-18.4 14.6 6.9 25.1 10.3 3.9 1.7 0 6 2.3 6.8 6.2.2 5.2 7.4 9.5 9.5 2 1-1.7 1.7-.6 2.8 1.8 1.9 3.3 4 4.6 6.3L648.1 449zm14.5-37.1c-2.8 1.2-2.5-2-2.6-3.3-.8-5.2-1.3-10.3-3.8-15.1-.2-.5-.1-1.5.3-1.8 3-1.1 3.6 5.3 5 7.2 1.5 2.3-.7 5.5 1.6 7.8 1 1.2 1.8 4.3-.5 5.2zm28.8-9.9c-.3-.1-.5-.2-.8-.3.1-.2.2-.5.3-.7.2.1.5.1.7.2 0 .2-.1.5-.2.8zm-.7-65.7 1-.7c1.9 1.9 3.9 2.8 6 2.9 2.5 0 4.4-.7 5.7-2 1.4-.8 2.1-2.7 2.1-5.6v-10.8c-3.5 1.5-7.5 2.3-12 2.3-10.3 0-18.3-4.1-24-12.3-4.3-6.1-6.4-13.2-6.4-21.3 0-5.8 1.2-11.4 3.6-16.7 2.9-6.3 6.8-11.2 11.7-14.7 4.1-2.8 9.1-4.2 14.8-4.2 5.4 0 9.7 1 12.8 3.1 1.5.7 2.6 1.1 3.1 1.1 1.3-.7 2-2.1 2.1-4.2h1.5l1.5 20.9h-1.5c-1.5-5.2-3.4-9.1-5.7-11.8-3.4-3.8-7.7-5.7-13-5.7-7.3 0-12.8 3.3-16.6 10-3.1 5.7-4.7 12.4-4.7 20.1 0 6.3 1 12.1 3.1 17.3 2.1 5.2 4.9 9 8.2 11.4 3.4 2.4 6.6 3.7 9.5 3.7 2.1 0 4.1-.3 6-1 2-.6 3.9-1.5 5.9-2.8v-22.1c-.2-1.3-.5-2.5-1-3.5-.4-1-1-1.8-1.7-2.2-.7-.5-2-.7-3.8-.8h-2.2v-1.9h22.9v1.8h-1c-2.2 0-3.9 1.2-5.2 3.7v42.6c-.5 2.7-1.5 4.8-2.8 6.4-.9 1.2-2.1 2.1-3.7 2.6-2.1.4-3.7.6-5 .6-3.5 0-7.3-2.1-11.2-6.2zm20.8 53c-.6.1-1.2.1-1.8.2.1-1.2 1.4-1.5 1.8-.2zm13.4 2.1c-1.2.8-2.5 1.3-3.7 2v.2h-.2c-.4 4.9-3.2 6.9-7.9 6-4.5-.8-3.9 4.2-6.5 5.6-.4.2-.2 2.2-1 1.6-3.9-2.3-11.1-.7-9.7-7.4h-.1v-.1c-.1 0-.1 0-.1-.2-.5-.1-1-.2-1.5-.4.3-.4.6-.7.9-1.1.2.5.4.9.6 1.4.1 0 .2 0 .2.1v.2c2.5-.3 1.5-1.7.8-3-2.9-5.1 2.8-5.3 4.5-7.6 4.9-5.3 4.5 2.5 8.5.9 1 1.4 1.8 4.2 3 3.6 1.8-.9-.5-2.6-.9-4 5.1-6.3 6 2.3 9.4 4.2v-.1l.1.1-.1-.1s.1 0 .1-.1c.3-2.9-4.7-5-1.5-7.5 1.9-1.3 2.8 2.6 5.4 2.5 1.3.1 1 2.3-.3 3.2zm11.4 12h.3c.1.1.1.3.1.4.5.4.9.8 1.4 1.2-.9.7-1.4-.6-1.4-1.2-.1-.1-.2-.2-.3-.2l.1-.2-.1.2c0-.1 0-.1-.1-.2-.2 0-.3 0-.5.1.3-.6.4-.3.5-.1zm-3.8-9.9.3-.2v.3l-.3-.1zm37.7-129.7c.6.3.6.6.2 1.1-.6-.2-.3-.6-.2-1.1zm2.5-30.5v-.3l.3.2-.3.1zm476 178.5v169.7l-133.3-169.7h-72.1v277.6h72.1V519.7l133.3 169.7h71.8V411.8z"/>
    <path d="M903.5 551.9c.7 0 1.4.2 2.2.3-.4-.8-1.3-.9-1.9-1.4-4-2.8-8.5-3.7-13.3-2.8-3.9.7-7.7 1.9-11.9 1.1-.5.4-2-1-1.9.2.9 6.6 7.8 10.9 13.8 9.5 3.1-.7 5.5-2.6 7.8-4.5 1.6-1.3 3.2-2.4 5.2-2.4zm-34.9-4.9c-2.6-.3-4.8-1.5-7-2.8-3.5-2.1-6.5-5.2-11.1-5.7-2.6-1.1-5.4 0-8.3 0-.2 0-.4.2-.6.4.2.1.4.4.7.4 2.6.4 3.7 2.4 4.8 4.5 1.9 3.6 3.9 7.1 7.8 8.7 4.7 1.9 11.2-.1 14.1-4.2.5-.8.5-1.2-.4-1.3z" class="st3"/>
    <path d="M948.1 526.4c-2 2.1-4.4 3.6-7 4.8-4.3 1.9-8.8 1.9-13.4 1.8-.2 0-.4-.3-.5-.4-.1-.4.3-.3.5-.3 3-.4 5.6-1.6 8.4-2.7.2-.1.3-.3.5-.5-.2-.1-.4-.2-.5-.2-2.9.7-5.8.1-8.6-.2-2.4-.2-4.7-1.1-7-1.9-5.3-1.8-10-4.3-13.9-8.4-.3-.3-.7-.5-1.1-.7.1.4.2.8.4 1.2 3.7 5.8 8.6 10.3 14.7 13.5.2.1.3.4.3.6 0 0-.3.3-.4.2-3.3-.6-6.6-1.4-9.6-2.8-.7-.3-1.7-1-2.1-.5-.4.5.6 1 1.1 1.4.1.1.2.3.4.4 3.5 3.3 7.4 5.9 11.9 7.4 4.3 1.4 8.8 2.5 13.6 1.9 5.9-.7 12.1-4.5 12.9-11.5l.6-2.7c.1-.3.1-.8-.1-.9-.6-.2-.8.3-1.1.5zm-126.2-16.8c-4.3-2.7-7.7-6.3-9.5-11.2-.1-.2-.3-.3-.5-.5-.1.2-.4.3-.4.5-.3 2.6-1.4 5-1.1 7.8.5 4.2 2.6 7.4 5.8 9.7 3.5 2.5 7.6 3.9 11.7 4.1 2.6.5 4.9.5 7.2.4 4.2-.1 8.1-1.5 12-2.7.2-.1.3-.3.5-.5-.2-.1-.4-.2-.6-.2-3.6.1-7.1-.3-10.5-1-.6-.1-1.7 0-1.6-.6.1-.7 1.1-.2 1.6-.3 6.5-1.4 12.9-2.8 18.2-7.2.2-.1.3-.3.5-.5-.2 0-.5-.1-.7 0-2.5.8-4.9 1.7-7.5 2.2-3.8.6-7.6.6-11.3.2-4.6-.5-9.1-1.8-13.1-4.3-.1-.1-.4 0-.6 0 .1.2.1.4.2.5 2 2.1 3.9 4.3 6.4 5.7.1.1.2.2.3.4-.1.1-.2.2-.3.2-2.3-.4-4.6-1.4-6.7-2.7zM923 577c-1.7-3.8-3.8-7.5-5.7-11.2-.3-.5-.6-.7-1.1 0-1.8 2.8-4.5 4.8-7.3 6.6-2.9 1.9-6.1 2.7-9.4 3.2-.6.1-1.5.8-1.8.1-.3-.9 1-.4 1.4-.8.1-.1.2-.1.3-.2 3.9-2.2 7.4-4.9 9.9-8.7 2.6-4 4.4-8.3 4-13.1-.5-7-3.7-12.8-8.7-17.6-3.1-3-6.5-5.7-9.2-9-2.1-2.6-4.7-3.1-7.4-3.4-2.4-.3-4.6.9-6 2.7-2.1 2.6-3.7 5.6-5.6 8.5-.1.2-.4.3-.6.5-.1-.2-.2-.4-.3-.7-1-2.4-.8-5.1-1.1-7.6-.5-3.5-3.2-6.7-6.4-7.6-2.9-.8-5.2-.1-7.8 1.1-3.9 1.7-8.1 2.9-12 4.6-3.4 1.4-6.5 3.4-9.2 6-2.2 2.1-4.2 4.5-5.1 7.4-1.6 5.1-2 10.3-.5 15.5 1.3 4.7 3.2 9 6.7 12.5.1.1.1.4.2.6-.3-.1-.7 0-.9-.2-2.6-1.8-5.3-3.5-7.5-5.9-2-2.3-4-4.6-4.8-7.6-.2-.8-.6-.4-.9-.1-2.1 2.1-4.2 4.1-6.1 6.2-2.2 2.5-4.5 5-6.4 7.8-2.1 3.2-4.2 6.5-5.6 10.1-1 2.6-2.3 5.2-3.2 7.9-.9 2.8-1.8 5.5-2.6 8.2-.2.5-.4 1.2-.2 1.7.1.3 1 .4 1.5.3 2.6-.1 5.2-.4 7.8-.5 4.3-.1 8.6-.2 12.9-.1 4.6.1 9.3.3 13.9.6 3.4.2 6.8.6 10.2 1 10.1 1.4 20.1 3.3 29.9 6.1 2.1.6 4.2 1.3 6.3 2 3.9 1.3 7.6 2.9 11.4 4.4 2.1.8 4.2 1.6 6.3 2.5 3.7 1.7 7.3 3.8 11.6 4.5 1.8.5 3.8 1.1 5.7.4 5.3-1.9 8.7-5.8 10.2-11s-.5-10.4-2-15.4c-1.4-4.2-3.1-8.2-4.8-12.3zm-33.2-148 .3 1.5c.2.8.4 1.5.7 2.3.4 1 .8 2.1 1.3 3.1.2.5.5 1 .7 1.5 1 1.9 2.2 3.6 3.4 4.8.1.2.3.3.4.4.3.3.6.5.9.7.1.1.3.2.4.3.4.2.9.4 1.3.5.9.1 1.9-.1 3.1-.6 5-2.1 11.7-9.1 12.6-13.9.1-.4.1-.7.1-1.1 0-.7 0-1.5-.2-2.3s-.4-1.5-.7-2.2c-.6-1.5-1.5-2.9-2.6-4.1-1.1-1.2-2.4-2.3-3.9-3-1.1-.6-2.2-1-3.4-1.2-4.1-.7-8.4.8-11.3 3.5-1.7 1.6-3 3.6-3.4 5.9 0 1.1 0 2.4.3 3.9z" class="st4"/>
    <path d="M917.3 624.5c-2.6-2.1-5.3-4-8.1-5.9-2.8-1.8-5.8-3.2-8.8-4.7-2.9-1.4-5.9-2.4-8.9-3.6-4.2-1.7-8.6-3-12.9-4.2-9.4-2.4-19-4-28.7-4.8-2.5-.2-5-.4-7.5-.4-3.7 0-7.4.3-11.2.4-3.9.1-7.8.6-11.6 1.3-4.7.8-9.3 2-13.7 3.8-.3.1-.9.3-.9.4.1.5.6.4.9.5 3.7.2 7.5 0 11.1.7 6.7 1.2 13.6 2.1 19.6 5.2 1 0 1.6.3 2.1.7.1.1.2.2.3.4-.2 0-.3.1-.5.1-1.5-.5-3.1-.3-4.6-.5-5.4-.6-10.6 0-15.7 1.4-.5.2-1.5.3-.9 1.2 1.6 2.8 3.2 5.6 5.1 8.2 4.5 6 9.5 11.3 16 15.2 4.1 2.4 8.4 4.5 13 5.7 8.2 2.2 16.6 3.3 25.1 3.1 4.4-.1 8.8 0 13.2-.7 5-.8 9.7-2.5 14-5.2 5.6-3.5 10-8.2 13.2-13.9.8-1.1 2.7-2.6.4-4.4zm68.5-136.1s0 .1 0 0c0 .1.1.1.1.1l-.1-.1c0 .1 0 0 0 0zm-25.3 9.4c-3.7-3.6-7.9-6.4-12.6-8.3-4.7-1.8-9.6-2.8-14.8-2.6-4.9.1-9.6 1-14.2 2.3-4.3 1.3-8.7 2.9-12.6 5.3-.2.1-.4.1-.6.1.1-.2.2-.4.3-.5 3.4-2.3 6.5-5 10.1-7.1.7-.4 2.1-.4 1.9-1.3-.3-1-1.4-.1-2.1-.1-.1 0-.3-.1-.4-.1-1.9 0-3.8-.1-5.6.1-5.8.7-11.4 2.4-17.2 3-4.3.4-8.3 0-12.2-2-3.9-2-7.5-4.6-11.1-7-4-2.6-8.1-4.9-12.5-6.8-.2-.1-.5 0-.7 0 .1.2.1.5.2.6 2.9 3.1 4.6 6.9 6.8 10.4.4.6 1.4 1.5.9 1.9-.7.5-.9-.8-1.3-1.3-4-4.7-8.5-8.9-13.5-12.4-4-2.8-8.3-4.9-13-6.1-2.6-.7-5.1-1.3-7.9-1.1-2.8 0-5.5 0-8.3.5-7.4 1.2-13.8 4.4-19.1 9.8-3.3 3.4-4.9 7.7-6.7 11.9-.1.2 0 .4.1.6.2-.1.5-.1.7-.2 3.6-2.4 7.3-4.2 11.6-5.1 4.1-.9 8.1-.8 12.2-.1 1.4.2 2.8.6 4.1 1.3.2.1.8.1.9-.1.3-.4-.3-.5-.5-.7-1-1.1-2-2.3-2.9-3.4-.1-.1 0-.4 0-.6h.3c1.3 1 2.8 1.7 4.2 2.6 3.5 2 7.1 3.5 10.9 4.8.2.1.5 0 .8 0-.1-.3-.1-.6-.3-.8-2.1-2.1-3.3-4.8-4.4-7.5-.1-.2-.1-.4-.1-.7.2.1.4.1.5.2 1.9 2.8 4.2 5.3 6.7 7.5 4 3.4 8.3 6.4 13 8.8 3 1.6 6.3 2.9 9.5 4 2.9 1.1 6 1.3 9.1 1.1 1.2-.1 2.5-1.7 3.6-.3.9 1 2.1 1.7 3.1 1.9 4.8 1.1 9.6 3.1 14.7 1.6.6-.2 1.1-.1 1.5.4 1.4 1.8 3.6 2.4 5.6 3 4.2 1.4 8.7 1.2 13.1 1 3.8-.1 7.7-.7 11.4-1.6 5.3-1.2 10.6-2.5 15-5.9.1-.1.4-.1.6-.1-.1.2-.1.4-.2.6-1.9 2.3-4.2 4.1-7 5.3-.2.1-.4.3-.5.5.2.1.4.3.6.3 1.5.1 3 .5 4.5.4 4.1-.3 8.2.1 12.1-1.3.1 0 .3.1.5.1-.1.1-.1.3-.2.4-.8.5-1.5 1-2.3 1.4-.8.4-1.6.8-2.3 1.2.8 1 1.8.1 2.7.3 3.6.6 7.1 1.7 10.4 3.3 4.8 2.4 8.4 6.1 11.3 10.6.3.5 1 1.3 1 1.3s0-.9.1-1.5c.6-3 .5-6.1-.2-9.1-2-5.2-4.9-10.4-9.3-14.7z" class="st4"/>
    <path d="m985.7 488.3.1.1c-.1 0-.1-.1-.1-.1zm-.1-.1.1.1z" class="st4"/>
    <path d="M1027.1 442.8c1.6-.6 3.8-2.8 3.9-4.3.4-9.7.8-19.4-.1-29-.5-4.8-3.8-9.3-5.8-14-3 5.9-4.2 11.3-6.1 16.4-5.8 14.9-15.8 18-29.4 10-4.4-2.6-5.8-5.3-4.8-10.7 2.4-13.8 3.8-27.7.4-41.6-1.4-6-3.4-11.8-9.4-15.3-1.1 5.9-2 11.3-3.3 16.6-1.3 5.4-2.7 10.8-4.4 16-3.5 10.8-9 20.3-19.7 25.5-2.7 1.3-5.6 1.8-8.4 1.6-.4-.2-.8-.3-1.3-.5-2.8-1.1-5.7-2.1-8.5-3.1-4.9-3.5-8.2-9.2-7.9-15.6 1.1-19.5 2.1-38.9 2.9-58.4.3-7.6-.2-15.3-.4-22.9-.6-.1-1.1-.2-1.7-.2-1.1 2.1-2.3 4.1-3.1 6.3-8.3 22.9-17 45.7-24.6 68.8-3 9.2-9.9 11.3-17.3 13.2-6.9 1.8-11.7-2.5-15.7-7.7-7.6-9.9-8.1-21.4-6.7-33 1.2-9.5 3.5-19 5.5-29.2-9.3 1.7-14.4 7.6-17.3 14.3-5.1 11.7-9.1 23.9-13 36.1-1.2 3.8-2.4 6-6.6 6.9-17.3 3.6-26.5-4-25.5-21.9.3-4.9 1.1-9.8 1.8-15.4-1.8 1-2.8 1.4-3.6 2-12.2 9.1-16.4 22.6-19.6 36.6-.3 1.2.5 3.2 1.4 4 12.2 10.2 11.7 22.9 6.1 34.8-6.7 4.6-12.9 9.7-18.6 15.3-13.5 13.2-24.1 28.8-31.7 46.6-7.6 17.8-11.4 37-11.4 57.6s3.8 39.8 11.4 57.6c7.6 17.8 18.2 33.3 31.7 46.6 13.5 13.3 29.6 23.6 48.4 31.1 18.8 7.5 39.4 11.2 62 11.2 22.3 0 42.9-3.7 61.8-11.2 18.9-7.5 35.2-17.9 48.8-31.1 13.6-13.2 24.2-28.8 31.8-46.6 7.6-17.8 11.4-37 11.4-57.6s-3.8-39.8-11.4-57.6c-3.5-8.3-7.7-16.1-12.6-23.4.2-12.3 8.1-20.1 20.6-24.8zm-122.8-27.1c1.2.2 2.4.6 3.4 1.2 1.4.8 2.8 1.8 3.9 3s2 2.6 2.6 4.1c.3.7.5 1.5.7 2.2s.2 1.5.2 2.3c0 .4-.1.7-.1 1.1-.9 4.8-7.6 11.8-12.6 13.9-1.1.5-2.2.7-3.1.6-.4-.1-.8-.2-1.3-.5-.1-.1-.3-.2-.4-.3-.3-.2-.6-.4-.9-.7l-.4-.4c-1.2-1.2-2.4-2.9-3.4-4.8-.3-.5-.5-1-.7-1.5-.5-1-.9-2-1.3-3.1-.3-.8-.5-1.5-.7-2.3l-.3-1.5c-.3-1.5-.3-2.8-.1-4 .4-2.2 1.6-4.3 3.4-5.9 2.7-2.6 7.1-4.1 11.1-3.4zm12.6 213.4c-3.2 5.7-7.6 10.5-13.2 13.9-4.3 2.6-8.9 4.4-14 5.2-4.4.7-8.8.6-13.2.7-8.6.1-16.9-.9-25.1-3.1-4.5-1.2-8.9-3.2-13-5.7-6.5-3.9-11.6-9.2-16-15.2-1.9-2.6-3.5-5.4-5.1-8.2-.5-.9.4-1.1.9-1.2 5.1-1.5 10.3-2 15.7-1.4 1.5.2 3.1 0 4.6.5.1 0 .3-.1.5-.1-.1-.1-.2-.3-.3-.4-.5-.4-1.1-.7-2.1-.7-6-3.1-12.8-4-19.6-5.2-3.6-.7-7.4-.5-11.1-.7-.4 0-.9.1-.9-.5 0-.1.5-.3.9-.4 4.4-1.8 9-3.1 13.7-3.8 3.8-.6 7.7-1.2 11.6-1.3 3.7-.1 7.4-.4 11.2-.4 2.5 0 5 .2 7.5.4 9.7.8 19.3 2.4 28.7 4.8 4.4 1.1 8.7 2.4 12.9 4.2 2.9 1.2 6 2.2 8.9 3.6 3 1.5 6 2.8 8.8 4.7 2.8 1.8 5.5 3.8 8.1 5.9 2.3 1.6.4 3.1-.4 4.4zm12.8-24.4c-1.5 5.2-4.9 9.1-10.2 11-1.9.7-3.9.1-5.7-.4-4.3-.7-7.8-2.8-11.6-4.5-2-.9-4.2-1.7-6.3-2.5-3.8-1.5-7.6-3.1-11.4-4.4-2.1-.7-4.2-1.4-6.3-2-9.8-2.8-19.8-4.7-29.9-6.1-3.4-.5-6.8-.8-10.2-1-4.6-.3-9.3-.5-13.9-.6-4.3-.1-8.6 0-12.9.1-2.6.1-5.2.3-7.8.5-.5 0-1.4-.1-1.5-.3-.2-.5 0-1.1.2-1.7.9-2.8 1.8-5.5 2.6-8.2.9-2.7 2.1-5.3 3.2-7.9 1.4-3.6 3.5-6.9 5.6-10.1 1.8-2.8 4.1-5.3 6.4-7.8 1.9-2.2 4.1-4.2 6.1-6.2.3-.3.7-.7.9.1.8 3.1 2.8 5.4 4.8 7.6 2.2 2.4 4.9 4.1 7.5 5.9.2.2.6.1.9.2-.1-.2 0-.5-.2-.6-3.5-3.5-5.4-7.8-6.7-12.5-1.5-5.2-1.2-10.5.5-15.5.9-2.9 2.8-5.3 5.1-7.4 2.7-2.6 5.8-4.5 9.2-6 3.9-1.7 8.1-2.9 12-4.6 2.6-1.1 4.9-1.9 7.8-1.1 3.2.9 6 4 6.4 7.6.3 2.5.1 5.2 1.1 7.6.1.2.2.4.3.7.2-.2.5-.3.6-.5 1.9-2.8 3.5-5.8 5.6-8.5 1.4-1.8 3.6-3 6-2.7 2.8.3 5.4.9 7.4 3.4 2.7 3.3 6.1 6 9.2 9 5 4.8 8.2 10.6 8.7 17.6.3 4.8-1.4 9-4 13.1-2.5 3.9-6 6.5-9.9 8.7-.1.1-.2.1-.3.2-.4.5-1.6 0-1.4.8.2.7 1.2 0 1.8-.1 3.3-.5 6.5-1.3 9.4-3.2 2.8-1.8 5.4-3.8 7.3-6.6.5-.7.8-.5 1.1 0 2 3.7 4 7.4 5.7 11.2 1.8 4 3.5 8.1 4.8 12.3 1.5 5 3.6 10.1 2 15.4zm-100.9-92.8c-2.6-1.4-4.5-3.6-6.4-5.7-.1-.1-.1-.4-.2-.5.2 0 .4-.1.6 0 4 2.5 8.5 3.8 13.1 4.3 3.7.4 7.5.4 11.3-.2 2.6-.4 5-1.3 7.5-2.2.2-.1.5 0 .7 0l-.5.5c-5.3 4.4-11.7 5.9-18.2 7.2-.6.1-1.6-.4-1.6.3 0 .6 1.1.5 1.6.6 3.5.7 7 1.2 10.5 1 .2 0 .4.1.6.2-.2.2-.3.4-.5.5-3.9 1.2-7.8 2.5-12 2.7-2.4.1-4.7.1-7.2-.4-4.1-.2-8.2-1.6-11.7-4.1-3.2-2.3-5.4-5.5-5.8-9.7-.3-2.8.7-5.2 1.1-7.8 0-.2.2-.3.4-.5.2.2.4.3.5.5 1.7 4.9 5.1 8.5 9.5 11.2 2.1 1.3 4.4 2.3 6.8 2.8.1 0 .2-.1.3-.2-.2-.3-.3-.5-.4-.5zm120.2 15-.6 2.7c-.8 7-7 10.8-12.9 11.5-4.8.5-9.2-.5-13.6-1.9-4.5-1.5-8.4-4.2-11.9-7.4-.1-.1-.2-.3-.4-.4-.5-.4-1.6-.9-1.1-1.4.4-.5 1.4.2 2.1.5 3.1 1.4 6.3 2.2 9.6 2.8.1 0 .4-.2.4-.2-.1-.2-.2-.5-.3-.6-6.1-3.2-11-7.7-14.7-13.5-.2-.3-.3-.8-.4-1.2.4.2.8.4 1.1.7 3.9 4 8.6 6.6 13.9 8.4 2.3.8 4.6 1.7 7 1.9 2.8.3 5.7.8 8.6.2.2 0 .4.1.5.2-.2.2-.3.4-.5.5-2.7 1.1-5.4 2.3-8.4 2.7-.2 0-.6-.1-.5.3 0 .2.3.4.5.4 4.6.1 9.1.1 13.4-1.8 2.6-1.2 5-2.7 7-4.8.2-.2.5-.7.9-.4.4 0 .4.5.3.8zm20.4-4.6c-.1.5-.1 1.5-.1 1.5s-.7-.8-1-1.3c-2.9-4.4-6.6-8.2-11.3-10.6-3.3-1.6-6.8-2.7-10.4-3.3-.9-.1-1.9.8-2.7-.3.8-.4 1.6-.8 2.3-1.2.8-.4 1.6-.9 2.3-1.4.1-.1.2-.3.2-.4-.2-.1-.4-.2-.5-.1-3.9 1.4-8.1 1-12.1 1.3-1.5.1-3-.2-4.5-.4-.2 0-.4-.2-.6-.3.2-.2.3-.4.5-.5 2.8-1.2 5.1-3 7-5.3.1-.2.2-.4.2-.6-.2 0-.4 0-.6.1-4.4 3.4-9.7 4.7-15 5.9-3.8.8-7.6 1.5-11.4 1.6-4.4.1-8.9.4-13.1-1-2-.7-4.1-1.2-5.6-3-.4-.5-.9-.5-1.5-.4-5.1 1.5-9.9-.6-14.7-1.6-1-.2-2.2-.9-3.1-1.9-1.2-1.4-2.4.2-3.6.3-3.1.2-6.2-.1-9.1-1.1-3.2-1.2-6.5-2.4-9.5-4-4.6-2.4-9-5.4-13-8.8-2.6-2.2-4.8-4.7-6.7-7.5-.1-.1-.3-.2-.5-.2 0 .2 0 .5.1.7 1.1 2.7 2.3 5.4 4.4 7.5.2.2.2.5.3.8-.3 0-.5.1-.8 0-3.8-1.3-7.4-2.8-10.9-4.8-1.4-.8-2.9-1.6-4.2-2.6-.1-.1-.2 0-.3 0 0 .2-.1.5 0 .6 1 1.2 1.9 2.3 2.9 3.4.2.2.7.3.5.7-.1.2-.7.2-.9.1-1.3-.8-2.6-1.1-4.1-1.3-4.1-.7-8.1-.8-12.2.1-4.3.9-8 2.7-11.6 5.1-.2.1-.5.1-.7.2 0-.2-.1-.4-.1-.6 1.8-4.2 3.4-8.6 6.7-11.9 5.3-5.4 11.7-8.6 19.1-9.8 2.8-.5 5.5-.5 8.3-.5 2.7-.2 5.3.5 7.9 1.1 4.7 1.2 9 3.4 13 6.1 5.1 3.5 9.5 7.7 13.5 12.4.4.5.6 1.8 1.3 1.3.5-.3-.5-1.3-.9-1.9-2.2-3.5-3.9-7.3-6.8-10.4-.1-.1-.1-.4-.2-.6.3 0 .5-.1.7 0 4.4 1.9 8.5 4.1 12.5 6.8 3.6 2.4 7.2 5 11.1 7 3.9 2 7.9 2.5 12.2 2 5.8-.6 11.4-2.4 17.2-3 1.9-.2 3.7-.1 5.6-.1.1 0 .3.1.4.1.7 0 1.9-.9 2.1.1.2.9-1.2.9-1.9 1.3-3.6 2-6.7 4.7-10.1 7.1-.2.1-.2.4-.3.5.2 0 .5 0 .6-.1 3.9-2.5 8.2-4.1 12.6-5.3 4.6-1.3 9.3-2.2 14.2-2.3 5.2-.1 10.1.8 14.8 2.6 4.7 1.8 8.9 4.6 12.6 8.3 4.4 4.3 7.3 9.5 8.7 15.4 1.3 2.3 1.4 5.4.8 8.4zm16.2-34.1zm.2.3s0-.1 0 0c-.1-.1-.1-.2-.2-.2.1 0 .1.1.2.2 0-.1 0 0 0 0zm0 0z" class="st3"/>
    <path d="M923 577c-1.7-3.8-3.8-7.5-5.7-11.2-.3-.5-.6-.7-1.1 0-1.8 2.8-4.5 4.8-7.3 6.6-2.9 1.9-6.1 2.7-9.4 3.2-.6.1-1.5.8-1.8.1-.3-.9 1-.4 1.4-.8.1-.1.2-.1.3-.2 3.9-2.2 7.4-4.9 9.9-8.7 2.6-4 4.4-8.3 4-13.1-.5-7-3.7-12.8-8.7-17.6-3.1-3-6.5-5.7-9.2-9-2.1-2.6-4.7-3.1-7.4-3.4-2.4-.3-4.6.9-6 2.7-2.1 2.6-3.7 5.6-5.6 8.5-.1.2-.4.3-.6.5-.1-.2-.2-.4-.3-.7-1-2.4-.8-5.1-1.1-7.6-.5-3.5-3.2-6.7-6.4-7.6-2.9-.8-5.2-.1-7.8 1.1-3.9 1.7-8.1 2.9-12 4.6-3.4 1.4-6.5 3.4-9.2 6-2.2 2.1-4.2 4.5-5.1 7.4-1.6 5.1-2 10.3-.5 15.5 1.3 4.7 3.2 9 6.7 12.5.1.1.1.4.2.6-.3-.1-.7 0-.9-.2-2.6-1.8-5.3-3.5-7.5-5.9-2-2.3-4-4.6-4.8-7.6-.2-.8-.6-.4-.9-.1-2.1 2.1-4.2 4.1-6.1 6.2-2.2 2.5-4.5 5-6.4 7.8-2.1 3.2-4.2 6.5-5.6 10.1-1 2.6-2.3 5.2-3.2 7.9-.9 2.8-1.8 5.5-2.6 8.2-.2.5-.4 1.2-.2 1.7.1.3 1 .4 1.5.3 2.6-.1 5.2-.4 7.8-.5 4.3-.1 8.6-.2 12.9-.1 4.6.1 9.3.3 13.9.6 3.4.2 6.8.6 10.2 1 10.1 1.4 20.1 3.3 29.9 6.1 2.1.6 4.2 1.3 6.3 2 3.9 1.3 7.6 2.9 11.4 4.4 2.1.8 4.2 1.6 6.3 2.5 3.7 1.7 7.3 3.8 11.6 4.5 1.8.5 3.8 1.1 5.7.4 5.3-1.9 8.7-5.8 10.2-11s-.5-10.4-2-15.4c-1.4-4.2-3.1-8.2-4.8-12.3zm-53.9-28.8c-2.8 4.1-9.4 6.2-14.1 4.2-4-1.6-6-5.1-7.8-8.7-1.1-2.1-2.2-4.1-4.8-4.5-.2 0-.5-.3-.7-.4.2-.1.4-.4.6-.4 2.9 0 5.7-1.1 8.3 0 4.6.5 7.6 3.6 11.1 5.7 2.2 1.3 4.4 2.5 7 2.8.8.2.8.6.4 1.3zm21.5 10.7c-6.1 1.4-12.9-3-13.8-9.5-.2-1.2 1.4.2 1.9-.2 4.2.7 8-.4 11.9-1.1 4.8-.9 9.2 0 13.3 2.8.6.4 1.5.6 1.9 1.4-.7-.1-1.4-.3-2.2-.3-2.1 0-3.6 1.2-5.1 2.4-2.4 1.9-4.8 3.8-7.9 4.5z" class="st2"/>
    <path d="M917.3 624.5c-2.6-2.1-5.3-4-8.1-5.9-2.8-1.8-5.8-3.2-8.8-4.7-2.9-1.4-5.9-2.4-8.9-3.6-4.2-1.7-8.6-3-12.9-4.2-9.4-2.4-19-4-28.7-4.8-2.5-.2-5-.4-7.5-.4-3.7 0-7.4.3-11.2.4-3.9.1-7.8.6-11.6 1.3-4.7.8-9.3 2-13.7 3.8-.3.1-.9.3-.9.4.1.5.6.4.9.5 3.7.2 7.5 0 11.1.7 6.7 1.2 13.6 2.1 19.6 5.2 1 0 1.6.3 2.1.7.1.1.2.2.3.4-.2 0-.3.1-.5.1-1.5-.5-3.1-.3-4.6-.5-5.4-.6-10.6 0-15.7 1.4-.5.2-1.5.3-.9 1.2 1.6 2.8 3.2 5.6 5.1 8.2 4.5 6 9.5 11.3 16 15.2 4.1 2.4 8.4 4.5 13 5.7 8.2 2.2 16.6 3.3 25.1 3.1 4.4-.1 8.8 0 13.2-.7 5-.8 9.7-2.5 14-5.2 5.6-3.5 10-8.2 13.2-13.9.8-1.1 2.7-2.6.4-4.4zm43.2-126.7c-3.7-3.6-7.9-6.4-12.6-8.3-4.7-1.8-9.6-2.8-14.8-2.6-4.9.1-9.6 1-14.2 2.3-4.3 1.3-8.7 2.9-12.6 5.3-.2.1-.4.1-.6.1.1-.2.2-.4.3-.5 3.4-2.3 6.5-5 10.1-7.1.7-.4 2.1-.4 1.9-1.3-.3-1-1.4-.1-2.1-.1-.1 0-.3-.1-.4-.1-1.9 0-3.8-.1-5.6.1-5.8.7-11.4 2.4-17.2 3-4.3.4-8.3 0-12.2-2-3.9-2-7.5-4.6-11.1-7-4-2.6-8.1-4.9-12.5-6.8-.2-.1-.5 0-.7 0 .1.2.1.5.2.6 2.9 3.1 4.6 6.9 6.8 10.4.4.6 1.4 1.5.9 1.9-.7.5-.9-.8-1.3-1.3-4-4.7-8.5-8.9-13.5-12.4-4-2.8-8.3-4.9-13-6.1-2.6-.7-5.1-1.3-7.9-1.1-2.8 0-5.5 0-8.3.5-7.4 1.2-13.8 4.4-19.1 9.8-3.3 3.4-4.9 7.7-6.7 11.9-.1.2 0 .4.1.6.2-.1.5-.1.7-.2 3.6-2.4 7.3-4.2 11.6-5.1 4.1-.9 8.1-.8 12.2-.1 1.4.2 2.8.6 4.1 1.3.2.1.8.1.9-.1.3-.4-.3-.5-.5-.7-1-1.1-2-2.3-2.9-3.4-.1-.1 0-.4 0-.6h.3c1.3 1 2.8 1.7 4.2 2.6 3.5 2 7.1 3.5 10.9 4.8.2.1.5 0 .8 0-.1-.3-.1-.6-.3-.8-2.1-2.1-3.3-4.8-4.4-7.5-.1-.2-.1-.4-.1-.7.2.1.4.1.5.2 1.9 2.8 4.2 5.3 6.7 7.5 4 3.4 8.3 6.4 13 8.8 3 1.6 6.3 2.9 9.5 4 2.9 1.1 6 1.3 9.1 1.1 1.2-.1 2.5-1.7 3.6-.3.9 1 2.1 1.7 3.1 1.9 4.8 1.1 9.6 3.1 14.7 1.6.6-.2 1.1-.1 1.5.4 1.4 1.8 3.6 2.4 5.6 3 4.2 1.4 8.7 1.2 13.1 1 3.8-.1 7.7-.7 11.4-1.6 5.3-1.2 10.6-2.5 15-5.9.1-.1.4-.1.6-.1-.1.2-.1.4-.2.6-1.9 2.3-4.2 4.1-7 5.3-.2.1-.4.3-.5.5.2.1.4.3.6.3 1.5.1 3 .5 4.5.4 4.1-.3 8.2.1 12.1-1.3.1 0 .3.1.5.1-.1.1-.1.3-.2.4-.8.5-1.5 1-2.3 1.4-.8.4-1.6.8-2.3 1.2.8 1 1.8.1 2.7.3 3.6.6 7.1 1.7 10.4 3.3 4.8 2.4 8.4 6.1 11.3 10.6.3.5 1 1.3 1 1.3s0-.9.1-1.5c.6-3 .5-6.1-.2-9.1-2-5.2-4.9-10.4-9.3-14.7zm-12.4 28.6c-2 2.1-4.4 3.6-7 4.8-4.3 1.9-8.8 1.9-13.4 1.8-.2 0-.4-.3-.5-.4-.1-.4.3-.3.5-.3 3-.4 5.6-1.6 8.4-2.7.2-.1.3-.3.5-.5-.2-.1-.4-.2-.5-.2-2.9.7-5.8.1-8.6-.2-2.4-.2-4.7-1.1-7-1.9-5.3-1.8-10-4.3-13.9-8.4-.3-.3-.7-.5-1.1-.7.1.4.2.8.4 1.2 3.7 5.8 8.6 10.3 14.7 13.5.2.1.3.4.3.6 0 0-.3.3-.4.2-3.3-.6-6.6-1.4-9.6-2.8-.7-.3-1.7-1-2.1-.5-.4.5.6 1 1.1 1.4.1.1.2.3.4.4 3.5 3.3 7.4 5.9 11.9 7.4 4.3 1.4 8.8 2.5 13.6 1.9 5.9-.7 12.1-4.5 12.9-11.5l.6-2.7c.1-.3.1-.8-.1-.9-.6-.2-.8.3-1.1.5zm-126.2-16.8c-4.3-2.7-7.7-6.3-9.5-11.2-.1-.2-.3-.3-.5-.5-.1.2-.4.3-.4.5-.3 2.6-1.4 5-1.1 7.8.5 4.2 2.6 7.4 5.8 9.7 3.5 2.5 7.6 3.9 11.7 4.1 2.6.5 4.9.5 7.2.4 4.2-.1 8.1-1.5 12-2.7.2-.1.3-.3.5-.5-.2-.1-.4-.2-.6-.2-3.6.1-7.1-.3-10.5-1-.6-.1-1.7 0-1.6-.6.1-.7 1.1-.2 1.6-.3 6.5-1.4 12.9-2.8 18.2-7.2.2-.1.3-.3.5-.5-.2 0-.5-.1-.7 0-2.5.8-4.9 1.7-7.5 2.2-3.8.6-7.6.6-11.3.2-4.6-.5-9.1-1.8-13.1-4.3-.1-.1-.4 0-.6 0 .1.2.1.4.2.5 2 2.1 3.9 4.3 6.4 5.7.1.1.2.2.3.4-.1.1-.2.2-.3.2-2.3-.4-4.6-1.4-6.7-2.7zm163.7-21.4.1.1zm.2.3s0-.1 0 0c0-.1 0 0 0 0zm-.1-.2.1.1c-.1 0-.1-.1-.1-.1zm.1.2z" class="st2"/>
  </g>
</svg>
