<?xml version="1.0" encoding="utf-8"?>
<!-- Generator: Adobe Illustrator 26.0.1, SVG Export Plug-In . SVG Version: 6.00 Build 0)  -->
<svg version="1.1" id="Layer_1" xmlns="http://www.w3.org/2000/svg" xmlns:xlink="http://www.w3.org/1999/xlink" x="0px" y="0px"
	 viewBox="0 0 235.6 35.9" style="enable-background:new 0 0 235.6 35.9;" xml:space="preserve">
<g>
	<path d="M0,0h8.3L6.8,2.1v28.8h3.6V2.1L8.7,0H17l-1.5,2.1v31.3l2.1,2.2h-11c-3.4,0-5.1-0.7-5.1-2.1V2.1L0,0z"/>
	<path d="M19.8,2.1L18.3,0h8.3l-1.5,2.1v9.5l3.5-9.7V0h6.8l-1.6,2.2l0,0l-4.4,12.8l4.4,18.5l1.5,2.2h-6.8v-2l-3.5-14.1v14l1.5,2.1
		h-8.3l1.5-2.1V17.7H18l1.8-4.8V2.1z"/>
	<path d="M52.7,20.9c0.1,1.2,0.3,2.4,0.7,3.5c0.3,1.1,0.8,2.2,1.4,3.1c0.6,1,1.3,1.7,2.3,2.3h0.6l1.9-2.1v7.8h-2.2
		c-1.2,0-2.3-0.3-3.3-0.9s-1.8-1.4-2.6-2.5c-0.8-1-1.4-2.2-1.9-3.4c-0.5-1.3-0.9-2.5-1.3-3.8s-0.6-2.5-0.7-3.6
		c-0.2-1.2-0.2-2.1-0.2-2.9v-1.4c0.1-1.6,0.3-3.3,0.6-5.2c0.3-1.9,0.8-3.6,1.6-5.2c0.8-1.6,1.8-3,3.1-4.2C54,1,55.7,0.3,57.7,0h1.9
		v7.5l-1.8-1.9H57c-0.6,0-1.1,0.2-1.6,0.7c-0.4,0.5-0.8,1.1-1.2,1.9c-0.3,0.8-0.6,1.6-0.8,2.5c-0.2,0.9-0.4,1.8-0.5,2.7
		c-0.1,0.9-0.2,1.7-0.3,2.4c0,0.7-0.1,1.3-0.1,1.7C52.6,18.6,52.6,19.7,52.7,20.9z"/>
	<path d="M70.3,33h-9.7l1.3-1.9V4.4l-1.3-1.9h7.1l-1.2,1.9v24.5h3.1l1.8-1.5L70.3,33z"/>
	<path d="M87,33h-7.3l1.3-1.8V17.7h-2.9v13.5l1.3,1.8h-7.3l1.4-1.8V17.7H72l1.6-4.3V4.9c0-0.4,0.2-0.8,0.5-1.1
		c0.3-0.3,0.7-0.6,1.1-0.8c0.4-0.2,0.9-0.4,1.4-0.5c0.5-0.1,1-0.2,1.4-0.2h3.3c0.4,0,0.9,0,1.3,0.1C83,2.7,83.5,2.8,83.9,3
		c0.4,0.2,0.8,0.5,1.1,0.8c0.3,0.3,0.5,0.7,0.6,1.1v26.3L87,33z M78.2,6.5v6.8H81V6.5H78.2z"/>
	<path d="M89.5,28.9h4.2L87.9,7.2V4.5c0-0.2,0.1-0.4,0.2-0.6c0.1-0.2,0.3-0.5,0.5-0.7c0.2-0.2,0.4-0.4,0.7-0.5
		c0.2-0.1,0.5-0.2,0.7-0.2h8.4V8l-1.5-1.4h-4.6l6,21.9v2.6c0,0.4-0.1,0.8-0.4,1.2c-0.2,0.4-0.7,0.6-1.3,0.6h-8.7v-5.5L89.5,28.9z"/>
	<path d="M99.4,17.7l1.6-4.2V4.3l-1.4-1.9h7.3l-1.3,1.9v9h2.8v-9l-1.3-1.9h7.3L113,4.3v26.9l1.4,1.8h-7.3l1.3-1.8V17.7h-2.9v13.5
		l1.3,1.8h-7.3l1.4-1.8V17.7H99.4z"/>
	<path d="M131.4,31.7c-1.1-1-2-2.3-2.7-3.8c-0.7-1.5-1.3-3.2-1.6-5c-0.4-1.8-0.6-3.6-0.6-5.2v-0.9c0-1.3,0.2-2.8,0.6-4.3
		c0.4-1.6,0.9-3,1.7-4.4c0.8-1.4,1.7-2.6,2.8-3.6c1.1-1,2.4-1.7,3.9-1.9c1.7,0.2,3.1,0.8,4.2,1.8c1.1,1,2.1,2.2,2.8,3.7
		c0.7,1.4,1.2,2.9,1.5,4.5s0.5,3,0.6,4.3v0.6c0,1-0.1,2-0.3,3.2c-0.2,1.2-0.5,2.3-0.9,3.5c-0.4,1.2-0.8,2.3-1.4,3.4
		c-0.5,1.1-1.2,2.1-1.8,3c-0.7,0.9-1.4,1.6-2.2,2.1c-0.8,0.5-1.6,0.8-2.5,0.8h-0.2C133.7,33.2,132.5,32.7,131.4,31.7z M135.7,28
		c0.4-0.3,0.9-0.8,1.3-1.4c0.5-0.6,0.9-1.4,1.3-2.2c0.4-0.9,0.7-1.9,1-3c0.3-1.2,0.4-2.4,0.4-3.8c0-0.8,0-1.7-0.1-2.7
		c-0.1-1-0.3-2-0.6-3s-0.7-1.9-1.3-2.7c-0.6-0.8-1.3-1.5-2.2-2l-0.5,0.1v0c-0.8,0.4-1.4,1-1.9,1.8c-0.5,0.8-0.9,1.6-1.2,2.5
		c-0.3,0.9-0.5,1.9-0.7,2.9c-0.1,1-0.2,1.9-0.2,2.8V18c0,0.9,0.1,1.8,0.2,2.8c0.1,1,0.4,2,0.7,3c0.3,0.9,0.7,1.8,1.3,2.6
		c0.5,0.8,1.2,1.3,1.9,1.7h0l0.4,0.1L135.7,28z"/>
	<path d="M147,17.7h-1.5l1.5-4.2V4.3l-1.3-1.9h10.7V8l-1.5-1.4h-3.2v6.8h5.1l-1.8,4.3h-3.3v13.4l1.2,1.9h-7.2l1.3-1.9V17.7z"/>
	<path d="M170.5,2.1L169.1,0h8.3l-1.5,2.1v9.5l3.5-9.7V0h6.8l-1.6,2.2l0,0l-4.4,12.8l4.4,18.5l1.5,2.2h-6.8v-2l-3.5-14.1v14l1.5,2.1
		h-8.3l1.5-2.1V17.7h-1.8l1.8-4.8V2.1z"/>
	<path d="M193.7,33h-7.2l1.3-1.8V4.3l-1.3-1.9h7.2l-1.5,1.9v26.8L193.7,33z"/>
	<path d="M194.1,2.4h4.4l4.2,10.7V4.3l-1.3-1.9h7.4l-1.3,1.9v31.5l-0.4,0.1L200,17.1v14.1l1.3,1.8h-7.2l1.3-1.8V4.3L194.1,2.4z"/>
	<path d="M218.1,7.2c-0.8,0.4-1.5,1.1-2,1.9s-0.9,1.7-1.2,2.7c-0.3,1-0.5,2-0.6,3c-0.1,1-0.2,1.9-0.2,2.8c0,0.4,0,0.9,0.1,1.5
		c0.1,0.7,0.2,1.4,0.3,2.1c0.1,0.8,0.3,1.6,0.5,2.4c0.2,0.8,0.5,1.6,0.7,2.2c0.3,0.7,0.6,1.2,1,1.6c0.4,0.4,0.8,0.6,1.3,0.6h0.2V18
		h6l-1.4,1.9V33h-4.5c-1.1,0-2-0.3-2.8-0.8c-0.8-0.6-1.6-1.3-2.2-2.2c-0.6-0.9-1.2-1.9-1.6-3c-0.4-1.1-0.8-2.3-1.1-3.4
		c-0.3-1.1-0.5-2.2-0.6-3.3c-0.1-1-0.2-1.9-0.2-2.6c0-1.2,0.1-2.7,0.4-4.5c0.3-1.7,0.7-3.4,1.3-5c0.6-1.6,1.5-2.9,2.6-4.1
		c1.1-1.1,2.5-1.7,4.2-1.7h4.2v6.2L221,7.2H218.1z"/>
	<path d="M226.7,28.9h4.2l-5.8-21.7V4.5c0-0.2,0.1-0.4,0.2-0.6c0.1-0.2,0.3-0.5,0.5-0.7c0.2-0.2,0.4-0.4,0.7-0.5
		c0.2-0.1,0.5-0.2,0.7-0.2h8.4V8l-1.5-1.4h-4.6l6,21.9v2.6c0,0.4-0.1,0.8-0.4,1.2c-0.2,0.4-0.7,0.6-1.3,0.6h-8.7v-5.5L226.7,28.9z"
		/>
</g>
</svg>
