<?xml version="1.0" standalone="no"?>
<!DOCTYPE svg PUBLIC "-//W3C//DTD SVG 20010904//EN"
 "http://www.w3.org/TR/2001/REC-SVG-20010904/DTD/svg10.dtd">
<svg version="1.0" xmlns="http://www.w3.org/2000/svg"
 width="764.000000pt" height="764.000000pt" viewBox="0 0 764.000000 764.000000"
 preserveAspectRatio="xMidYMid meet">
<metadata>
Created by potrace 1.14, written by Peter Selinger 2001-2017
</metadata>
<g transform="translate(0.000000,764.000000) scale(0.100000,-0.100000)"
fill="#000000" stroke="none">
<path d="M4690 7555 c-22 -47 -40 -89 -40 -94 0 -5 -16 -51 -36 -103 -20 -51
-37 -100 -39 -108 -2 -8 -45 -125 -95 -260 -50 -135 -93 -252 -95 -260 -2 -8
-14 -44 -28 -80 -27 -72 -158 -448 -162 -464 -1 -6 -6 -20 -10 -31 -57 -146
-113 -201 -259 -252 -108 -38 -181 -41 -247 -10 -104 48 -174 135 -260 318
-21 45 -42 184 -42 279 -1 156 12 263 63 505 10 50 21 106 24 125 3 19 10 50
16 69 5 19 8 37 5 39 -2 3 1 14 6 25 10 18 9 19 -26 13 -127 -24 -239 -122
-310 -270 -25 -52 -45 -100 -45 -108 0 -8 -4 -18 -9 -23 -4 -6 -13 -23 -19
-40 -6 -16 -29 -82 -52 -145 -42 -114 -98 -281 -105 -310 -12 -46 -60 -169
-76 -191 -27 -39 -114 -62 -229 -63 -52 -1 -110 3 -129 7 -106 25 -200 123
-227 237 -4 19 -9 42 -11 50 -9 39 -2 232 10 315 4 22 9 64 12 92 6 48 5 52
-12 46 -51 -19 -178 -136 -230 -213 -94 -138 -170 -335 -209 -540 -8 -40 3
-62 61 -123 166 -172 201 -359 114 -593 -20 -52 -71 -114 -96 -114 -6 0 -13
-3 -15 -8 -2 -4 -34 -32 -73 -61 -206 -161 -482 -459 -580 -628 -11 -18 -23
-33 -27 -33 -4 0 -8 -4 -8 -9 0 -5 -23 -47 -51 -92 -29 -46 -58 -97 -66 -113
-8 -17 -25 -51 -38 -76 -27 -50 -111 -241 -120 -270 -1 -3 -20 -63 -43 -134
-23 -71 -44 -138 -46 -150 -3 -12 -14 -61 -25 -111 -21 -95 -30 -148 -36 -203
-2 -18 -6 -41 -9 -50 -19 -61 -29 -577 -13 -707 4 -33 9 -80 12 -105 3 -24 8
-56 11 -70 2 -14 7 -38 9 -55 9 -63 13 -83 36 -175 12 -52 23 -97 24 -100 1
-3 8 -25 15 -50 7 -25 14 -47 15 -50 20 -92 163 -416 251 -570 34 -59 195
-302 209 -315 6 -5 38 -43 71 -84 72 -91 243 -264 344 -349 115 -96 121 -102
126 -102 2 0 30 -20 63 -45 119 -90 484 -291 581 -320 3 -1 21 -8 40 -17 20
-8 65 -25 100 -37 36 -12 72 -25 80 -28 8 -3 20 -7 25 -9 6 -1 48 -14 95 -27
47 -14 101 -29 120 -33 19 -4 37 -8 40 -9 69 -16 100 -22 155 -31 17 -3 41 -7
55 -10 14 -3 48 -7 75 -10 28 -2 60 -7 71 -9 124 -27 669 -27 874 0 94 12 110
15 132 19 12 3 40 8 60 11 21 2 59 10 85 16 27 6 62 13 78 16 32 5 260 69 285
80 8 3 20 7 25 9 26 8 102 35 120 44 11 5 61 26 110 46 113 48 274 131 386
200 93 58 264 177 290 203 9 9 36 32 60 51 71 56 300 289 365 370 32 41 61 77
64 80 3 3 10 12 15 21 6 9 34 50 63 92 28 42 52 80 52 86 0 5 3 11 8 13 19 8
144 242 197 368 15 36 33 79 41 95 27 60 109 322 121 385 2 14 8 41 13 60 5
19 11 51 14 70 3 19 8 44 10 56 2 12 7 45 11 74 4 29 8 62 10 72 10 51 18 230
17 383 -1 204 -6 284 -28 430 -2 17 -6 44 -8 62 -3 18 -7 40 -10 50 -3 10 -7
34 -10 53 -4 28 -42 178 -70 280 -23 84 -138 365 -157 385 -5 5 -9 15 -9 22 0
7 -31 67 -70 134 -38 68 -70 126 -70 131 0 4 -4 8 -10 8 -5 0 -10 6 -10 14 0
8 -5 16 -12 18 -26 9 -6 141 34 227 58 122 161 210 328 280 64 27 95 53 108
90 16 45 12 557 -5 621 -14 56 -102 240 -114 240 -4 0 -9 -8 -12 -17 -25 -82
-120 -339 -137 -374 -97 -189 -240 -253 -425 -189 -71 24 -159 74 -193 108
-41 41 -47 106 -23 237 39 216 46 508 16 668 -12 63 -14 75 -30 132 -27 100
-63 167 -117 217 -27 27 -54 46 -58 43 -4 -3 -11 -28 -15 -57 -4 -29 -9 -60
-11 -68 -2 -8 -6 -31 -9 -50 -6 -29 -46 -206 -60 -260 -23 -88 -37 -138 -42
-150 -3 -8 -7 -17 -7 -20 -1 -3 -5 -11 -9 -17 -5 -7 -6 -13 -3 -13 18 0 -83
-220 -135 -295 -122 -174 -330 -290 -446 -248 -21 8 -42 15 -48 17 -5 2 -23 8
-38 14 -16 7 -34 12 -41 12 -26 0 -136 87 -136 106 0 3 -9 17 -20 31 -44 56
-57 143 -46 313 3 36 8 121 11 190 4 69 8 157 10 195 2 39 7 131 10 205 4 74
9 162 11 195 7 106 10 578 5 650 -5 56 -10 70 -23 73 -13 3 -27 -18 -58 -83z
m-273 -1978 c124 -65 188 -209 138 -307 -57 -113 -207 -240 -284 -240 -28 0
-43 9 -75 43 -42 44 -94 137 -111 200 -2 4 -3 8 -5 10 -13 16 -19 128 -8 159
19 55 123 142 170 143 3 0 9 3 13 6 12 13 131 2 162 -14z m-1431 -1000 c179
-51 350 -168 513 -353 26 -29 41 -41 41 -30 0 9 -3 16 -8 16 -4 0 -16 17 -27
38 -11 20 -41 70 -68 110 -27 41 -47 76 -44 78 6 6 213 -101 231 -119 7 -6 29
-21 49 -32 20 -11 37 -23 37 -27 0 -5 6 -8 14 -8 8 0 16 -4 18 -8 5 -12 141
-88 180 -101 49 -16 119 -27 138 -22 3 1 30 4 60 6 30 2 66 7 80 10 14 3 39 8
55 10 17 3 37 8 45 10 8 2 31 7 50 10 19 3 49 8 65 12 48 9 205 11 205 2 0 -5
-20 -18 -45 -30 -25 -12 -45 -25 -45 -29 0 -4 -13 -13 -30 -20 -16 -7 -30 -15
-30 -19 0 -4 -21 -20 -46 -36 -25 -16 -41 -31 -35 -33 7 -2 20 3 30 12 10 9
24 16 32 16 8 0 23 6 34 14 39 26 232 82 325 93 310 38 569 -69 739 -304 24
-33 54 -89 66 -123 1 -3 4 -12 8 -20 35 -93 50 -183 38 -242 -3 -18 -19 -4
-65 55 -100 128 -251 211 -406 222 -49 3 -49 3 -10 22 19 10 42 24 50 32 13
12 9 13 -25 6 -62 -12 -216 -19 -288 -13 -26 2 -16 19 24 41 37 21 99 76 99
89 0 5 -18 -3 -40 -17 -42 -26 -123 -61 -162 -69 -13 -3 -50 -12 -83 -20 -33
-8 -78 -17 -100 -20 -23 -4 -52 -9 -65 -11 -14 -3 -82 -6 -151 -7 -104 0 -137
3 -197 22 -40 13 -84 33 -98 46 -21 20 -30 23 -62 16 -20 -5 -50 -7 -67 -5
-120 14 -224 42 -259 70 -17 15 -35 22 -45 18 -42 -17 -91 -20 -146 -10 -52
10 -56 11 -80 20 -11 5 -40 16 -65 26 -92 35 -157 69 -240 124 -47 32 -86 61
-88 66 -2 5 -8 9 -13 9 -10 0 -133 122 -161 161 -10 12 -18 18 -18 11 0 -19
49 -112 71 -135 43 -46 21 -45 -96 5 -66 29 -87 39 -170 89 -44 26 -44 15 0
-35 19 -21 35 -40 35 -41 0 -6 -26 1 -50 15 -36 20 -242 23 -313 4 -59 -15
-165 -62 -204 -90 -20 -14 -23 -14 -23 -2 0 21 60 152 71 156 5 2 9 10 9 17 0
21 103 121 163 159 130 83 249 114 427 110 63 -1 138 -9 166 -17z m-436 -694
c36 -64 114 -144 160 -165 16 -7 30 -16 30 -20 0 -5 6 -8 14 -8 7 0 27 -7 42
-15 16 -8 35 -15 42 -15 18 0 14 18 -6 24 -23 8 -120 106 -104 106 7 0 34 -11
60 -24 26 -13 61 -27 77 -31 17 -5 35 -9 40 -11 66 -17 246 -23 308 -10 15 3
39 8 54 12 15 3 30 7 35 10 4 3 16 7 25 9 10 2 27 7 38 11 36 14 -6 -21 -67
-55 -83 -47 -205 -86 -300 -95 -49 -5 -7 -23 75 -32 9 -1 18 -2 20 -4 1 -1 28
-2 59 -3 31 -1 59 -5 63 -9 6 -5 -75 -33 -130 -44 -67 -14 -86 -16 -145 -16
-171 0 -289 40 -376 126 -75 74 -91 135 -69 269 4 26 11 47 15 47 5 0 23 -26
40 -57z m1898 -389 c49 -44 153 -98 261 -134 75 -25 112 -32 187 -33 52 -1 94
-5 94 -9 0 -4 -42 -21 -92 -37 -51 -17 -86 -31 -78 -32 86 -9 214 8 277 37 21
10 40 21 43 24 3 4 20 15 38 25 17 11 32 23 32 27 0 4 10 12 21 19 20 10 21 9
16 -23 -16 -104 -36 -147 -92 -196 -57 -50 -129 -75 -227 -76 -44 -1 -82 2
-84 6 -3 5 -9 6 -14 3 -11 -7 -155 40 -205 67 -73 39 -192 134 -182 145 6 5
79 -18 87 -28 3 -3 16 -9 30 -12 14 -3 36 -8 50 -11 49 -12 70 -15 70 -9 0 8
-44 42 -55 43 -5 0 -22 10 -37 23 -14 12 -45 37 -68 56 -42 35 -140 156 -140
174 0 10 13 0 68 -49z m-769 17 c54 -39 78 -94 86 -196 3 -49 15 -95 24 -95 3
0 35 45 69 99 51 78 72 102 102 116 40 18 102 17 150 -3 21 -8 291 -269 326
-313 57 -75 94 -181 96 -275 2 -89 -4 -114 -47 -200 -43 -88 -102 -151 -197
-210 -57 -36 -66 -44 -41 -39 17 3 44 8 60 10 76 9 174 66 252 146 55 56 51
58 104 -46 182 -358 251 -626 188 -729 -12 -18 -19 -35 -16 -37 2 -3 -15 -26
-38 -51 -49 -54 -126 -98 -173 -98 -53 0 -153 30 -241 71 -46 22 -85 39 -89
39 -3 0 -20 7 -37 15 -69 31 -247 99 -332 126 -123 40 -344 96 -410 105 -16 3
-50 9 -75 14 -67 14 -172 29 -315 45 -141 17 -541 24 -700 12 -50 -3 -97 -2
-104 2 -13 9 -12 17 25 131 3 8 5 15 4 15 -2 0 51 141 67 175 41 93 69 147 85
164 10 11 18 25 18 31 0 13 57 91 110 150 63 71 165 175 171 175 4 0 18 -24
32 -52 15 -29 48 -76 75 -104 47 -49 152 -128 160 -120 2 2 -12 24 -31 49 -37
48 -68 109 -87 171 -17 53 -38 155 -33 160 3 2 6 31 7 64 10 200 139 333 421
435 39 14 91 34 118 46 26 11 47 18 47 15 0 -3 8 0 18 6 26 16 117 5 151 -19z
m-354 -1635 c39 -4 81 -9 95 -11 82 -12 186 -28 195 -29 6 -2 35 -8 65 -14 30
-7 64 -13 75 -15 11 -1 26 -6 33 -10 6 -5 16 -6 21 -2 5 3 12 1 15 -4 3 -4 25
-12 48 -16 24 -5 45 -9 48 -10 3 -1 12 -4 20 -8 8 -3 33 -11 55 -17 22 -7 59
-20 82 -31 24 -10 49 -19 57 -19 8 0 17 -4 20 -9 3 -5 18 -12 32 -15 67 -17
332 -160 364 -196 3 -3 24 -20 48 -39 23 -18 42 -38 42 -46 0 -17 -104 -172
-143 -213 -33 -36 -141 -122 -151 -122 -4 0 -23 -10 -44 -23 -67 -42 -154 -69
-281 -86 -57 -8 -421 -7 -456 2 -11 3 -45 8 -75 12 -94 12 -237 50 -306 80
-181 80 -326 195 -443 351 -28 38 -54 74 -59 79 -19 25 -66 124 -61 130 4 3
39 12 79 21 77 16 181 20 290 10 l65 -5 -53 24 c-53 24 -162 59 -212 69 -14 2
-65 12 -115 21 -78 15 -170 23 -267 25 -107 1 129 77 327 106 28 3 78 8 113 9
34 1 64 4 67 6 6 7 337 3 410 -5z"/>
<path d="M3160 3143 c-52 -8 -54 -14 -12 -34 23 -12 42 -25 42 -30 0 -15 71
-129 102 -165 84 -95 247 -91 341 8 28 31 28 48 -1 48 -25 0 -143 60 -207 106
-74 53 -181 80 -265 67z"/>
<path d="M4029 2940 c-47 -10 -116 -16 -153 -14 -73 3 -77 -1 -52 -59 18 -42
52 -78 101 -108 52 -31 161 -34 215 -5 19 10 37 22 40 25 10 13 76 59 107 75
18 9 47 16 64 16 l33 0 -49 31 c-27 17 -57 32 -67 34 -10 2 -22 7 -28 10 -21
13 -129 10 -211 -5z"/>
</g>
</svg>
